<svg version="1.2" xmlns="http://www.w3.org/2000/svg" viewBox="0 0 677 508" width="500" height="375">
	<title>الشعار الرسمي</title>
	<defs>
		<linearGradient id="g1" x2="1" gradientUnits="userSpaceOnUse" gradientTransform="matrix(13.707,0,0,25.239,116.342,454.627)">
			<stop offset="0" stop-color="#caa848"/>
			<stop offset="1" stop-color="#af882e"/>
		</linearGradient>
		<linearGradient id="g2" x2="1" gradientUnits="userSpaceOnUse" gradientTransform="matrix(4.782,0,0,4.802,134.577,464.733)">
			<stop offset="0" stop-color="#caa848"/>
			<stop offset="1" stop-color="#af882e"/>
		</linearGradient>
		<linearGradient id="g3" x2="1" gradientUnits="userSpaceOnUse" gradientTransform="matrix(13.707,0,0,25.239,143.138,454.627)">
			<stop offset="0" stop-color="#caa848"/>
			<stop offset="1" stop-color="#af882e"/>
		</linearGradient>
		<linearGradient id="g4" x2="1" gradientUnits="userSpaceOnUse" gradientTransform="matrix(4.782,0,0,4.802,161.372,464.733)">
			<stop offset="0" stop-color="#caa848"/>
			<stop offset="1" stop-color="#af882e"/>
		</linearGradient>
		<linearGradient id="g5" x2="1" gradientUnits="userSpaceOnUse" gradientTransform="matrix(3.777,0,0,3.776,172.826,448.153)">
			<stop offset="0" stop-color="#caa848"/>
			<stop offset="1" stop-color="#af882e"/>
		</linearGradient>
		<linearGradient id="g6" x2="1" gradientUnits="userSpaceOnUse" gradientTransform="matrix(13.845,0,0,14.82,170.327,454.193)">
			<stop offset="0" stop-color="#caa848"/>
			<stop offset="1" stop-color="#af882e"/>
		</linearGradient>
		<linearGradient id="g7" x2="1" gradientUnits="userSpaceOnUse" gradientTransform="matrix(3.776,0,0,3.776,204.998,448.153)">
			<stop offset="0" stop-color="#caa848"/>
			<stop offset="1" stop-color="#af882e"/>
		</linearGradient>
		<linearGradient id="g8" x2="1" gradientUnits="userSpaceOnUse" gradientTransform="matrix(27.729,0,0,14.419,189.875,454.627)">
			<stop offset="0" stop-color="#caa848"/>
			<stop offset="1" stop-color="#af882e"/>
		</linearGradient>
		<linearGradient id="g9" x2="1" gradientUnits="userSpaceOnUse" gradientTransform="matrix(3.776,0,0,3.776,199.603,448.153)">
			<stop offset="0" stop-color="#caa848"/>
			<stop offset="1" stop-color="#af882e"/>
		</linearGradient>
		<linearGradient id="g10" x2="1" gradientUnits="userSpaceOnUse" gradientTransform="matrix(16.76,0,0,21.579,219.744,447.433)">
			<stop offset="0" stop-color="#caa848"/>
			<stop offset="1" stop-color="#af882e"/>
		</linearGradient>
		<linearGradient id="g11" x2="1" gradientUnits="userSpaceOnUse" gradientTransform="matrix(11.658,0,0,19.793,238.409,454.627)">
			<stop offset="0" stop-color="#caa848"/>
			<stop offset="1" stop-color="#af882e"/>
		</linearGradient>
		<linearGradient id="g12" x2="1" gradientUnits="userSpaceOnUse" gradientTransform="matrix(3.777,0,0,3.776,267.308,448.153)">
			<stop offset="0" stop-color="#caa848"/>
			<stop offset="1" stop-color="#af882e"/>
		</linearGradient>
		<linearGradient id="g13" x2="1" gradientUnits="userSpaceOnUse" gradientTransform="matrix(3.777,0,0,3.776,262.273,448.153)">
			<stop offset="0" stop-color="#caa848"/>
			<stop offset="1" stop-color="#af882e"/>
		</linearGradient>
		<linearGradient id="g14" x2="1" gradientUnits="userSpaceOnUse" gradientTransform="matrix(50.478,0,0,25.009,252.132,447.433)">
			<stop offset="0" stop-color="#caa848"/>
			<stop offset="1" stop-color="#af882e"/>
		</linearGradient>
		<linearGradient id="g15" x2="1" gradientUnits="userSpaceOnUse" gradientTransform="matrix(3.777,0,0,3.776,313.22,448.153)">
			<stop offset="0" stop-color="#caa848"/>
			<stop offset="1" stop-color="#af882e"/>
		</linearGradient>
		<linearGradient id="g16" x2="1" gradientUnits="userSpaceOnUse" gradientTransform="matrix(3.777,0,0,3.776,318.614,448.153)">
			<stop offset="0" stop-color="#caa848"/>
			<stop offset="1" stop-color="#af882e"/>
		</linearGradient>
		<linearGradient id="g17" x2="1" gradientUnits="userSpaceOnUse" gradientTransform="matrix(3.777,0,0,3.777,330.518,470.902)">
			<stop offset="0" stop-color="#caa848"/>
			<stop offset="1" stop-color="#af882e"/>
		</linearGradient>
		<linearGradient id="g18" x2="1" gradientUnits="userSpaceOnUse" gradientTransform="matrix(3.777,0,0,3.777,325.123,470.902)">
			<stop offset="0" stop-color="#caa848"/>
			<stop offset="1" stop-color="#af882e"/>
		</linearGradient>
		<linearGradient id="g19" x2="1" gradientUnits="userSpaceOnUse" gradientTransform="matrix(54.001,0,0,14.457,308.886,454.555)">
			<stop offset="0" stop-color="#caa848"/>
			<stop offset="1" stop-color="#af882e"/>
		</linearGradient>
		<linearGradient id="g20" x2="1" gradientUnits="userSpaceOnUse" gradientTransform="matrix(33.177,0,0,21.579,364.669,447.433)">
			<stop offset="0" stop-color="#caa848"/>
			<stop offset="1" stop-color="#af882e"/>
		</linearGradient>
		<linearGradient id="g21" x2="1" gradientUnits="userSpaceOnUse" gradientTransform="matrix(16.76,0,0,21.579,399.808,447.433)">
			<stop offset="0" stop-color="#caa848"/>
			<stop offset="1" stop-color="#af882e"/>
		</linearGradient>
		<linearGradient id="g22" x2="1" gradientUnits="userSpaceOnUse" gradientTransform="matrix(4.208,0,0,21.579,418.581,447.433)">
			<stop offset="0" stop-color="#caa848"/>
			<stop offset="1" stop-color="#af882e"/>
		</linearGradient>
		<linearGradient id="g23" x2="1" gradientUnits="userSpaceOnUse" gradientTransform="matrix(3.777,0,0,3.776,438.704,448.153)">
			<stop offset="0" stop-color="#caa848"/>
			<stop offset="1" stop-color="#af882e"/>
		</linearGradient>
		<linearGradient id="g24" x2="1" gradientUnits="userSpaceOnUse" gradientTransform="matrix(3.777,0,0,3.776,433.309,448.153)">
			<stop offset="0" stop-color="#caa848"/>
			<stop offset="1" stop-color="#af882e"/>
		</linearGradient>
		<linearGradient id="g25" x2="1" gradientUnits="userSpaceOnUse" gradientTransform="matrix(3.777,0,0,3.777,445.213,470.902)">
			<stop offset="0" stop-color="#caa848"/>
			<stop offset="1" stop-color="#af882e"/>
		</linearGradient>
		<linearGradient id="g26" x2="1" gradientUnits="userSpaceOnUse" gradientTransform="matrix(3.777,0,0,3.777,450.608,470.902)">
			<stop offset="0" stop-color="#caa848"/>
			<stop offset="1" stop-color="#af882e"/>
		</linearGradient>
		<linearGradient id="g27" x2="1" gradientUnits="userSpaceOnUse" gradientTransform="matrix(3.776,0,0,3.776,458.864,448.153)">
			<stop offset="0" stop-color="#caa848"/>
			<stop offset="1" stop-color="#af882e"/>
		</linearGradient>
		<linearGradient id="g28" x2="1" gradientUnits="userSpaceOnUse" gradientTransform="matrix(3.776,0,0,3.777,467.62,470.902)">
			<stop offset="0" stop-color="#caa848"/>
			<stop offset="1" stop-color="#af882e"/>
		</linearGradient>
		<linearGradient id="g29" x2="1" gradientUnits="userSpaceOnUse" gradientTransform="matrix(51.556,0,0,21.579,428.975,447.433)">
			<stop offset="0" stop-color="#caa848"/>
			<stop offset="1" stop-color="#af882e"/>
		</linearGradient>
		<linearGradient id="g30" x2="1" gradientUnits="userSpaceOnUse" gradientTransform="matrix(4.208,0,0,21.579,482.727,447.433)">
			<stop offset="0" stop-color="#caa848"/>
			<stop offset="1" stop-color="#af882e"/>
		</linearGradient>
		<linearGradient id="g31" x2="1" gradientUnits="userSpaceOnUse" gradientTransform="matrix(3.777,0,0,3.776,497.454,448.153)">
			<stop offset="0" stop-color="#caa848"/>
			<stop offset="1" stop-color="#af882e"/>
		</linearGradient>
		<linearGradient id="g32" x2="1" gradientUnits="userSpaceOnUse" gradientTransform="matrix(3.777,0,0,3.776,502.849,448.153)">
			<stop offset="0" stop-color="#caa848"/>
			<stop offset="1" stop-color="#af882e"/>
		</linearGradient>
		<linearGradient id="g33" x2="1" gradientUnits="userSpaceOnUse" gradientTransform="matrix(35.389,0,0,21.579,493.121,447.433)">
			<stop offset="0" stop-color="#caa848"/>
			<stop offset="1" stop-color="#af882e"/>
		</linearGradient>
		<linearGradient id="g34" x2="1" gradientUnits="userSpaceOnUse" gradientTransform="matrix(35.282,0,0,19.79,529.842,454.627)">
			<stop offset="0" stop-color="#caa848"/>
			<stop offset="1" stop-color="#af882e"/>
		</linearGradient>
		<linearGradient id="g35" x2="1" gradientUnits="userSpaceOnUse" gradientTransform="matrix(3.777,0,0,3.776,555.035,448.153)">
			<stop offset="0" stop-color="#caa848"/>
			<stop offset="1" stop-color="#af882e"/>
		</linearGradient>
		<linearGradient id="g36" x2="1" gradientUnits="userSpaceOnUse" gradientTransform="matrix(3.597,0,0,3.596,552.338,443.783)">
			<stop offset="0" stop-color="#caa848"/>
			<stop offset="1" stop-color="#af882e"/>
		</linearGradient>
		<linearGradient id="g37" x2="1" gradientUnits="userSpaceOnUse" gradientTransform="matrix(14.118,0,0,12.213,116.297,488.002)">
			<stop offset="0" stop-color="#caa848"/>
			<stop offset="1" stop-color="#af882e"/>
		</linearGradient>
		<linearGradient id="g38" x2="1" gradientUnits="userSpaceOnUse" gradientTransform="matrix(8.669,0,0,12.213,132.034,488.002)">
			<stop offset="0" stop-color="#caa848"/>
			<stop offset="1" stop-color="#af882e"/>
		</linearGradient>
		<linearGradient id="g39" x2="1" gradientUnits="userSpaceOnUse" gradientTransform="matrix(4.724,0,0,1.807,141.241,494.579)">
			<stop offset="0" stop-color="#caa848"/>
			<stop offset="1" stop-color="#af882e"/>
		</linearGradient>
		<linearGradient id="g40" x2="1" gradientUnits="userSpaceOnUse" gradientTransform="matrix(10.083,0,0,12.248,147.45,487.967)">
			<stop offset="0" stop-color="#caa848"/>
			<stop offset="1" stop-color="#af882e"/>
		</linearGradient>
		<linearGradient id="g41" x2="1" gradientUnits="userSpaceOnUse" gradientTransform="matrix(9.474,0,0,12.213,159.788,488.002)">
			<stop offset="0" stop-color="#caa848"/>
			<stop offset="1" stop-color="#af882e"/>
		</linearGradient>
		<linearGradient id="g42" x2="1" gradientUnits="userSpaceOnUse" gradientTransform="matrix(12.427,0,0,12.213,171.374,488.002)">
			<stop offset="0" stop-color="#caa848"/>
			<stop offset="1" stop-color="#af882e"/>
		</linearGradient>
		<linearGradient id="g43" x2="1" gradientUnits="userSpaceOnUse" gradientTransform="matrix(11.533,0,0,12.213,184.992,488.002)">
			<stop offset="0" stop-color="#caa848"/>
			<stop offset="1" stop-color="#af882e"/>
		</linearGradient>
		<linearGradient id="g44" x2="1" gradientUnits="userSpaceOnUse" gradientTransform="matrix(14.118,0,0,12.213,195.684,488.002)">
			<stop offset="0" stop-color="#caa848"/>
			<stop offset="1" stop-color="#af882e"/>
		</linearGradient>
		<linearGradient id="g45" x2="1" gradientUnits="userSpaceOnUse" gradientTransform="matrix(12.168,0,0,12.213,211.502,488.002)">
			<stop offset="0" stop-color="#caa848"/>
			<stop offset="1" stop-color="#af882e"/>
		</linearGradient>
		<linearGradient id="g46" x2="1" gradientUnits="userSpaceOnUse" gradientTransform="matrix(14.118,0,0,12.213,229.441,488.002)">
			<stop offset="0" stop-color="#caa848"/>
			<stop offset="1" stop-color="#af882e"/>
		</linearGradient>
		<linearGradient id="g47" x2="1" gradientUnits="userSpaceOnUse" gradientTransform="matrix(8.669,0,0,12.213,245.178,488.002)">
			<stop offset="0" stop-color="#caa848"/>
			<stop offset="1" stop-color="#af882e"/>
		</linearGradient>
		<linearGradient id="g48" x2="1" gradientUnits="userSpaceOnUse" gradientTransform="matrix(4.724,0,0,1.807,254.385,494.579)">
			<stop offset="0" stop-color="#caa848"/>
			<stop offset="1" stop-color="#af882e"/>
		</linearGradient>
		<linearGradient id="g49" x2="1" gradientUnits="userSpaceOnUse" gradientTransform="matrix(14.118,0,0,12.213,258.957,488.002)">
			<stop offset="0" stop-color="#caa848"/>
			<stop offset="1" stop-color="#af882e"/>
		</linearGradient>
		<linearGradient id="g50" x2="1" gradientUnits="userSpaceOnUse" gradientTransform="matrix(7.954,0,0,12.642,274.256,487.788)">
			<stop offset="0" stop-color="#caa848"/>
			<stop offset="1" stop-color="#af882e"/>
		</linearGradient>
		<linearGradient id="g51" x2="1" gradientUnits="userSpaceOnUse" gradientTransform="matrix(14.118,0,0,12.213,282.917,488.002)">
			<stop offset="0" stop-color="#caa848"/>
			<stop offset="1" stop-color="#af882e"/>
		</linearGradient>
		<linearGradient id="g52" x2="1" gradientUnits="userSpaceOnUse" gradientTransform="matrix(7.954,0,0,12.642,298.216,487.788)">
			<stop offset="0" stop-color="#caa848"/>
			<stop offset="1" stop-color="#af882e"/>
		</linearGradient>
		<linearGradient id="g53" x2="1" gradientUnits="userSpaceOnUse" gradientTransform="matrix(9.474,0,0,12.213,308.488,488.002)">
			<stop offset="0" stop-color="#caa848"/>
			<stop offset="1" stop-color="#af882e"/>
		</linearGradient>
		<linearGradient id="g54" x2="1" gradientUnits="userSpaceOnUse" gradientTransform="matrix(11.533,0,0,12.213,318.893,488.002)">
			<stop offset="0" stop-color="#caa848"/>
			<stop offset="1" stop-color="#af882e"/>
		</linearGradient>
		<linearGradient id="g55" x2="1" gradientUnits="userSpaceOnUse" gradientTransform="matrix(12.168,0,0,12.213,331.222,488.002)">
			<stop offset="0" stop-color="#caa848"/>
			<stop offset="1" stop-color="#af882e"/>
		</linearGradient>
		<linearGradient id="g56" x2="1" gradientUnits="userSpaceOnUse" gradientTransform="matrix(10.486,0,0,12.642,350.484,487.788)">
			<stop offset="0" stop-color="#caa848"/>
			<stop offset="1" stop-color="#af882e"/>
		</linearGradient>
		<linearGradient id="g57" x2="1" gradientUnits="userSpaceOnUse" gradientTransform="matrix(13.885,0,0,12.642,362.76,487.788)">
			<stop offset="0" stop-color="#caa848"/>
			<stop offset="1" stop-color="#af882e"/>
		</linearGradient>
		<linearGradient id="g58" x2="1" gradientUnits="userSpaceOnUse" gradientTransform="matrix(12.427,0,0,12.213,378.731,488.002)">
			<stop offset="0" stop-color="#caa848"/>
			<stop offset="1" stop-color="#af882e"/>
		</linearGradient>
		<linearGradient id="g59" x2="1" gradientUnits="userSpaceOnUse" gradientTransform="matrix(10.401,0,0,12.213,392.825,488.002)">
			<stop offset="0" stop-color="#caa848"/>
			<stop offset="1" stop-color="#af882e"/>
		</linearGradient>
		<linearGradient id="g60" x2="1" gradientUnits="userSpaceOnUse" gradientTransform="matrix(10.003,0,0,12.248,404.453,487.967)">
			<stop offset="0" stop-color="#caa848"/>
			<stop offset="1" stop-color="#af882e"/>
		</linearGradient>
		<linearGradient id="g61" x2="1" gradientUnits="userSpaceOnUse" gradientTransform="matrix(14.118,0,0,12.213,414.796,488.002)">
			<stop offset="0" stop-color="#caa848"/>
			<stop offset="1" stop-color="#af882e"/>
		</linearGradient>
		<linearGradient id="g62" x2="1" gradientUnits="userSpaceOnUse" gradientTransform="matrix(10.486,0,0,12.642,430.301,487.788)">
			<stop offset="0" stop-color="#caa848"/>
			<stop offset="1" stop-color="#af882e"/>
		</linearGradient>
		<linearGradient id="g63" x2="1" gradientUnits="userSpaceOnUse" gradientTransform="matrix(10.401,0,0,12.213,442.168,488.002)">
			<stop offset="0" stop-color="#caa848"/>
			<stop offset="1" stop-color="#af882e"/>
		</linearGradient>
		<linearGradient id="g64" x2="1" gradientUnits="userSpaceOnUse" gradientTransform="matrix(3.337,0,0,12.213,453.832,488.002)">
			<stop offset="0" stop-color="#caa848"/>
			<stop offset="1" stop-color="#af882e"/>
		</linearGradient>
		<linearGradient id="g65" x2="1" gradientUnits="userSpaceOnUse" gradientTransform="matrix(12.427,0,0,12.213,459.584,488.002)">
			<stop offset="0" stop-color="#caa848"/>
			<stop offset="1" stop-color="#af882e"/>
		</linearGradient>
		<linearGradient id="g66" x2="1" gradientUnits="userSpaceOnUse" gradientTransform="matrix(12.159,0,0,12.642,474.088,487.788)">
			<stop offset="0" stop-color="#caa848"/>
			<stop offset="1" stop-color="#af882e"/>
		</linearGradient>
		<linearGradient id="g67" x2="1" gradientUnits="userSpaceOnUse" gradientTransform="matrix(10.486,0,0,12.642,493.404,487.788)">
			<stop offset="0" stop-color="#caa848"/>
			<stop offset="1" stop-color="#af882e"/>
		</linearGradient>
		<linearGradient id="g68" x2="1" gradientUnits="userSpaceOnUse" gradientTransform="matrix(13.885,0,0,12.642,505.68,487.788)">
			<stop offset="0" stop-color="#caa848"/>
			<stop offset="1" stop-color="#af882e"/>
		</linearGradient>
		<linearGradient id="g69" x2="1" gradientUnits="userSpaceOnUse" gradientTransform="matrix(8.669,0,0,12.213,526.553,488.002)">
			<stop offset="0" stop-color="#caa848"/>
			<stop offset="1" stop-color="#af882e"/>
		</linearGradient>
		<linearGradient id="g70" x2="1" gradientUnits="userSpaceOnUse" gradientTransform="matrix(2.631,0,0,2.407,536.734,497.808)">
			<stop offset="0" stop-color="#caa848"/>
			<stop offset="1" stop-color="#af882e"/>
		</linearGradient>
		<linearGradient id="g71" x2="1" gradientUnits="userSpaceOnUse" gradientTransform="matrix(8.669,0,0,12.213,541.906,488.002)">
			<stop offset="0" stop-color="#caa848"/>
			<stop offset="1" stop-color="#af882e"/>
		</linearGradient>
		<linearGradient id="g72" x2="1" gradientUnits="userSpaceOnUse" gradientTransform="matrix(2.631,0,0,2.407,552.088,497.808)">
			<stop offset="0" stop-color="#caa848"/>
			<stop offset="1" stop-color="#af882e"/>
		</linearGradient>
		<linearGradient id="g73" x2="1" gradientUnits="userSpaceOnUse" gradientTransform="matrix(10.486,0,0,12.642,557.027,487.788)">
			<stop offset="0" stop-color="#caa848"/>
			<stop offset="1" stop-color="#af882e"/>
		</linearGradient>
		<linearGradient id="g74" x2="1" gradientUnits="userSpaceOnUse" gradientTransform="matrix(442.337,0,0,409.022,120.613,20.079)">
			<stop offset="0" stop-color="#caa848"/>
			<stop offset="1" stop-color="#af882e"/>
		</linearGradient>
		<linearGradient id="g75" x2="1" gradientUnits="userSpaceOnUse" gradientTransform="matrix(90.266,0,0,55.235,432.894,137.862)">
			<stop offset="0" stop-color="#caa848"/>
			<stop offset="1" stop-color="#af882e"/>
		</linearGradient>
	</defs>
	<style>
		.s0 { fill: #403f40 } 
		.s1 { fill: url(#g1) } 
		.s2 { fill: url(#g2) } 
		.s3 { fill: url(#g3) } 
		.s4 { fill: url(#g4) } 
		.s5 { fill: url(#g5) } 
		.s6 { fill: url(#g6) } 
		.s7 { fill: url(#g7) } 
		.s8 { fill: url(#g8) } 
		.s9 { fill: url(#g9) } 
		.s10 { fill: url(#g10) } 
		.s11 { fill: url(#g11) } 
		.s12 { fill: url(#g12) } 
		.s13 { fill: url(#g13) } 
		.s14 { fill: url(#g14) } 
		.s15 { fill: url(#g15) } 
		.s16 { fill: url(#g16) } 
		.s17 { fill: url(#g17) } 
		.s18 { fill: url(#g18) } 
		.s19 { fill: url(#g19) } 
		.s20 { fill: url(#g20) } 
		.s21 { fill: url(#g21) } 
		.s22 { fill: url(#g22) } 
		.s23 { fill: url(#g23) } 
		.s24 { fill: url(#g24) } 
		.s25 { fill: url(#g25) } 
		.s26 { fill: url(#g26) } 
		.s27 { fill: url(#g27) } 
		.s28 { fill: url(#g28) } 
		.s29 { fill: url(#g29) } 
		.s30 { fill: url(#g30) } 
		.s31 { fill: url(#g31) } 
		.s32 { fill: url(#g32) } 
		.s33 { fill: url(#g33) } 
		.s34 { fill: url(#g34) } 
		.s35 { fill: url(#g35) } 
		.s36 { fill: url(#g36) } 
		.s37 { fill: url(#g37) } 
		.s38 { fill: url(#g38) } 
		.s39 { fill: url(#g39) } 
		.s40 { fill: url(#g40) } 
		.s41 { fill: url(#g41) } 
		.s42 { fill: url(#g42) } 
		.s43 { fill: url(#g43) } 
		.s44 { fill: url(#g44) } 
		.s45 { fill: url(#g45) } 
		.s46 { fill: url(#g46) } 
		.s47 { fill: url(#g47) } 
		.s48 { fill: url(#g48) } 
		.s49 { fill: url(#g49) } 
		.s50 { fill: url(#g50) } 
		.s51 { fill: url(#g51) } 
		.s52 { fill: url(#g52) } 
		.s53 { fill: url(#g53) } 
		.s54 { fill: url(#g54) } 
		.s55 { fill: url(#g55) } 
		.s56 { fill: url(#g56) } 
		.s57 { fill: url(#g57) } 
		.s58 { fill: url(#g58) } 
		.s59 { fill: url(#g59) } 
		.s60 { fill: url(#g60) } 
		.s61 { fill: url(#g61) } 
		.s62 { fill: url(#g62) } 
		.s63 { fill: url(#g63) } 
		.s64 { fill: url(#g64) } 
		.s65 { fill: url(#g65) } 
		.s66 { fill: url(#g66) } 
		.s67 { fill: url(#g67) } 
		.s68 { fill: url(#g68) } 
		.s69 { fill: url(#g69) } 
		.s70 { fill: url(#g70) } 
		.s71 { fill: url(#g71) } 
		.s72 { fill: url(#g72) } 
		.s73 { fill: url(#g73) } 
		.s74 { fill: url(#g74) } 
		.s75 { fill: url(#g75) } 
		.s76 { fill: #fefefe } 
	</style>
	<g id="_Artboards_">
	</g>
	<g id="Layer 1">
		<path id="&lt;Path&gt;" class="s0" d="m690.7 1781h-708.7v-566.9h708.7z"/>
		<g id="&lt;Group&gt;">
			<g id="&lt;Group&gt;">
				<path id="&lt;Compound Path&gt;" fill-rule="evenodd" class="s1" d="m126.1 454.6h3.9v10.7q0.2 7.2-6.7 7.1-0.3 7.7-7 7.5v-3.5q2.9-0.2 3-4.1v-12.2q0.6-5.3 6.8-5.5zm-0.3 3.7h-0.9q-1.3 0.1-1.4 1.4v9.1h0.9q1.5-0.1 1.4-1.5z"/>
				<path id="&lt;Path&gt;" class="s2" d="m137 464.7q-1.1 0-1.7 0.7-0.7 0.7-0.7 1.7 0 1.1 0.7 1.7 0.6 0.7 1.7 0.7 1 0 1.7-0.7 0.7-0.7 0.7-1.7 0-1-0.7-1.7-0.7-0.7-1.7-0.7z"/>
				<path id="&lt;Compound Path&gt;" fill-rule="evenodd" class="s3" d="m152.9 454.6h3.9v10.7q0.2 7.2-6.7 7.1-0.3 7.7-7 7.5v-3.5q2.9-0.2 3-4.1v-12.2q0.6-5.3 6.8-5.5zm-0.3 3.7h-0.9q-1.3 0.1-1.4 1.4v9.1h0.9q1.4-0.1 1.4-1.5z"/>
				<path id="&lt;Path&gt;" class="s4" d="m163.8 464.7q-1.1 0-1.7 0.7-0.7 0.7-0.7 1.7 0 1.1 0.7 1.7 0.6 0.7 1.7 0.7 1 0 1.7-0.7 0.7-0.7 0.7-1.7 0-1-0.7-1.7-0.7-0.7-1.7-0.7z"/>
				<path id="&lt;Path&gt;" class="s5" d="m176.6 448.2h-3.8v3.7h3.8z"/>
				<path id="&lt;Path&gt;" class="s6" d="m178.9 455.4q-2.8-1.4-5.9-1.2v3.7q7.1 0.2 7.3 7v0.7h-10v3.4h13.9v-3.4q0.1-2.6-1-5.5-1.2-2.8-4.3-4.7z"/>
				<path id="&lt;Path&gt;" class="s7" d="m208.8 448.2h-3.8v3.7h3.8z"/>
				<path id="&lt;Path&gt;" class="s8" d="m213.4 465.6h-16.5q-3-0.7-3-4.7v-6.3h-4v8.5q0.6 6.4 8.3 5.9h19.4v-14.4h-4.2z"/>
				<path id="&lt;Path&gt;" class="s9" d="m203.4 448.2h-3.8v3.7h3.8z"/>
				<path id="&lt;Path&gt;" class="s10" d="m232.3 465.6h-4.1v-18.2h-4.2v18.2h-4.3v3.4h16.8v-3.4-18.2h-4.2z"/>
				<path id="&lt;Compound Path&gt;" fill-rule="evenodd" class="s11" d="m248.6 454.6h1.5v14.4q0 2.3-1 3.8-1.6 1.8-4.7 1.6h-5.3v-3.6h5.8q1.6-0.2 1.2-1.8-4.4 0.2-6.5-2.8-2-3-0.6-7.2 1.3-4.3 9.6-4.4zm-2.5 3.6q-4.6 0.2-3.9 4.7 1 3 3.9 2.7z"/>
				<path id="&lt;Path&gt;" class="s12" d="m271.1 448.2h-3.8v3.7h3.8z"/>
				<path id="&lt;Path&gt;" class="s13" d="m266.1 448.2h-3.8v3.7h3.8z"/>
				<path id="&lt;Compound Path&gt;" fill-rule="evenodd" class="s14" d="m298.4 447.4h4.2v21.6h-17.3q-1.4 3.6-6.7 3.4h-3.5v-3.4h-23v-21.6h4.2v18.2h6q-3.2-3-2-7.1 1.6-3.9 6.9-3.9h5.5v11h2.4v-4.8q0.2-6 6.8-6.2h4c0 0.1 0 10.9 0 11h3.7v-18.2h4.2v18.2h4.6zm-29.8 11h-0.5q-3.7-0.2-3.9 2.3 0.8 3.2 4.4 4.9zm13-0.2h-0.9q-1.2 0.1-1.4 1.4v9.1h1q1.4-0.1 1.3-1.5z"/>
				<path id="&lt;Path&gt;" class="s15" d="m317 448.2h-3.8v3.7h3.8z"/>
				<path id="&lt;Path&gt;" class="s16" d="m322.4 448.2h-3.8v3.7h3.8z"/>
				<path id="&lt;Path&gt;" class="s17" d="m330.5 474.7h3.8v-3.8h-3.8z"/>
				<path id="&lt;Path&gt;" class="s18" d="m325.1 474.7h3.8v-3.8h-3.8z"/>
				<path id="&lt;Path&gt;" class="s19" d="m358.5 465.6h-4.4v-8.3h-4.4v8.3h-4.4v-5.6h-4.4v5.6h-4.6-0.6-1.3v-11h-4.2v11h-4.7-0.6-1.6v-11q-3.5-0.1-6 1-2.5 1.1-4.1 2.8-4.1 4.6-4.3 10.6h3.9l0.5-2.3q1.8-5.4 5.8-7.5v9.8h5.8 0.6 10.2 0.6 26.6v-3.4-11h-4.4z"/>
				<path id="&lt;Path&gt;" class="s20" d="m393.5 465.6h-4.5v-8.3h-4.4v8.3h-4.4v-5.6h-4.4v5.6h-4.6-0.5-1.8v-18.2h-4.2v18.2 3.4h6 0.5 26.6v-3.4-11h-4.3z"/>
				<path id="&lt;Path&gt;" class="s21" d="m412.4 465.6h-4.1v-18.2h-4.2v18.2h-4.3v3.4h16.8v-3.4-18.2h-4.2z"/>
				<path id="&lt;Path&gt;" class="s22" d="m418.6 469h4.2v-21.6h-4.2z"/>
				<path id="&lt;Path&gt;" class="s23" d="m442.5 448.2h-3.8v3.7h3.8z"/>
				<path id="&lt;Path&gt;" class="s24" d="m437.1 448.2h-3.8v3.7h3.8z"/>
				<path id="&lt;Path&gt;" class="s25" d="m445.2 474.7h3.8v-3.8h-3.8z"/>
				<path id="&lt;Path&gt;" class="s26" d="m450.6 474.7h3.8v-3.8h-3.8z"/>
				<path id="&lt;Path&gt;" class="s27" d="m462.6 448.2h-3.7v3.7h3.7z"/>
				<path id="&lt;Path&gt;" class="s28" d="m467.6 474.7h3.8v-3.8h-3.8z"/>
				<path id="&lt;Path&gt;" class="s29" d="m476.3 465.6h-1.7-0.6-2v-11h-4.2v11h-2.4-0.6-1.8v-11h-4.2v11h-2.4-0.6-1.3v-11h-4.2v11h-4.7-0.6-1.6v-11q-3.5-0.1-6 1-2.5 1.1-4.1 2.8-4.1 4.6-4.3 10.6h3.9l0.5-2.3q1.8-5.4 5.8-7.5v9.8h5.8 0.6 10.2 0.6 8.4 0.6 8.6 0.6 5.9v-3.4-18.2h-4.2z"/>
				<path id="&lt;Path&gt;" class="s30" d="m482.7 469h4.2v-21.6h-4.2z"/>
				<path id="&lt;Path&gt;" class="s31" d="m501.2 448.2h-3.7v3.7h3.7z"/>
				<path id="&lt;Path&gt;" class="s32" d="m506.6 448.2h-3.8v3.7h3.8z"/>
				<path id="&lt;Path&gt;" class="s33" d="m521.9 456.4h-6l10.8-9h-5.8l-10.1 8.2v4.8h11.1q3.2 0.2 2.2 5.2h-14.4-0.6-1.5v-11q-3.6-0.1-6.1 1-2.4 1.1-4 2.8-4.2 4.6-4.4 10.6h4l0.5-2.3q1.7-5.4 5.8-7.5v9.8h5.7 0.6 18.8v-6.6q-0.3-5.6-6.6-6z"/>
				<path id="&lt;Path&gt;" class="s34" d="m560.7 454.6v11h-4.4v-8.3h-4.4v8.3h-4.4v-5.6h-4.4v5.6h-4.5-0.7-1.1v-11h-4v12q0 4.1-3 4.1v3.7q5.8 0.3 6.8-5.4h1.3 0.7 26.5v-3.4-11z"/>
				<path id="&lt;Path&gt;" class="s35" d="m555 451.9h3.8v-3.7h-3.8z"/>
				<path id="&lt;Path&gt;" class="s36" d="m555.9 443.8h-3.6v3.6h3.6z"/>
			</g>
			<g id="&lt;Group&gt;">
				<path id="&lt;Compound Path&gt;" fill-rule="evenodd" class="s37" d="m130 499.2l0.4 1h-1.3q-0.5 0-1.6 0-0.2-0.8-0.7-2.1-0.4-1.4-0.7-2.2h-4.8q-1 2.1-2 4.3h-1.5q-0.4 0-1.5 0 0.9-1.6 2.2-4.1l2.3-4.5q1.1-2.1 1.9-3.6 1.1 0 1.6 0 0.9 0 1.7 0l1.3 3.7zm-4.5-5.3l-1.4-4.1-0.7 1.5-1.3 2.6z"/>
				<path id="&lt;Path&gt;" class="s38" d="m136.5 498.3h-1.5q0-1.5 0.1-3l0.2-3.6q0.1-2.1 0.2-3.7-0.9 0-1.3 0-0.6 0-1.6 0 0 2.9-0.1 6.2-0.2 3.3-0.5 6h1.7 2.8q1.7 0 4.1 0 0-1 0.1-1.9-0.7 0-1.3 0-0.7 0-2.9 0z"/>
				<path id="&lt;Path&gt;" class="s39" d="m141.3 494.6q0 0.9-0.1 1.8 1.3-0.1 2.3-0.1 1.1 0 2.4 0.1 0-1.1 0.1-1.8-1.3 0-2.4 0-1 0-2.3 0z"/>
				<path id="&lt;Compound Path&gt;" fill-rule="evenodd" class="s40" d="m157.4 496q0.1 0.4 0.1 0.8 0 0.9-0.3 1.6-0.4 0.7-1.1 1.1-0.6 0.4-1.4 0.6-0.8 0.1-3.5 0.1h-2.1-1.6q0.1-1.9 0.2-3.1 0-1.2 0.1-4.1 0.1-2.9 0.1-4 0-0.4 0-1 1.2 0 1.9 0 0.8 0 1.9 0 1.1 0 1.8 0 1 0 1.5 0.1 0.5 0 0.9 0.2 0.4 0.2 0.6 0.4 0.3 0.3 0.5 0.6 0.2 0.3 0.3 0.7 0.1 0.4 0.1 0.8 0 0.5-0.1 1-0.2 0.4-0.4 0.8-0.2 0.4-0.5 0.6-0.3 0.3-0.6 0.4-0.3 0.1-0.7 0.3 0.4 0.1 0.6 0.2 0.3 0.1 0.6 0.2 0.2 0.2 0.5 0.5 0.3 0.3 0.4 0.6 0.2 0.3 0.2 0.6zm-7-2.9h1.4q0.9 0 1.3-0.1 0.3 0 0.6-0.2 0.4-0.1 0.6-0.4 0.2-0.2 0.4-0.6 0.1-0.3 0.1-0.6 0-0.4-0.2-0.6-0.1-0.3-0.3-0.5-0.3-0.2-0.6-0.3-0.4-0.1-1.1-0.1h-2.1zm4.5 3.5q0-0.5-0.1-0.8-0.1-0.3-0.4-0.5-0.3-0.2-0.7-0.3-0.4-0.2-1.1-0.2h-2.3l-0.1 3.7h2q0.6 0 1 0 0.3-0.1 0.6-0.2 0.3-0.1 0.5-0.3 0.2-0.1 0.3-0.4 0.2-0.2 0.3-0.5 0-0.2 0-0.5z"/>
				<path id="&lt;Path&gt;" class="s41" d="m165 488q-2.4 0-4.6 0v1.2l-0.2 3.6-0.2 4-0.2 3.4h1.8 2.9q1.9 0 4.2 0 0-0.9 0.1-1.9h-1.3l-1.9 0.1q-1.6 0-2 0h-1l0.2-3.4q1.6 0 2.6 0 0.4 0 2.7 0 0.1-1.1 0.2-2-2.1 0.1-2.9 0.1-1.3 0-2.5 0l0.1-3.2q0.9 0 1.3 0 0.4 0 1.8 0 0.6 0 1.2 0 0.7 0 1 0h0.9l0.1-1.9h-2.6z"/>
				<path id="&lt;Path&gt;" class="s42" d="m181.3 488q0 0.7 0 1l-0.4 8.3q-1.1-1.9-2.8-4.7-1.8-2.8-2.8-4.6-1.1 0-1.6 0-0.7 0-1.8 0 0 1.9-0.1 4.2l-0.2 4.4q-0.1 2-0.2 3.6 1 0 1.3 0 0.4 0 1.2 0 0-2.2 0.1-3.8 0.2-3.9 0.2-5.3 0.6 1 1.5 2.4 1.2 1.9 2 3.1 1.2 1.8 1.5 2.4 0.3 0.4 0.7 1.2 1.2 0 1.7 0 0.7 0 1.6 0l0.1-3.3 0.3-5.6 0.2-3.3q-1.1 0-1.3 0-0.4 0-1.2 0z"/>
				<path id="&lt;Path&gt;" class="s43" d="m195.1 488q-0.7 0-1.6 0-0.2 0.5-0.3 0.7l-2.7 4.3q-0.6-1.2-1.3-2.6-0.8-1.5-1.2-2.4-0.9 0-1.4 0-0.6 0-1.6 0l4 7.1q0 0.9-0.1 2.5-0.1 1.6-0.2 2.6 0.9 0 1.4 0 0.4 0 1.3 0 0.1-1.7 0.1-2.7l0.1-2.2 4.9-7.3q-1.1 0-1.4 0z"/>
				<path id="&lt;Compound Path&gt;" fill-rule="evenodd" class="s44" d="m209.4 499.2l0.4 1h-1.3q-0.5 0-1.6 0-0.2-0.8-0.7-2.1-0.4-1.4-0.8-2.2h-4.7q-1 2.1-2 4.3h-1.5q-0.4 0-1.5 0 0.9-1.6 2.2-4.1l2.3-4.5q1.1-2.1 1.8-3.6 1.2 0 1.7 0 0.8 0 1.7 0l1.2 3.7zm-4.4-5.3l-1.4-4.1-0.8 1.5-1.3 2.6z"/>
				<path id="&lt;Path&gt;" class="s45" d="m220.8 488v0.9q0 0.4 0 1.6l-0.1 2.5h-6.1v-1l0.3-4q-1.1 0-1.4 0-0.4 0-1.5 0v1q0 0.9 0 3.1-0.1 2.3-0.3 4.9l-0.2 3.2q1.1 0 1.4 0h1.4l0.1-2 0.1-3.3h6.1q-0.1 2.8-0.3 5.3 1.2 0 1.5 0h1.4q0-0.3 0-1.6v-2.1l0.2-3.6 0.3-4.9q-1.2 0-1.4 0z"/>
				<path id="&lt;Compound Path&gt;" fill-rule="evenodd" class="s46" d="m243.2 499.2l0.4 1h-1.4q-0.4 0-1.5 0-0.3-0.8-0.7-2.1-0.5-1.4-0.8-2.2h-4.7q-1.1 2.1-2.1 4.3h-1.4q-0.4 0-1.6 0 1-1.6 2.2-4.1l2.4-4.5q1.1-2.1 1.8-3.6 1.2 0 1.7 0 0.8 0 1.6 0l1.3 3.7zm-4.5-5.3l-1.4-4.1-0.7 1.5-1.3 2.6z"/>
				<path id="&lt;Path&gt;" class="s47" d="m249.7 498.3h-1.6q0.1-1.5 0.1-3l0.2-3.6q0.1-2.1 0.2-3.7-0.9 0-1.3 0-0.6 0-1.5 0 0 2.9-0.2 6.2-0.2 3.3-0.4 6h1.7 2.8q1.7 0 4 0 0.1-1 0.1-1.9-0.6 0-1.3 0-0.7 0-2.8 0z"/>
				<path id="&lt;Path&gt;" class="s48" d="m259.1 494.6q-1.3 0-2.3 0-1 0-2.3 0 0 0.9-0.1 1.8 1.3-0.1 2.3-0.1 1 0 2.3 0.1 0-1.1 0.1-1.8z"/>
				<path id="&lt;Compound Path&gt;" fill-rule="evenodd" class="s49" d="m272.7 499.2l0.4 1h-1.4q-0.4 0-1.5 0-0.2-0.8-0.7-2.1-0.5-1.4-0.8-2.2h-4.7q-1 2.1-2 4.3h-1.5q-0.4 0-1.5 0 0.9-1.6 2.1-4.1l2.4-4.5q1.1-2.1 1.8-3.6 1.2 0 1.7 0 0.8 0 1.6 0l1.3 3.7zm-4.5-5.3l-1.4-4.1-0.7 1.5-1.3 2.6z"/>
				<path id="&lt;Path&gt;" class="s50" d="m281.9 496q-0.1-0.3-0.3-0.6-0.3-0.3-0.6-0.6-0.3-0.4-0.7-0.7l-1.1-1q-0.3-0.2-0.7-0.5-0.4-0.4-0.6-0.6-0.2-0.2-0.3-0.4 0-0.1-0.1-0.3 0-0.1 0-0.3 0-0.5 0.5-0.9 0.6-0.4 1.5-0.4 1.1 0 2.5 0.5-0.1-1.2-0.1-2.1-1.6-0.3-2.9-0.3-1.4 0-2.4 0.4-0.9 0.4-1.4 1.2-0.5 0.7-0.5 1.5 0 0.5 0.2 0.9 0.1 0.4 0.4 0.8 0.3 0.4 0.8 0.9 0.2 0.3 0.9 0.8 1.3 1.1 1.8 1.6 0.4 0.4 0.6 0.7 0.1 0.3 0.1 0.6 0 0.3-0.3 0.7-0.2 0.3-0.7 0.5-0.5 0.1-1.1 0.1-1.4 0-3.1-0.8 0.1 0.9 0.1 2.3 1.3 0.2 2 0.3 0.8 0.1 1.4 0.1 0.8 0 1.6-0.1 0.8-0.2 1.5-0.6 0.6-0.5 1-1.1 0.3-0.7 0.3-1.4 0-0.4-0.1-0.7 0-0.2-0.2-0.5z"/>
				<path id="&lt;Compound Path&gt;" fill-rule="evenodd" class="s51" d="m296.7 499.2l0.3 1h-1.3q-0.5 0-1.6 0-0.2-0.8-0.6-2.1-0.5-1.4-0.8-2.2h-4.7q-1.1 2.1-2.1 4.3h-1.4q-0.4 0-1.6 0 0.9-1.6 2.2-4.1l2.4-4.5q1.1-2.1 1.8-3.6 1.1 0 1.6 0 0.9 0 1.7 0l1.3 3.7zm-4.5-5.3l-1.4-4.1-0.7 1.5-1.3 2.6z"/>
				<path id="&lt;Path&gt;" class="s52" d="m305.9 496q-0.1-0.3-0.4-0.6-0.2-0.3-0.5-0.6-0.4-0.4-0.8-0.7l-1.1-1q-0.3-0.2-0.6-0.5-0.4-0.4-0.6-0.6-0.2-0.2-0.3-0.4-0.1-0.1-0.1-0.3-0.1-0.1-0.1-0.3 0-0.5 0.6-0.9 0.6-0.4 1.4-0.4 1.2 0 2.6 0.5-0.1-1.2-0.2-2.1-1.6-0.3-2.9-0.3-1.4 0-2.3 0.4-1 0.4-1.4 1.2-0.5 0.7-0.5 1.5 0 0.5 0.1 0.9 0.2 0.4 0.4 0.8 0.3 0.4 0.9 0.9 0.2 0.3 0.8 0.8 1.3 1.1 1.9 1.6 0.4 0.4 0.5 0.7 0.1 0.3 0.1 0.6 0 0.3-0.2 0.7-0.2 0.3-0.7 0.5-0.5 0.1-1.1 0.1-1.4 0-3.2-0.8 0.1 0.9 0.2 2.3 1.2 0.2 2 0.3 0.8 0.1 1.3 0.1 0.9 0 1.7-0.1 0.8-0.2 1.4-0.6 0.7-0.5 1-1.1 0.4-0.7 0.4-1.4 0-0.4-0.1-0.7-0.1-0.2-0.2-0.5z"/>
				<path id="&lt;Path&gt;" class="s53" d="m313.7 488q-2.4 0-4.6 0v1.2l-0.2 3.6-0.2 4-0.2 3.4h1.8 2.9q1.9 0 4.2 0 0-0.9 0.1-1.9h-1.3l-1.9 0.1q-1.6 0-2 0h-1l0.2-3.4q1.6 0 2.6 0 0.4 0 2.7 0 0.1-1.1 0.2-2-2.1 0.1-2.9 0.1-1.3 0-2.5 0l0.1-3.2q0.9 0 1.3 0 0.4 0 1.8 0 0.6 0 1.2 0 0.7 0 1 0h0.9l0.1-1.9h-2.6z"/>
				<path id="&lt;Path&gt;" class="s54" d="m327.4 488q-0.2 0.5-0.3 0.7l-2.7 4.3q-0.6-1.2-1.3-2.6-0.8-1.5-1.2-2.4-0.9 0-1.4 0-0.6 0-1.6 0l4 7.1q0 0.9-0.1 2.5-0.1 1.6-0.2 2.6 0.9 0 1.4 0 0.4 0 1.4 0 0-1.7 0-2.7l0.1-2.2 4.9-7.3q-1.1 0-1.4 0-0.7 0-1.6 0z"/>
				<path id="&lt;Path&gt;" class="s55" d="m340.6 488v0.9q0 0.4-0.1 1.6l-0.1 2.5h-6.1v-1l0.3-4q-1 0-1.4 0-0.4 0-1.5 0v1q0 0.9 0 3.1-0.1 2.3-0.3 4.9l-0.2 3.2q1.1 0 1.4 0h1.5v-2l0.1-3.3h6.1q0 2.8-0.3 5.3 1.3 0 1.5 0h1.4q0-0.3 0-1.6l0.1-2.1 0.1-3.6 0.3-4.9q-1.2 0-1.4 0z"/>
				<path id="&lt;Path&gt;" class="s56" d="m354.6 491q0.7-0.7 1.6-1 0.9-0.3 1.8-0.3 0.6 0 1.3 0.1 0.7 0.1 1.7 0.4l-0.1-1q0-0.3 0-1.1-1.8-0.3-3.2-0.3-1.5 0-2.8 0.4-1.4 0.4-2.4 1.3-1 0.9-1.5 2.1-0.5 1.3-0.5 2.8 0 1.4 0.4 2.5 0.5 1.2 1.4 2 1 0.8 2.2 1.2 1.3 0.3 2.6 0.3 0.6 0 1.5 0 0.8-0.1 1.8-0.3 0.2-1.1 0.4-2.1-1.9 0.5-3.3 0.5-1.4 0-2.4-0.6-1-0.5-1.4-1.5-0.5-0.9-0.5-2 0-1 0.4-1.9 0.3-0.9 1-1.5z"/>
				<path id="&lt;Compound Path&gt;" fill-rule="evenodd" class="s57" d="m376.2 491.3q0.4 1.1 0.4 2.5 0 1.4-0.4 2.7-0.5 1.2-1.4 2.1-1 1-2.4 1.4-1.3 0.4-2.8 0.4-1.5 0-2.8-0.4-1.3-0.4-2.3-1.2-0.9-0.9-1.3-2-0.4-1.1-0.4-2.4 0-1.4 0.5-2.7 0.5-1.3 1.5-2.2 1-0.8 2.3-1.3 1.4-0.4 2.9-0.4 1.3 0 2.6 0.4 1.2 0.3 2.1 1.1 1 0.9 1.5 2zm-2.3 2.6q0-0.8-0.2-1.7-0.3-0.8-0.9-1.4-0.5-0.5-1.3-0.8-0.8-0.3-1.6-0.3-1.4 0-2.4 0.6-1 0.6-1.5 1.7-0.5 1.1-0.5 2.3 0 1.2 0.5 2.2 0.5 1 1.5 1.5 1 0.5 2.2 0.5 0.8 0 1.6-0.3 0.9-0.3 1.4-0.9 0.6-0.7 0.9-1.5 0.3-0.9 0.3-1.9z"/>
				<path id="&lt;Path&gt;" class="s58" d="m388.6 488q0 0.7 0 1l-0.3 8.3q-1.1-1.9-2.9-4.7-1.8-2.8-2.8-4.6-1 0-1.5 0-0.8 0-1.8 0 0 1.9-0.1 4.2l-0.2 4.4q-0.1 2-0.3 3.6 1.1 0 1.3 0 0.4 0 1.3 0 0-2.2 0.1-3.8 0.1-3.9 0.2-5.3 0.6 1 1.5 2.4 1.2 1.9 1.9 3.1 1.2 1.8 1.6 2.4 0.2 0.4 0.7 1.2 1.2 0 1.7 0 0.6 0 1.6 0l0.1-3.3 0.2-5.6 0.3-3.3q-1.1 0-1.3 0-0.4 0-1.3 0z"/>
				<path id="&lt;Path&gt;" class="s59" d="m398.3 488q-2.8 0-5.4 0 0 0.7-0.1 2l2.1-0.1h0.5 0.6 0.6l-0.1 3.8-0.2 3.9-0.2 2.6q1.3 0 1.5 0h1.4q0-0.7 0-1.3v-1.1l0.2-6.3 0.1-1.6h0.7q1.5 0 3.1 0.1 0-0.7 0.1-2h-1.7z"/>
				<path id="&lt;Path&gt;" class="s60" d="m413.2 488.6q-0.6-0.4-1.5-0.5-0.8-0.1-1.8-0.1-0.8 0-1.6 0-0.7 0-1.5 0-0.7 0-1.8 0 0 2.6-0.1 6.1-0.2 3.4-0.4 6.1 1 0 1.3 0h1.4l0.2-6.7 0.1-3.7q0.7 0 1.2 0 0.4 0 0.7 0 0.5 0 1 0.1 0.5 0 0.8 0.3 0.3 0.2 0.5 0.5 0.1 0.3 0.1 0.7 0 0.6-0.3 1.1-0.3 0.6-1 0.8-0.6 0.3-1.4 0.3-0.5 0-1.1-0.1 0.3 0.6 0.5 0.9l1.1 2.1q0.3 0.8 0.6 1.3l1 2.4q1.1 0 1.5 0 0.3 0 1.4 0-0.3-0.7-0.4-0.8l-0.9-1.6q-0.8-1.4-1.1-2l-0.6-1.2q0.6-0.2 1-0.3 0.4-0.1 0.7-0.3 0.3-0.2 0.7-0.5 0.3-0.3 0.5-0.7 0.2-0.4 0.3-0.8 0.2-0.5 0.2-1 0-0.8-0.4-1.4-0.3-0.6-0.9-1z"/>
				<path id="&lt;Compound Path&gt;" fill-rule="evenodd" class="s61" d="m428.5 499.2l0.4 1h-1.3q-0.5 0-1.6 0-0.2-0.8-0.7-2.1-0.4-1.4-0.8-2.2h-4.7q-1 2.1-2 4.3h-1.5q-0.4 0-1.5 0 0.9-1.6 2.2-4.1l2.3-4.5q1.1-2.1 1.9-3.6 1.1 0 1.6 0 0.9 0 1.7 0l1.2 3.7zm-4.4-5.3l-1.4-4.1-0.7 1.5-1.3 2.6z"/>
				<path id="&lt;Path&gt;" class="s62" d="m434.4 491q0.7-0.7 1.6-1 0.9-0.3 1.8-0.3 0.6 0 1.3 0.1 0.7 0.1 1.7 0.4l-0.1-1q0-0.3 0-1.1-1.7-0.3-3.2-0.3-1.5 0-2.8 0.4-1.4 0.4-2.4 1.3-0.9 0.9-1.5 2.1-0.5 1.3-0.5 2.8 0 1.4 0.4 2.5 0.5 1.2 1.5 2 0.9 0.8 2.2 1.2 1.2 0.3 2.5 0.3 0.6 0 1.5 0 0.8-0.1 1.9-0.3 0.1-1.1 0.3-2.1-1.9 0.5-3.2 0.5-1.5 0-2.5-0.6-1-0.5-1.4-1.5-0.5-0.9-0.5-2 0-1 0.4-1.9 0.4-0.9 1-1.5z"/>
				<path id="&lt;Path&gt;" class="s63" d="m447.6 488q-2.8 0-5.4 0 0 0.7 0 2l2-0.1h0.6 0.6 0.6l-0.1 3.8-0.2 3.9-0.2 2.6q1.2 0 1.4 0h1.4q0-0.7 0-1.3v-1.1l0.3-6.3 0.1-1.6h0.7q1.5 0 3.1 0.1 0-0.7 0.1-2h-1.7z"/>
				<path id="&lt;Path&gt;" class="s64" d="m454.3 488v1q0 1.7-0.1 4.9-0.2 3.2-0.4 6.3 1.3 0 1.6 0h1.3q0.1-7.5 0.5-12.2-1.3 0-1.4 0z"/>
				<path id="&lt;Path&gt;" class="s65" d="m469.5 488q0 0.7 0 1l-0.4 8.3q-1-1.9-2.8-4.7-1.8-2.8-2.8-4.6-1 0-1.6 0-0.7 0-1.7 0 0 1.9-0.2 4.2l-0.2 4.4q0 2-0.2 3.6 1 0 1.3 0 0.4 0 1.2 0 0.1-2.2 0.1-3.8 0.2-3.9 0.2-5.3 0.7 1 1.5 2.4 1.2 1.9 2 3.1 1.2 1.8 1.6 2.4 0.2 0.4 0.6 1.2 1.2 0 1.7 0 0.7 0 1.6 0l0.1-3.3 0.3-5.6 0.2-3.3q-1.1 0-1.2 0-0.5 0-1.3 0z"/>
				<path id="&lt;Path&gt;" class="s66" d="m481.4 493.2q0 0.7-0.1 1.9 1-0.1 1.6-0.1l0.7 0.1-0.2 3.1q-0.7 0.2-1.3 0.3-0.7 0.1-1.1 0.1-1.3 0-2.3-0.5-1-0.5-1.5-1.4-0.4-0.9-0.4-2.1 0-1 0.4-2 0.4-1 1.1-1.6 0.7-0.7 1.7-1 0.9-0.3 2-0.3 1.7 0 3.9 0.7-0.1-1.1-0.1-2.1-2.3-0.5-4-0.5-1.3 0-2.4 0.2-1.2 0.2-2.2 0.8-1 0.6-1.7 1.5-0.7 0.9-1 2-0.4 1.1-0.4 2.2 0 1.4 0.5 2.6 0.5 1.2 1.4 1.9 0.9 0.8 2.3 1.1 1.3 0.3 2.9 0.3 0.8 0 2-0.1 1.2-0.1 2.7-0.4 0.1-3.7 0.3-6.7-0.9 0.1-2.4 0.1-1.1 0-2.4-0.1z"/>
				<path id="&lt;Path&gt;" class="s67" d="m497.5 491q0.7-0.7 1.6-1 0.9-0.3 1.8-0.3 0.6 0 1.3 0.1 0.7 0.1 1.7 0.4l-0.1-1q0-0.3 0-1.1-1.7-0.3-3.2-0.3-1.5 0-2.8 0.4-1.4 0.4-2.4 1.3-0.9 0.9-1.5 2.1-0.5 1.3-0.5 2.8 0 1.4 0.4 2.5 0.5 1.2 1.5 2 0.9 0.8 2.2 1.2 1.2 0.3 2.5 0.3 0.6 0 1.5 0 0.8-0.1 1.9-0.3 0.1-1.1 0.3-2.1-1.9 0.5-3.2 0.5-1.5 0-2.5-0.6-1-0.5-1.4-1.5-0.5-0.9-0.5-2 0-1 0.4-1.9 0.4-0.9 1-1.5z"/>
				<path id="&lt;Compound Path&gt;" fill-rule="evenodd" class="s68" d="m519.1 491.3q0.5 1.1 0.5 2.5 0 1.4-0.5 2.7-0.4 1.2-1.4 2.1-1 1-2.3 1.4-1.4 0.4-2.9 0.4-1.5 0-2.8-0.4-1.3-0.4-2.2-1.2-1-0.9-1.4-2-0.4-1.1-0.4-2.4 0-1.4 0.5-2.7 0.5-1.3 1.5-2.2 1-0.8 2.3-1.3 1.4-0.4 2.9-0.4 1.4 0 2.6 0.4 1.2 0.3 2.2 1.1 0.9 0.9 1.4 2zm-2.3 2.6q0-0.8-0.2-1.7-0.3-0.8-0.8-1.4-0.6-0.5-1.4-0.8-0.8-0.3-1.6-0.3-1.4 0-2.4 0.6-1 0.6-1.5 1.7-0.5 1.1-0.5 2.3 0 1.2 0.5 2.2 0.5 1 1.5 1.5 1 0.5 2.2 0.5 0.9 0 1.7-0.3 0.8-0.3 1.4-0.9 0.5-0.7 0.8-1.5 0.3-0.9 0.3-1.9z"/>
				<path id="&lt;Path&gt;" class="s69" d="m531 498.3h-1.5q0-1.5 0.1-3l0.2-3.6q0.1-2.1 0.2-3.7-0.9 0-1.3 0-0.6 0-1.5 0-0.1 2.9-0.2 6.2-0.2 3.3-0.4 6h1.6 2.9q1.6 0 4 0 0-1 0.1-1.9-0.6 0-1.3 0-0.7 0-2.9 0z"/>
				<path id="&lt;Path&gt;" class="s70" d="m536.8 497.8q0 1.8-0.1 2.4 1.3 0 1.4 0h1.1l0.1-1.1q0-0.6 0.1-1.3-1 0-1.2 0z"/>
				<path id="&lt;Path&gt;" class="s71" d="m546.4 498.3h-1.6q0.1-1.5 0.2-3l0.1-3.6q0.1-2.1 0.3-3.7-0.9 0-1.4 0-0.6 0-1.5 0 0 2.9-0.2 6.2-0.1 3.3-0.4 6h1.7 2.8q1.7 0 4 0 0.1-1 0.2-1.9-0.7 0-1.4 0-0.6 0-2.8 0z"/>
				<path id="&lt;Path&gt;" class="s72" d="m552.2 497.8q-0.1 1.8-0.1 2.4 1.3 0 1.3 0h1.2v-1.1q0.1-0.6 0.1-1.3-1 0-1.2 0z"/>
				<path id="&lt;Path&gt;" class="s73" d="m561.6 497.9q-0.9-0.5-1.4-1.5-0.4-0.9-0.4-2 0-1 0.3-1.9 0.4-0.9 1.1-1.5 0.6-0.7 1.5-1 0.9-0.3 1.9-0.3 0.6 0 1.2 0.1 0.7 0.1 1.7 0.4v-1q-0.1-0.3-0.1-1.1-1.7-0.3-3.2-0.3-1.4 0-2.8 0.4-1.3 0.4-2.3 1.3-1 0.9-1.5 2.1-0.6 1.3-0.6 2.8 0 1.4 0.5 2.5 0.4 1.2 1.4 2 1 0.8 2.2 1.2 1.2 0.3 2.5 0.3 0.7 0 1.5 0 0.9-0.1 1.9-0.3 0.1-1.1 0.3-2.1-1.9 0.5-3.2 0.5-1.5 0-2.5-0.6z"/>
			</g>
			<g id="&lt;Group&gt;">
				<path id="&lt;Path&gt;" class="s74" d="m340 20.1c-68.3 123.6-136 246.1-203.6 368.5q0.4 0.3 0.9 0.7c82.6-53.5 165.1-107.1 247.9-160.7-3.6-6.7-6.8-12.9-10.2-19.3-35.1 17-69.5 33.6-103.9 50.3q-0.5-0.5-0.9-1c22.9-41.7 45.8-83.4 69.3-126.1 33.4 62.2 66.5 123.5 100.2 186.1-3.2-0.7-4.7-1-6.2-1.4-29.6-8-59.3-16-88.8-24.2-5.8-1.7-10.4-1.4-15.8 2-51.6 33.1-103.4 65.8-155.1 98.6q-26.6 16.9-53.2 33.8 0.2 0.4 0.4 0.7c1.6-0.5 3.3-0.9 4.9-1.5 67.7-24.5 135.5-49.1 203.3-73.5 3.1-1.1 7.2-1.2 10.2-0.2 70.7 24 141.4 48.3 212 72.5 3.4 1.2 6.8 2.2 11.5 3.7-74.6-136.9-148.5-272.5-222.9-409z"/>
				<path id="&lt;Path&gt;" class="s75" d="m523.2 139.2q-0.5-0.7-0.9-1.3c-29.7 14.3-59.3 28.7-89.4 43.3 2.5 4.2 4.7 8 7.1 11.9 28-18.2 55.6-36.1 83.2-53.9z"/>
			</g>
		</g>
		<g id="&lt;Group&gt;">
			<g id="&lt;Group&gt;">
				<path id="&lt;Compound Path&gt;" fill-rule="evenodd" class="s0" d="m126.1 1063.7h3.9v10.7q0.2 7.1-6.7 7.1-0.3 7.7-7 7.4v-3.5q2.9-0.2 3-4.1v-12.2q0.6-5.3 6.8-5.4zm-0.3 3.7h-0.9q-1.3 0-1.4 1.4v9h0.9q1.5 0 1.4-1.5z"/>
				<path id="&lt;Path&gt;" class="s0" d="m137 1073.8q-1.1 0-1.7 0.7-0.7 0.7-0.7 1.7 0 1 0.7 1.7 0.6 0.7 1.7 0.7 1 0 1.7-0.7 0.7-0.7 0.7-1.7 0-1-0.7-1.7-0.7-0.7-1.7-0.7z"/>
				<path id="&lt;Compound Path&gt;" fill-rule="evenodd" class="s0" d="m152.9 1063.7h3.9v10.7q0.2 7.1-6.7 7.1-0.3 7.7-7 7.4v-3.5q2.9-0.2 3-4.1v-12.2q0.6-5.3 6.8-5.4zm-0.3 3.7h-0.9q-1.3 0-1.4 1.4v9h0.9q1.4 0 1.4-1.5z"/>
				<path id="&lt;Path&gt;" class="s0" d="m163.8 1073.8q-1.1 0-1.7 0.7-0.7 0.7-0.7 1.7 0 1 0.7 1.7 0.6 0.7 1.7 0.7 1 0 1.7-0.7 0.7-0.7 0.7-1.7 0-1-0.7-1.7-0.7-0.7-1.7-0.7z"/>
				<path id="&lt;Path&gt;" class="s0" d="m176.6 1057.2h-3.8v3.8h3.8z"/>
				<path id="&lt;Path&gt;" class="s0" d="m178.9 1064.5q-2.8-1.4-5.9-1.2v3.7q7.1 0.2 7.3 6.9v0.8h-10v3.4h13.9v-3.4q0.1-2.6-1-5.5-1.2-2.9-4.3-4.7z"/>
				<path id="&lt;Path&gt;" class="s0" d="m208.8 1057.2h-3.8v3.8h3.8z"/>
				<path id="&lt;Path&gt;" class="s0" d="m213.4 1074.7h-16.5q-3-0.7-3-4.7v-6.3h-4v8.4q0.6 6.5 8.3 6h19.4v-14.4h-4.2z"/>
				<path id="&lt;Path&gt;" class="s0" d="m203.4 1057.2h-3.8v3.8h3.8z"/>
				<path id="&lt;Path&gt;" class="s0" d="m232.3 1074.7h-4.1v-18.2h-4.2v18.2h-4.3v3.4h16.8v-3.4-18.2h-4.2z"/>
				<path id="&lt;Compound Path&gt;" fill-rule="evenodd" class="s0" d="m248.6 1063.7h1.5v14.4q0 2.3-1 3.7-1.6 1.8-4.7 1.7h-5.3v-3.7h5.8q1.6-0.1 1.2-1.7-4.4 0.2-6.5-2.8-2-3-0.6-7.3 1.3-4.2 9.6-4.3zm-2.5 3.5q-4.6 0.2-3.9 4.8 1 3 3.9 2.7z"/>
				<path id="&lt;Path&gt;" class="s0" d="m271.1 1057.2h-3.8v3.8h3.8z"/>
				<path id="&lt;Path&gt;" class="s0" d="m266.1 1057.2h-3.8v3.8h3.8z"/>
				<path id="&lt;Compound Path&gt;" fill-rule="evenodd" class="s0" d="m298.4 1056.5h4.2v21.6h-17.3q-1.4 3.6-6.7 3.4h-3.5v-3.4h-23v-21.6h4.2v18.2h6q-3.2-3-2-7.1 1.6-3.9 6.9-3.9h5.5v11h2.4v-4.8q0.2-6 6.8-6.2h4c0 0.1 0 10.9 0 11h3.7v-18.2h4.2v18.2h4.6zm-29.8 11h-0.5q-3.7-0.3-3.9 2.2 0.8 3.3 4.4 4.9zm13-0.2h-0.9q-1.2 0.1-1.4 1.5v9h1q1.4 0 1.3-1.5z"/>
				<path id="&lt;Path&gt;" class="s0" d="m317 1057.2h-3.8v3.8h3.8z"/>
				<path id="&lt;Path&gt;" class="s0" d="m322.4 1057.2h-3.8v3.8h3.8z"/>
				<path id="&lt;Path&gt;" class="s0" d="m330.5 1083.7h3.8v-3.7h-3.8z"/>
				<path id="&lt;Path&gt;" class="s0" d="m325.1 1083.7h3.8v-3.7h-3.8z"/>
				<path id="&lt;Path&gt;" class="s0" d="m358.5 1074.7h-4.4v-8.3h-4.4v8.3h-4.4v-5.6h-4.4v5.6h-4.6-0.6-1.3v-11h-4.2v11h-4.7-0.6-1.6v-11.1q-3.5 0-6 1.1-2.5 1.1-4.1 2.8-4.1 4.6-4.3 10.6h3.9l0.5-2.3q1.8-5.4 5.8-7.5v9.8h5.8 0.6 10.2 0.6 26.6v-3.4-11h-4.4z"/>
				<path id="&lt;Path&gt;" class="s0" d="m393.5 1074.7h-4.5v-8.3h-4.4v8.3h-4.4v-5.6h-4.4v5.6h-4.6-0.5-1.8v-18.2h-4.2v18.2 3.4h6 0.5 26.6v-3.4-11h-4.3z"/>
				<path id="&lt;Path&gt;" class="s0" d="m412.4 1074.7h-4.1v-18.2h-4.2v18.2h-4.3v3.4h16.8v-3.4-18.2h-4.2z"/>
				<path id="&lt;Path&gt;" class="s0" d="m418.6 1078.1h4.2v-21.6h-4.2z"/>
				<path id="&lt;Path&gt;" class="s0" d="m442.5 1057.2h-3.8v3.8h3.8z"/>
				<path id="&lt;Path&gt;" class="s0" d="m437.1 1057.2h-3.8v3.8h3.8z"/>
				<path id="&lt;Path&gt;" class="s0" d="m445.2 1083.7h3.8v-3.7h-3.8z"/>
				<path id="&lt;Path&gt;" class="s0" d="m450.6 1083.7h3.8v-3.7h-3.8z"/>
				<path id="&lt;Path&gt;" class="s0" d="m462.6 1057.2h-3.7v3.8h3.7z"/>
				<path id="&lt;Path&gt;" class="s0" d="m467.6 1083.7h3.8v-3.7h-3.8z"/>
				<path id="&lt;Path&gt;" class="s0" d="m476.3 1074.7h-1.7-0.6-2v-11h-4.2v11h-2.4-0.6-1.8v-11h-4.2v11h-2.4-0.6-1.3v-11h-4.2v11h-4.7-0.6-1.6v-11.1q-3.5 0-6 1.1-2.5 1.1-4.1 2.8-4.1 4.6-4.3 10.6h3.9l0.5-2.3q1.8-5.4 5.8-7.5v9.8h5.8 0.6 10.2 0.6 8.4 0.6 8.6 0.6 5.9v-3.4-18.2h-4.2z"/>
				<path id="&lt;Path&gt;" class="s0" d="m482.7 1078.1h4.2v-21.6h-4.2z"/>
				<path id="&lt;Path&gt;" class="s0" d="m501.2 1057.2h-3.7v3.8h3.7z"/>
				<path id="&lt;Path&gt;" class="s0" d="m506.6 1057.2h-3.8v3.8h3.8z"/>
				<path id="&lt;Path&gt;" class="s0" d="m521.9 1065.5h-6l10.8-9h-5.8l-10.1 8.1v4.9h11.1q3.2 0.1 2.2 5.2h-14.4-0.6-1.5v-11.1q-3.6 0-6.1 1.1-2.4 1.1-4 2.8-4.2 4.6-4.4 10.6h4l0.5-2.3q1.7-5.4 5.8-7.5v9.8h5.7 0.6 18.8v-6.7q-0.3-5.6-6.6-5.9z"/>
				<path id="&lt;Path&gt;" class="s0" d="m560.7 1063.7v11h-4.4v-8.3h-4.4v8.3h-4.4v-5.6h-4.4v5.6h-4.5-0.7-1.1v-11h-4v12q0 4.1-3 4.1v3.7q5.8 0.2 6.8-5.4h1.3 0.7 26.5v-3.4-11z"/>
				<path id="&lt;Path&gt;" class="s0" d="m555 1061h3.8v-3.8h-3.8z"/>
				<path id="&lt;Path&gt;" class="s0" d="m555.9 1052.8h-3.6v3.6h3.6z"/>
				<path id="&lt;Path&gt;" class="s0" d="m553.4 1057.2h-3.8v3.8h3.8z"/>
			</g>
			<g id="&lt;Group&gt;">
				<path id="&lt;Compound Path&gt;" fill-rule="evenodd" class="s0" d="m130 1108.3l0.4 1h-1.3q-0.5 0-1.6 0-0.2-0.8-0.7-2.2-0.4-1.3-0.7-2.2h-4.8q-1 2.2-2 4.4h-1.5q-0.4 0-1.5 0 0.9-1.7 2.2-4.1l2.3-4.5q1.1-2.1 1.9-3.6 1.1 0 1.6 0 0.9 0 1.7 0l1.3 3.6zm-4.5-5.2l-1.4-4.1-0.7 1.5-1.3 2.6z"/>
				<path id="&lt;Path&gt;" class="s0" d="m136.5 1107.4h-1.5q0-1.5 0.1-3.1l0.2-3.6q0.1-2 0.2-3.6-0.9 0-1.3 0-0.6 0-1.6 0 0 2.9-0.1 6.2-0.2 3.3-0.5 6h1.7 2.8q1.7 0 4.1 0 0-1.1 0.1-2-0.7 0.1-1.3 0.1-0.7 0-2.9 0z"/>
				<path id="&lt;Path&gt;" class="s0" d="m141.3 1103.6q0 1-0.1 1.8 1.3 0 2.3 0 1.1 0 2.4 0 0-1 0.1-1.8-1.3 0.1-2.4 0.1-1 0-2.3-0.1z"/>
				<path id="&lt;Compound Path&gt;" fill-rule="evenodd" class="s0" d="m157.4 1105.1q0.1 0.4 0.1 0.8 0 0.8-0.3 1.6-0.4 0.7-1.1 1.1-0.6 0.4-1.4 0.5-0.8 0.2-3.5 0.2h-2.1-1.6q0.1-1.9 0.2-3.1 0-1.2 0.1-4.2 0.1-2.9 0.1-4 0-0.3 0-0.9 1.2 0 1.9 0 0.8 0 1.9 0 1.1-0.1 1.8-0.1 1 0 1.5 0.1 0.5 0.1 0.9 0.3 0.4 0.1 0.6 0.4 0.3 0.2 0.5 0.6 0.2 0.3 0.3 0.7 0.1 0.4 0.1 0.8 0 0.5-0.1 0.9-0.2 0.5-0.4 0.8-0.2 0.4-0.5 0.7-0.3 0.2-0.6 0.4-0.3 0.1-0.7 0.3 0.4 0.1 0.6 0.1 0.3 0.1 0.6 0.3 0.2 0.2 0.5 0.5 0.3 0.2 0.4 0.5 0.2 0.3 0.2 0.7zm-7-3h1.4q0.9 0 1.3 0 0.3-0.1 0.6-0.2 0.4-0.1 0.6-0.4 0.2-0.3 0.4-0.6 0.1-0.3 0.1-0.7 0-0.3-0.2-0.6-0.1-0.3-0.3-0.5-0.3-0.2-0.6-0.3-0.4 0-1.1 0h-2.1zm4.5 3.4q0-0.4-0.1-0.7-0.1-0.3-0.4-0.6-0.3-0.2-0.7-0.3-0.4-0.1-1.1-0.1h-2.3l-0.1 3.7h2q0.6 0 1-0.1 0.3 0 0.6-0.2 0.3-0.1 0.5-0.2 0.2-0.2 0.3-0.4 0.2-0.2 0.3-0.5 0-0.3 0-0.6z"/>
				<path id="&lt;Path&gt;" class="s0" d="m165 1097.1q-2.4 0-4.6 0v1.2l-0.2 3.6-0.2 3.9-0.2 3.5h1.8 2.9q1.9 0 4.2 0 0-0.9 0.1-2l-1.3 0.1h-1.9q-1.6 0-2 0h-1l0.2-3.3q1.6-0.1 2.6-0.1 0.4 0 2.7 0.1 0.1-1.2 0.2-2-2.1 0.1-2.9 0.1-1.3 0-2.5-0.1l0.1-3.1q0.9-0.1 1.3-0.1 0.4 0 1.8 0 0.6 0 1.2 0 0.7 0 1 0.1h0.9l0.1-1.9h-2.6z"/>
				<path id="&lt;Path&gt;" class="s0" d="m181.3 1097.1q0 0.7 0 1l-0.4 8.3q-1.1-1.9-2.8-4.7-1.8-2.9-2.8-4.6-1.1 0-1.6 0-0.7 0-1.8 0 0 1.8-0.1 4.2l-0.2 4.4q-0.1 2-0.2 3.6 1 0 1.3 0 0.4 0 1.2 0 0-2.2 0.1-3.8 0.2-3.9 0.2-5.4 0.6 1.1 1.5 2.4 1.2 1.9 2 3.2 1.2 1.8 1.5 2.4 0.3 0.4 0.7 1.2 1.2 0 1.7 0 0.7 0 1.6 0l0.1-3.3 0.3-5.7 0.2-3.2q-1.1 0-1.3 0-0.4 0-1.2 0z"/>
				<path id="&lt;Path&gt;" class="s0" d="m195.1 1097.1q-0.7 0-1.6 0-0.2 0.4-0.3 0.6l-2.7 4.3q-0.6-1.2-1.3-2.6-0.8-1.4-1.2-2.3-0.9 0-1.4 0-0.6 0-1.6 0l4 7q0 1-0.1 2.6-0.1 1.6-0.2 2.6 0.9 0 1.4 0 0.4 0 1.3 0 0.1-1.7 0.1-2.7l0.1-2.3 4.9-7.2q-1.1 0-1.4 0z"/>
				<path id="&lt;Compound Path&gt;" fill-rule="evenodd" class="s0" d="m209.4 1108.3l0.4 1h-1.3q-0.5 0-1.6 0-0.2-0.8-0.7-2.2-0.4-1.3-0.8-2.2h-4.7q-1 2.2-2 4.4h-1.5q-0.4 0-1.5 0 0.9-1.7 2.2-4.1l2.3-4.5q1.1-2.1 1.8-3.6 1.2 0 1.7 0 0.8 0 1.7 0l1.2 3.6zm-4.4-5.2l-1.4-4.1-0.8 1.5-1.3 2.6z"/>
				<path id="&lt;Path&gt;" class="s0" d="m220.8 1097.1v0.9q0 0.4 0 1.6l-0.1 2.4h-6.1v-0.9l0.3-4q-1.1 0-1.4 0-0.4 0-1.5 0v0.9q0 0.9 0 3.2-0.1 2.2-0.3 4.9l-0.2 3.2q1.1 0 1.4 0h1.4l0.1-2.1 0.1-3.2h6.1q-0.1 2.7-0.3 5.3 1.2 0 1.5 0h1.4q0-0.3 0-1.6v-2.1l0.2-3.7 0.3-4.8q-1.2 0-1.4 0z"/>
				<path id="&lt;Compound Path&gt;" fill-rule="evenodd" class="s0" d="m243.2 1108.3l0.4 1h-1.4q-0.4 0-1.5 0-0.3-0.8-0.7-2.2-0.5-1.3-0.8-2.2h-4.7q-1.1 2.2-2.1 4.4h-1.4q-0.4 0-1.6 0 1-1.7 2.2-4.1l2.4-4.5q1.1-2.1 1.8-3.6 1.2 0 1.7 0 0.8 0 1.6 0l1.3 3.6zm-4.5-5.2l-1.4-4.1-0.7 1.5-1.3 2.6z"/>
				<path id="&lt;Path&gt;" class="s0" d="m249.7 1107.4h-1.6q0.1-1.5 0.1-3.1l0.2-3.6q0.1-2 0.2-3.6-0.9 0-1.3 0-0.6 0-1.5 0 0 2.9-0.2 6.2-0.2 3.3-0.4 6h1.7 2.8q1.7 0 4 0 0.1-1.1 0.1-2-0.6 0.1-1.3 0.1-0.7 0-2.8 0z"/>
				<path id="&lt;Path&gt;" class="s0" d="m259.1 1103.6q-1.3 0.1-2.3 0.1-1 0-2.3-0.1 0 1-0.1 1.8 1.3 0 2.3 0 1 0 2.3 0 0-1 0.1-1.8z"/>
				<path id="&lt;Compound Path&gt;" fill-rule="evenodd" class="s0" d="m272.7 1108.3l0.4 1h-1.4q-0.4 0-1.5 0-0.2-0.8-0.7-2.2-0.5-1.3-0.8-2.2h-4.7q-1 2.2-2 4.4h-1.5q-0.4 0-1.5 0 0.9-1.7 2.1-4.1l2.4-4.5q1.1-2.1 1.8-3.6 1.2 0 1.7 0 0.8 0 1.6 0l1.3 3.6zm-4.5-5.2l-1.4-4.1-0.7 1.5-1.3 2.6z"/>
				<path id="&lt;Path&gt;" class="s0" d="m281.9 1105q-0.1-0.2-0.3-0.5-0.3-0.4-0.6-0.7-0.3-0.3-0.7-0.7l-1.1-1q-0.3-0.2-0.7-0.5-0.4-0.3-0.6-0.5-0.2-0.3-0.3-0.4 0-0.2-0.1-0.3 0-0.2 0-0.3 0-0.5 0.5-0.9 0.6-0.4 1.5-0.4 1.1 0 2.5 0.5-0.1-1.2-0.1-2.1-1.6-0.4-2.9-0.4-1.4 0-2.4 0.5-0.9 0.4-1.4 1.1-0.5 0.8-0.5 1.6 0 0.5 0.2 0.9 0.1 0.4 0.4 0.8 0.3 0.4 0.8 0.9 0.2 0.2 0.9 0.8 1.3 1.1 1.8 1.6 0.4 0.3 0.6 0.7 0.1 0.2 0.1 0.5 0 0.4-0.3 0.7-0.2 0.3-0.7 0.5-0.5 0.2-1.1 0.2-1.4 0-3.1-0.8 0.1 0.9 0.1 2.2 1.3 0.3 2 0.4 0.8 0.1 1.4 0.1 0.8 0 1.6-0.2 0.8-0.1 1.5-0.6 0.6-0.4 1-1.1 0.3-0.6 0.3-1.4 0-0.3-0.1-0.6 0-0.3-0.2-0.6z"/>
				<path id="&lt;Compound Path&gt;" fill-rule="evenodd" class="s0" d="m296.7 1108.3l0.3 1h-1.3q-0.5 0-1.6 0-0.2-0.8-0.6-2.2-0.5-1.3-0.8-2.2h-4.7q-1.1 2.2-2.1 4.4h-1.4q-0.4 0-1.6 0 0.9-1.7 2.2-4.1l2.4-4.5q1.1-2.1 1.8-3.6 1.1 0 1.6 0 0.9 0 1.7 0l1.3 3.6zm-4.5-5.2l-1.4-4.1-0.7 1.5-1.3 2.6z"/>
				<path id="&lt;Path&gt;" class="s0" d="m305.9 1105q-0.1-0.2-0.4-0.5-0.2-0.4-0.5-0.7-0.4-0.3-0.8-0.7l-1.1-1q-0.3-0.2-0.6-0.5-0.4-0.3-0.6-0.5-0.2-0.3-0.3-0.4-0.1-0.2-0.1-0.3-0.1-0.2-0.1-0.3 0-0.5 0.6-0.9 0.6-0.4 1.4-0.4 1.2 0 2.6 0.5-0.1-1.2-0.2-2.1-1.6-0.4-2.9-0.4-1.4 0-2.3 0.5-1 0.4-1.4 1.1-0.5 0.8-0.5 1.6 0 0.5 0.1 0.9 0.2 0.4 0.4 0.8 0.3 0.4 0.9 0.9 0.2 0.2 0.8 0.8 1.3 1.1 1.9 1.6 0.4 0.3 0.5 0.7 0.1 0.2 0.1 0.5 0 0.4-0.2 0.7-0.2 0.3-0.7 0.5-0.5 0.2-1.1 0.2-1.4 0-3.2-0.8 0.1 0.9 0.2 2.2 1.2 0.3 2 0.4 0.8 0.1 1.3 0.1 0.9 0 1.7-0.2 0.8-0.1 1.4-0.6 0.7-0.4 1-1.1 0.4-0.6 0.4-1.4 0-0.3-0.1-0.6-0.1-0.3-0.2-0.6z"/>
				<path id="&lt;Path&gt;" class="s0" d="m313.7 1097.1q-2.4 0-4.6 0v1.2l-0.2 3.6-0.2 3.9-0.2 3.5h1.8 2.9q1.9 0 4.2 0 0-0.9 0.1-2l-1.3 0.1h-1.9q-1.6 0-2 0h-1l0.2-3.3q1.6-0.1 2.6-0.1 0.4 0 2.7 0.1 0.1-1.2 0.2-2-2.1 0.1-2.9 0.1-1.3 0-2.5-0.1l0.1-3.1q0.9-0.1 1.3-0.1 0.4 0 1.8 0 0.6 0 1.2 0 0.7 0 1 0.1h0.9l0.1-1.9h-2.6z"/>
				<path id="&lt;Path&gt;" class="s0" d="m327.4 1097.1q-0.2 0.4-0.3 0.6l-2.7 4.3q-0.6-1.2-1.3-2.6-0.8-1.4-1.2-2.3-0.9 0-1.4 0-0.6 0-1.6 0l4 7q0 1-0.1 2.6-0.1 1.6-0.2 2.6 0.9 0 1.4 0 0.4 0 1.4 0 0-1.7 0-2.7l0.1-2.3 4.9-7.2q-1.1 0-1.4 0-0.7 0-1.6 0z"/>
				<path id="&lt;Path&gt;" class="s0" d="m340.6 1097.1v0.9q0 0.4-0.1 1.6l-0.1 2.4h-6.1v-0.9l0.3-4q-1 0-1.4 0-0.4 0-1.5 0v0.9q0 0.9 0 3.2-0.1 2.2-0.3 4.9l-0.2 3.2q1.1 0 1.4 0h1.5v-2.1l0.1-3.2h6.1q0 2.7-0.3 5.3 1.3 0 1.5 0h1.4q0-0.3 0-1.6l0.1-2.1 0.1-3.7 0.3-4.8q-1.2 0-1.4 0z"/>
				<path id="&lt;Path&gt;" class="s0" d="m354.6 1100q0.7-0.6 1.6-0.9 0.9-0.3 1.8-0.3 0.6 0 1.3 0.1 0.7 0.1 1.7 0.4l-0.1-1q0-0.3 0-1.1-1.8-0.4-3.2-0.4-1.5 0-2.8 0.5-1.4 0.4-2.4 1.3-1 0.8-1.5 2.1-0.5 1.3-0.5 2.7 0 1.4 0.4 2.6 0.5 1.1 1.4 1.9 1 0.8 2.2 1.2 1.3 0.4 2.6 0.4 0.6 0 1.5-0.1 0.8-0.1 1.8-0.2 0.2-1.1 0.4-2.2-1.9 0.6-3.3 0.6-1.4 0-2.4-0.6-1-0.6-1.4-1.5-0.5-0.9-0.5-2.1 0-0.9 0.4-1.8 0.3-0.9 1-1.6z"/>
				<path id="&lt;Compound Path&gt;" fill-rule="evenodd" class="s0" d="m376.2 1100.3q0.4 1.1 0.4 2.6 0 1.4-0.4 2.6-0.5 1.3-1.4 2.2-1 0.9-2.4 1.4-1.3 0.4-2.8 0.4-1.5 0-2.8-0.4-1.3-0.4-2.3-1.3-0.9-0.8-1.3-1.9-0.4-1.2-0.4-2.5 0-1.4 0.5-2.7 0.5-1.3 1.5-2.1 1-0.9 2.3-1.3 1.4-0.5 2.9-0.5 1.3 0 2.6 0.4 1.2 0.4 2.1 1.2 1 0.8 1.5 1.9zm-2.3 2.7q0-0.9-0.2-1.7-0.3-0.8-0.9-1.4-0.5-0.6-1.3-0.9-0.8-0.2-1.6-0.2-1.4 0-2.4 0.6-1 0.6-1.5 1.7-0.5 1.1-0.5 2.3 0 1.2 0.5 2.2 0.5 0.9 1.5 1.4 1 0.6 2.2 0.6 0.8 0 1.6-0.3 0.9-0.3 1.4-1 0.6-0.6 0.9-1.5 0.3-0.8 0.3-1.8z"/>
				<path id="&lt;Path&gt;" class="s0" d="m388.6 1097.1q0 0.7 0 1l-0.3 8.3q-1.1-1.9-2.9-4.7-1.8-2.9-2.8-4.6-1 0-1.5 0-0.8 0-1.8 0 0 1.8-0.1 4.2l-0.2 4.4q-0.1 2-0.3 3.6 1.1 0 1.3 0 0.4 0 1.3 0 0-2.2 0.1-3.8 0.1-3.9 0.2-5.4 0.6 1.1 1.5 2.4 1.2 1.9 1.9 3.2 1.2 1.8 1.6 2.4 0.2 0.4 0.7 1.2 1.2 0 1.7 0 0.6 0 1.6 0l0.1-3.3 0.2-5.7 0.3-3.2q-1.1 0-1.3 0-0.4 0-1.3 0z"/>
				<path id="&lt;Path&gt;" class="s0" d="m398.3 1097.1q-2.8 0-5.4 0 0 0.6-0.1 1.9h2.1 0.5l0.6-0.1h0.6l-0.1 3.9-0.2 3.9-0.2 2.6q1.3 0 1.5 0h1.4q0-0.7 0-1.4v-1l0.2-6.3 0.1-1.7h0.7q1.5 0 3.1 0.1 0-0.7 0.1-1.9h-1.7z"/>
				<path id="&lt;Path&gt;" class="s0" d="m413.2 1097.7q-0.6-0.4-1.5-0.6-0.8-0.1-1.8-0.1-0.8 0-1.6 0.1-0.7 0-1.5 0-0.7 0-1.8 0 0 2.6-0.1 6-0.2 3.5-0.4 6.2 1 0 1.3 0h1.4l0.2-6.7 0.1-3.7q0.7 0 1.2 0 0.4 0 0.7 0 0.5 0 1 0 0.5 0.1 0.8 0.3 0.3 0.2 0.5 0.6 0.1 0.3 0.1 0.7 0 0.6-0.3 1.1-0.3 0.5-1 0.8-0.6 0.2-1.4 0.2-0.5 0-1.1-0.1 0.3 0.6 0.5 0.9l1.1 2.2q0.3 0.8 0.6 1.3l1 2.4q1.1 0 1.5 0 0.3 0 1.4 0-0.3-0.7-0.4-0.8l-0.9-1.6q-0.8-1.5-1.1-2l-0.6-1.2q0.6-0.2 1-0.3 0.4-0.2 0.7-0.3 0.3-0.2 0.7-0.5 0.3-0.3 0.5-0.7 0.2-0.4 0.3-0.9 0.2-0.4 0.2-0.9 0-0.8-0.4-1.4-0.3-0.6-0.9-1z"/>
				<path id="&lt;Compound Path&gt;" fill-rule="evenodd" class="s0" d="m428.5 1108.3l0.4 1h-1.3q-0.5 0-1.6 0-0.2-0.8-0.7-2.2-0.4-1.3-0.8-2.2h-4.7q-1 2.2-2 4.4h-1.5q-0.4 0-1.5 0 0.9-1.7 2.2-4.1l2.3-4.5q1.1-2.1 1.9-3.6 1.1 0 1.6 0 0.9 0 1.7 0l1.2 3.6zm-4.4-5.2l-1.4-4.1-0.7 1.5-1.3 2.6z"/>
				<path id="&lt;Path&gt;" class="s0" d="m434.4 1100q0.7-0.6 1.6-0.9 0.9-0.3 1.8-0.3 0.6 0 1.3 0.1 0.7 0.1 1.7 0.4l-0.1-1q0-0.3 0-1.1-1.7-0.4-3.2-0.4-1.5 0-2.8 0.5-1.4 0.4-2.4 1.3-0.9 0.8-1.5 2.1-0.5 1.3-0.5 2.7 0 1.4 0.4 2.6 0.5 1.1 1.5 1.9 0.9 0.8 2.2 1.2 1.2 0.4 2.5 0.4 0.6 0 1.5-0.1 0.8-0.1 1.9-0.2 0.1-1.1 0.3-2.2-1.9 0.6-3.2 0.6-1.5 0-2.5-0.6-1-0.6-1.4-1.5-0.5-0.9-0.5-2.1 0-0.9 0.4-1.8 0.4-0.9 1-1.6z"/>
				<path id="&lt;Path&gt;" class="s0" d="m447.6 1097.1q-2.8 0-5.4 0 0 0.6 0 1.9h2 0.6l0.6-0.1h0.6l-0.1 3.9-0.2 3.9-0.2 2.6q1.2 0 1.4 0h1.4q0-0.7 0-1.4v-1l0.3-6.3 0.1-1.7h0.7q1.5 0 3.1 0.1 0-0.7 0.1-1.9h-1.7z"/>
				<path id="&lt;Path&gt;" class="s0" d="m454.3 1097.1v0.9q0 1.7-0.1 5-0.2 3.2-0.4 6.3 1.3 0 1.6 0h1.3q0.1-7.5 0.5-12.2-1.3 0-1.4 0z"/>
				<path id="&lt;Path&gt;" class="s0" d="m469.5 1097.1q0 0.7 0 1l-0.4 8.3q-1-1.9-2.8-4.7-1.8-2.9-2.8-4.6-1 0-1.6 0-0.7 0-1.7 0 0 1.8-0.2 4.2l-0.2 4.4q0 2-0.2 3.6 1 0 1.3 0 0.4 0 1.2 0 0.1-2.2 0.1-3.8 0.2-3.9 0.2-5.4 0.7 1.1 1.5 2.4 1.2 1.9 2 3.2 1.2 1.8 1.6 2.4 0.2 0.4 0.6 1.2 1.2 0 1.7 0 0.7 0 1.6 0l0.1-3.3 0.3-5.7 0.2-3.2q-1.1 0-1.2 0-0.5 0-1.3 0z"/>
				<path id="&lt;Path&gt;" class="s0" d="m481.4 1102.3q0 0.6-0.1 1.8 1 0 1.6 0h0.7l-0.2 3.2q-0.7 0.2-1.3 0.2-0.7 0.1-1.1 0.1-1.3 0-2.3-0.5-1-0.5-1.5-1.4-0.4-0.9-0.4-2 0-1.1 0.4-2.1 0.4-0.9 1.1-1.6 0.7-0.6 1.7-0.9 0.9-0.4 2-0.4 1.7 0 3.9 0.7-0.1-1.1-0.1-2.1-2.3-0.5-4-0.5-1.3 0-2.4 0.3-1.2 0.2-2.2 0.8-1 0.6-1.7 1.5-0.7 0.9-1 1.9-0.4 1.1-0.4 2.3 0 1.3 0.5 2.5 0.5 1.2 1.4 2 0.9 0.7 2.3 1.1 1.3 0.3 2.9 0.3 0.8 0 2-0.1 1.2-0.2 2.7-0.4 0.1-3.7 0.3-6.7-0.9 0-2.4 0-1.1 0-2.4 0z"/>
				<path id="&lt;Path&gt;" class="s0" d="m497.5 1100q0.7-0.6 1.6-0.9 0.9-0.3 1.8-0.3 0.6 0 1.3 0.1 0.7 0.1 1.7 0.4l-0.1-1q0-0.3 0-1.1-1.7-0.4-3.2-0.4-1.5 0-2.8 0.5-1.4 0.4-2.4 1.3-0.9 0.8-1.5 2.1-0.5 1.3-0.5 2.7 0 1.4 0.4 2.6 0.5 1.1 1.5 1.9 0.9 0.8 2.2 1.2 1.2 0.4 2.5 0.4 0.6 0 1.5-0.1 0.8-0.1 1.9-0.2 0.1-1.1 0.3-2.2-1.9 0.6-3.2 0.6-1.5 0-2.5-0.6-1-0.6-1.4-1.5-0.5-0.9-0.5-2.1 0-0.9 0.4-1.8 0.4-0.9 1-1.6z"/>
				<path id="&lt;Compound Path&gt;" fill-rule="evenodd" class="s0" d="m519.1 1100.3q0.5 1.1 0.5 2.6 0 1.4-0.5 2.6-0.4 1.3-1.4 2.2-1 0.9-2.3 1.4-1.4 0.4-2.9 0.4-1.5 0-2.8-0.4-1.3-0.4-2.2-1.3-1-0.8-1.4-1.9-0.4-1.2-0.4-2.5 0-1.4 0.5-2.7 0.5-1.3 1.5-2.1 1-0.9 2.3-1.3 1.4-0.5 2.9-0.5 1.4 0 2.6 0.4 1.2 0.4 2.2 1.2 0.9 0.8 1.4 1.9zm-2.3 2.7q0-0.9-0.2-1.7-0.3-0.8-0.8-1.4-0.6-0.6-1.4-0.9-0.8-0.2-1.6-0.2-1.4 0-2.4 0.6-1 0.6-1.5 1.7-0.5 1.1-0.5 2.3 0 1.2 0.5 2.2 0.5 0.9 1.5 1.4 1 0.6 2.2 0.6 0.9 0 1.7-0.3 0.8-0.3 1.4-1 0.5-0.6 0.8-1.5 0.3-0.8 0.3-1.8z"/>
				<path id="&lt;Path&gt;" class="s0" d="m531 1107.4h-1.5q0-1.5 0.1-3.1l0.2-3.6q0.1-2 0.2-3.6-0.9 0-1.3 0-0.6 0-1.5 0-0.1 2.9-0.2 6.2-0.2 3.3-0.4 6h1.6 2.9q1.6 0 4 0 0-1.1 0.1-2-0.6 0.1-1.3 0.1-0.7 0-2.9 0z"/>
				<path id="&lt;Path&gt;" class="s0" d="m536.8 1106.9q0 1.7-0.1 2.4 1.3 0 1.4 0h1.1l0.1-1.1q0-0.7 0.1-1.3-1 0-1.2 0z"/>
				<path id="&lt;Path&gt;" class="s0" d="m546.4 1107.4h-1.6q0.1-1.5 0.2-3.1l0.1-3.6q0.1-2 0.3-3.6-0.9 0-1.4 0-0.6 0-1.5 0 0 2.9-0.2 6.2-0.1 3.3-0.4 6h1.7 2.8q1.7 0 4 0 0.1-1.1 0.2-2-0.7 0.1-1.4 0.1-0.6 0-2.8 0z"/>
				<path id="&lt;Path&gt;" class="s0" d="m552.2 1106.9q-0.1 1.7-0.1 2.4 1.3 0 1.3 0h1.2v-1.1q0.1-0.7 0.1-1.3-1 0-1.2 0z"/>
				<path id="&lt;Path&gt;" class="s0" d="m561.6 1107q-0.9-0.6-1.4-1.5-0.4-0.9-0.4-2.1 0-0.9 0.3-1.8 0.4-0.9 1.1-1.6 0.6-0.6 1.5-0.9 0.9-0.3 1.9-0.3 0.6 0 1.2 0.1 0.7 0.1 1.7 0.4v-1q-0.1-0.3-0.1-1.1-1.7-0.4-3.2-0.4-1.4 0-2.8 0.5-1.3 0.4-2.3 1.3-1 0.8-1.5 2.1-0.6 1.3-0.6 2.7 0 1.4 0.5 2.6 0.4 1.1 1.4 1.9 1 0.8 2.2 1.2 1.2 0.4 2.5 0.4 0.7 0 1.5-0.1 0.9-0.1 1.9-0.2 0.1-1.1 0.3-2.2-1.9 0.6-3.2 0.6-1.5 0-2.5-0.6z"/>
			</g>
			<g id="&lt;Group&gt;">
				<path id="&lt;Path&gt;" class="s0" d="m340 629.1c-68.3 123.7-136 246.1-203.6 368.5q0.4 0.4 0.9 0.7c82.6-53.5 165.1-107 247.9-160.6-3.6-6.8-6.8-12.9-10.2-19.4-35.1 17-69.5 33.7-103.9 50.4q-0.5-0.5-0.9-1c22.9-41.7 45.8-83.5 69.3-126.2 33.4 62.2 66.5 123.6 100.2 186.2-3.2-0.7-4.7-1-6.2-1.4-29.6-8-59.3-16-88.8-24.3-5.8-1.6-10.4-1.3-15.8 2.1-51.6 33-103.4 65.8-155.1 98.6q-26.6 16.9-53.2 33.8 0.2 0.3 0.4 0.7c1.6-0.5 3.3-0.9 4.9-1.5 67.7-24.6 135.5-49.2 203.3-73.6 3.1-1.1 7.2-1.2 10.2-0.1 70.7 24 141.4 48.3 212 72.5 3.4 1.1 6.8 2.1 11.5 3.7-74.6-136.9-148.5-272.5-222.9-409.1z"/>
				<path id="&lt;Path&gt;" class="s0" d="m523.2 748.2q-0.5-0.6-0.9-1.3c-29.7 14.4-59.3 28.8-89.4 43.4 2.5 4.2 4.7 7.9 7.1 11.9 28-18.3 55.6-36.1 83.2-54z"/>
			</g>
		</g>
		<g id="&lt;Group&gt;">
			<g id="&lt;Group&gt;">
				<path id="&lt;Compound Path&gt;" fill-rule="evenodd" class="s76" d="m126.1 1684.8h3.9v10.7q0.2 7.1-6.7 7.1-0.3 7.7-7 7.4v-3.5q2.9-0.2 3-4.1v-12.2q0.6-5.3 6.8-5.4zm-0.3 3.6h-0.9q-1.3 0.1-1.4 1.4v9.1h0.9q1.5-0.1 1.4-1.5z"/>
				<path id="&lt;Path&gt;" class="s76" d="m137 1694.9q-1.1 0-1.7 0.7-0.7 0.7-0.7 1.7 0 1 0.7 1.7 0.6 0.7 1.7 0.7 1 0 1.7-0.7 0.7-0.7 0.7-1.7 0-1-0.7-1.7-0.7-0.7-1.7-0.7z"/>
				<path id="&lt;Compound Path&gt;" fill-rule="evenodd" class="s76" d="m152.9 1684.8h3.9v10.7q0.2 7.1-6.7 7.1-0.3 7.7-7 7.4v-3.5q2.9-0.2 3-4.1v-12.2q0.6-5.3 6.8-5.4zm-0.3 3.6h-0.9q-1.3 0.1-1.4 1.4v9.1h0.9q1.4-0.1 1.4-1.5z"/>
				<path id="&lt;Path&gt;" class="s76" d="m163.8 1694.9q-1.1 0-1.7 0.7-0.7 0.7-0.7 1.7 0 1 0.7 1.7 0.6 0.7 1.7 0.7 1 0 1.7-0.7 0.7-0.7 0.7-1.7 0-1-0.7-1.7-0.7-0.7-1.7-0.7z"/>
				<path id="&lt;Path&gt;" class="s76" d="m176.6 1678.3h-3.8v3.8h3.8z"/>
				<path id="&lt;Path&gt;" class="s76" d="m178.9 1685.5q-2.8-1.3-5.9-1.2v3.7q7.1 0.3 7.3 7v0.7h-10v3.4h13.9v-3.4q0.1-2.6-1-5.4-1.2-2.9-4.3-4.8z"/>
				<path id="&lt;Path&gt;" class="s76" d="m208.8 1678.3h-3.8v3.8h3.8z"/>
				<path id="&lt;Path&gt;" class="s76" d="m213.4 1695.7h-16.5q-3-0.6-3-4.7v-6.2h-4v8.4q0.6 6.4 8.3 5.9h19.4v-14.3h-4.2z"/>
				<path id="&lt;Path&gt;" class="s76" d="m203.4 1678.3h-3.8v3.8h3.8z"/>
				<path id="&lt;Path&gt;" class="s76" d="m232.3 1695.7h-4.1v-18.1h-4.2v18.1h-4.3v3.4h16.8v-3.4-18.1h-4.2z"/>
				<path id="&lt;Compound Path&gt;" fill-rule="evenodd" class="s76" d="m248.6 1684.8h1.5v14.3q0 2.3-1 3.8-1.6 1.8-4.7 1.6h-5.3v-3.6h5.8q1.6-0.2 1.2-1.8-4.4 0.3-6.5-2.7-2-3-0.6-7.3 1.3-4.3 9.6-4.3zm-2.5 3.5q-4.6 0.2-3.9 4.8 1 3 3.9 2.6z"/>
				<path id="&lt;Path&gt;" class="s76" d="m271.1 1678.3h-3.8v3.8h3.8z"/>
				<path id="&lt;Path&gt;" class="s76" d="m266.1 1678.3h-3.8v3.8h3.8z"/>
				<path id="&lt;Compound Path&gt;" fill-rule="evenodd" class="s76" d="m298.4 1677.6h4.2v21.5h-17.3q-1.4 3.7-6.7 3.5h-3.5v-3.5h-23v-21.5h4.2v18.1h6q-3.2-2.9-2-7 1.6-4 6.9-3.9h5.5v10.9h2.4v-4.7q0.2-6.1 6.8-6.2h4c0 0 0 10.8 0 10.9h3.7v-18.1h4.2v18.1h4.6zm-29.8 11.1h-0.5q-3.7-0.3-3.9 2.2 0.8 3.2 4.4 4.9zm13-0.2h-0.9q-1.2 0.1-1.4 1.4v9.1h1q1.4-0.1 1.3-1.5z"/>
				<path id="&lt;Path&gt;" class="s76" d="m317 1678.3h-3.8v3.8h3.8z"/>
				<path id="&lt;Path&gt;" class="s76" d="m322.4 1678.3h-3.8v3.8h3.8z"/>
				<path id="&lt;Path&gt;" class="s76" d="m330.5 1704.8h3.8v-3.8h-3.8z"/>
				<path id="&lt;Path&gt;" class="s76" d="m325.1 1704.8h3.8v-3.8h-3.8z"/>
				<path id="&lt;Path&gt;" class="s76" d="m358.5 1695.7h-4.4v-8.3h-4.4v8.3h-4.4v-5.6h-4.4v5.6h-4.6-0.6-1.3v-10.9h-4.2v10.9h-4.7-0.6-1.6v-11q-3.5 0-6 1-2.5 1.1-4.1 2.9-4.1 4.5-4.3 10.5h3.9l0.5-2.3q1.8-5.4 5.8-7.4v9.7h5.8 0.6 10.2 0.6 26.6v-3.4-10.9h-4.4z"/>
				<path id="&lt;Path&gt;" class="s76" d="m393.5 1695.7h-4.5v-8.3h-4.4v8.3h-4.4v-5.6h-4.4v5.6h-4.6-0.5-1.8v-18.1h-4.2v18.1 3.4h6 0.5 26.6v-3.4-10.9h-4.3z"/>
				<path id="&lt;Path&gt;" class="s76" d="m412.4 1695.7h-4.1v-18.1h-4.2v18.1h-4.3v3.4h16.8v-3.4-18.1h-4.2z"/>
				<path id="&lt;Path&gt;" class="s76" d="m418.6 1699.1h4.2v-21.5h-4.2z"/>
				<path id="&lt;Path&gt;" class="s76" d="m442.5 1678.3h-3.8v3.8h3.8z"/>
				<path id="&lt;Path&gt;" class="s76" d="m437.1 1678.3h-3.8v3.8h3.8z"/>
				<path id="&lt;Path&gt;" class="s76" d="m445.2 1704.8h3.8v-3.8h-3.8z"/>
				<path id="&lt;Path&gt;" class="s76" d="m450.6 1704.8h3.8v-3.8h-3.8z"/>
				<path id="&lt;Path&gt;" class="s76" d="m462.6 1678.3h-3.7v3.8h3.7z"/>
				<path id="&lt;Path&gt;" class="s76" d="m467.6 1704.8h3.8v-3.8h-3.8z"/>
				<path id="&lt;Path&gt;" class="s76" d="m476.3 1695.7h-1.7-0.6-2v-10.9h-4.2v10.9h-2.4-0.6-1.8v-10.9h-4.2v10.9h-2.4-0.6-1.3v-10.9h-4.2v10.9h-4.7-0.6-1.6v-11q-3.5 0-6 1-2.5 1.1-4.1 2.9-4.1 4.5-4.3 10.5h3.9l0.5-2.3q1.8-5.4 5.8-7.4v9.7h5.8 0.6 10.2 0.6 8.4 0.6 8.6 0.6 5.9v-3.4-18.1h-4.2z"/>
				<path id="&lt;Path&gt;" class="s76" d="m482.7 1699.1h4.2v-21.5h-4.2z"/>
				<path id="&lt;Path&gt;" class="s76" d="m501.2 1678.3h-3.7v3.8h3.7z"/>
				<path id="&lt;Path&gt;" class="s76" d="m506.6 1678.3h-3.8v3.8h3.8z"/>
				<path id="&lt;Path&gt;" class="s76" d="m521.9 1686.5h-6l10.8-8.9h-5.8l-10.1 8.1v4.9h11.1q3.2 0.1 2.2 5.1h-14.4-0.6-1.5v-11q-3.6 0-6.1 1-2.4 1.1-4 2.9-4.2 4.5-4.4 10.5h4l0.5-2.3q1.7-5.4 5.8-7.4v9.7h5.7 0.6 18.8v-6.6q-0.3-5.6-6.6-6z"/>
				<path id="&lt;Path&gt;" class="s76" d="m560.7 1684.8v10.9h-4.4v-8.3h-4.4v8.3h-4.4v-5.6h-4.4v5.6h-4.5-0.7-1.1v-10.9h-4v11.9q0 4.1-3 4.2v3.6q5.8 0.3 6.8-5.4h1.3 0.7 26.5v-3.4-10.9z"/>
				<path id="&lt;Path&gt;" class="s76" d="m555 1682.1h3.8v-3.8h-3.8z"/>
				<path id="&lt;Path&gt;" class="s76" d="m555.9 1673.9h-3.6v3.6h3.6z"/>
				<path id="&lt;Path&gt;" class="s76" d="m553.4 1678.3h-3.8v3.8h3.8z"/>
			</g>
			<g id="&lt;Group&gt;">
				<path id="&lt;Compound Path&gt;" fill-rule="evenodd" class="s76" d="m130 1729.4l0.4 0.9h-1.3q-0.5 0-1.6 0-0.2-0.8-0.7-2.1-0.4-1.4-0.7-2.2h-4.8q-1 2.1-2 4.3h-1.5q-0.4 0-1.5 0 0.9-1.6 2.2-4l2.3-4.6q1.1-2 1.9-3.6 1.1 0 1.6 0 0.9 0 1.7 0l1.3 3.7zm-4.5-5.2l-1.4-4.2-0.7 1.5-1.3 2.7z"/>
				<path id="&lt;Path&gt;" class="s76" d="m136.5 1728.5l-1.5-0.1q0-1.5 0.1-3l0.2-3.6q0.1-2.1 0.2-3.7-0.9 0-1.3 0-0.6 0-1.6 0 0 2.9-0.1 6.2-0.2 3.3-0.5 6h1.7 2.8q1.7 0 4.1 0 0-1 0.1-1.9-0.7 0-1.3 0-0.7 0.1-2.9 0.1z"/>
				<path id="&lt;Path&gt;" class="s76" d="m141.3 1724.7q0 0.9-0.1 1.8 1.3 0 2.3 0 1.1 0 2.4 0 0-1 0.1-1.8-1.3 0-2.4 0-1 0-2.3 0z"/>
				<path id="&lt;Compound Path&gt;" fill-rule="evenodd" class="s76" d="m157.4 1726.2q0.1 0.3 0.1 0.7 0 0.9-0.3 1.6-0.4 0.7-1.1 1.1-0.6 0.5-1.4 0.6-0.8 0.1-3.5 0.1h-2.1-1.6q0.1-1.9 0.2-3.1 0-1.2 0.1-4.1 0.1-2.9 0.1-4 0-0.3 0-1 1.2 0 1.9 0 0.8 0 1.9 0 1.1 0 1.8 0 1 0 1.5 0.1 0.5 0.1 0.9 0.2 0.4 0.2 0.6 0.4 0.3 0.3 0.5 0.6 0.2 0.4 0.3 0.8 0.1 0.3 0.1 0.7 0 0.5-0.1 1-0.2 0.4-0.4 0.8-0.2 0.4-0.5 0.6-0.3 0.3-0.6 0.4-0.3 0.2-0.7 0.3 0.4 0.1 0.6 0.2 0.3 0.1 0.6 0.3 0.2 0.1 0.5 0.4 0.3 0.3 0.4 0.6 0.2 0.3 0.2 0.7zm-7-3h1.4q0.9 0 1.3-0.1 0.3 0 0.6-0.1 0.4-0.2 0.6-0.4 0.2-0.3 0.4-0.6 0.1-0.4 0.1-0.7 0-0.3-0.2-0.6-0.1-0.3-0.3-0.5-0.3-0.2-0.6-0.3-0.4-0.1-1.1-0.1h-2.1zm4.5 3.5q0-0.4-0.1-0.8-0.1-0.3-0.4-0.5-0.3-0.2-0.7-0.3-0.4-0.1-1.1-0.1h-2.3l-0.1 3.6h2q0.6 0 1 0 0.3-0.1 0.6-0.2 0.3-0.1 0.5-0.3 0.2-0.1 0.3-0.3 0.2-0.3 0.3-0.5 0-0.3 0-0.6z"/>
				<path id="&lt;Path&gt;" class="s76" d="m165 1718.1q-2.4 0-4.6 0v1.2l-0.2 3.6-0.2 4-0.2 3.4h1.8 2.9q1.9 0 4.2 0 0-0.9 0.1-1.9h-1.3l-1.9 0.1q-1.6 0-2 0h-1l0.2-3.4q1.6 0 2.6 0 0.4 0 2.7 0 0.1-1.1 0.2-1.9-2.1 0-2.9 0-1.3 0-2.5 0l0.1-3.2q0.9 0 1.3 0 0.4 0 1.8 0 0.6 0 1.2 0 0.7 0 1 0l0.9 0.1 0.1-2h-2.6z"/>
				<path id="&lt;Path&gt;" class="s76" d="m181.3 1718.1q0 0.7 0 1l-0.4 8.3q-1.1-1.8-2.8-4.7-1.8-2.8-2.8-4.6-1.1 0-1.6 0-0.7 0-1.8 0 0 1.9-0.1 4.3l-0.2 4.3q-0.1 2-0.2 3.6 1 0 1.3 0 0.4 0 1.2 0 0-2.1 0.1-3.7 0.2-4 0.2-5.4 0.6 1 1.5 2.4 1.2 1.9 2 3.1 1.2 1.9 1.5 2.5 0.3 0.3 0.7 1.1 1.2 0 1.7 0 0.7 0 1.6 0l0.1-3.3 0.3-5.6 0.2-3.3q-1.1 0-1.3 0-0.4 0-1.2 0z"/>
				<path id="&lt;Path&gt;" class="s76" d="m195.1 1718.1q-0.7 0-1.6 0-0.2 0.5-0.3 0.7l-2.7 4.3q-0.6-1.2-1.3-2.6-0.8-1.4-1.2-2.4-0.9 0-1.4 0-0.6 0-1.6 0l4 7.1q0 0.9-0.1 2.5-0.1 1.6-0.2 2.6 0.9 0 1.4 0 0.4 0 1.3 0 0.1-1.7 0.1-2.7l0.1-2.2 4.9-7.3q-1.1 0-1.4 0z"/>
				<path id="&lt;Compound Path&gt;" fill-rule="evenodd" class="s76" d="m209.4 1729.4l0.4 0.9h-1.3q-0.5 0-1.6 0-0.2-0.8-0.7-2.1-0.4-1.4-0.8-2.2h-4.7q-1 2.1-2 4.3h-1.5q-0.4 0-1.5 0 0.9-1.6 2.2-4l2.3-4.6q1.1-2 1.8-3.6 1.2 0 1.7 0 0.8 0 1.7 0l1.2 3.7zm-4.4-5.2l-1.4-4.2-0.8 1.5-1.3 2.7z"/>
				<path id="&lt;Path&gt;" class="s76" d="m220.8 1718.1v0.9q0 0.4 0 1.7l-0.1 2.4h-6.1v-0.9l0.3-4.1q-1.1 0-1.4 0-0.4 0-1.5 0v1q0 0.9 0 3.1-0.1 2.3-0.3 4.9l-0.2 3.2q1.1 0 1.4 0h1.4l0.1-2 0.1-3.3h6.1q-0.1 2.8-0.3 5.3 1.2 0 1.5 0h1.4q0-0.3 0-1.6v-2.1l0.2-3.6 0.3-4.9q-1.2 0-1.4 0z"/>
				<path id="&lt;Compound Path&gt;" fill-rule="evenodd" class="s76" d="m243.2 1729.4l0.4 0.9h-1.4q-0.4 0-1.5 0-0.3-0.8-0.7-2.1-0.5-1.4-0.8-2.2h-4.7q-1.1 2.1-2.1 4.3h-1.4q-0.4 0-1.6 0 1-1.6 2.2-4l2.4-4.6q1.1-2 1.8-3.6 1.2 0 1.7 0 0.8 0 1.6 0l1.3 3.7zm-4.5-5.2l-1.4-4.2-0.7 1.5-1.3 2.7z"/>
				<path id="&lt;Path&gt;" class="s76" d="m249.7 1728.5l-1.6-0.1q0.1-1.5 0.1-3l0.2-3.6q0.1-2.1 0.2-3.7-0.9 0-1.3 0-0.6 0-1.5 0 0 2.9-0.2 6.2-0.2 3.3-0.4 6h1.7 2.8q1.7 0 4 0 0.1-1 0.1-1.9-0.6 0-1.3 0-0.7 0.1-2.8 0.1z"/>
				<path id="&lt;Path&gt;" class="s76" d="m259.1 1724.7q-1.3 0-2.3 0-1 0-2.3 0 0 0.9-0.1 1.8 1.3 0 2.3 0 1 0 2.3 0 0-1 0.1-1.8z"/>
				<path id="&lt;Compound Path&gt;" fill-rule="evenodd" class="s76" d="m272.7 1729.4l0.4 0.9h-1.4q-0.4 0-1.5 0-0.2-0.8-0.7-2.1-0.5-1.4-0.8-2.2h-4.7q-1 2.1-2 4.3h-1.5q-0.4 0-1.5 0 0.9-1.6 2.1-4l2.4-4.6q1.1-2 1.8-3.6 1.2 0 1.7 0 0.8 0 1.6 0l1.3 3.7zm-4.5-5.2l-1.4-4.2-0.7 1.5-1.3 2.7z"/>
				<path id="&lt;Path&gt;" class="s76" d="m281.9 1726.1q-0.1-0.3-0.3-0.6-0.3-0.3-0.6-0.6-0.3-0.3-0.7-0.7l-1.1-1q-0.3-0.2-0.7-0.5-0.4-0.3-0.6-0.6-0.2-0.2-0.3-0.4 0-0.1-0.1-0.3 0-0.1 0-0.3 0-0.5 0.5-0.9 0.6-0.4 1.5-0.4 1.1 0 2.5 0.6-0.1-1.2-0.1-2.2-1.6-0.3-2.9-0.3-1.4 0-2.4 0.4-0.9 0.4-1.4 1.2-0.5 0.7-0.5 1.6 0 0.4 0.2 0.8 0.1 0.4 0.4 0.8 0.3 0.4 0.8 0.9 0.2 0.3 0.9 0.8 1.3 1.2 1.8 1.6 0.4 0.4 0.6 0.7 0.1 0.3 0.1 0.6 0 0.4-0.3 0.7-0.2 0.3-0.7 0.5-0.5 0.2-1.1 0.2-1.4 0-3.1-0.8 0.1 0.8 0.1 2.2 1.3 0.3 2 0.4 0.8 0.1 1.4 0.1 0.8 0 1.6-0.2 0.8-0.2 1.5-0.6 0.6-0.4 1-1.1 0.3-0.7 0.3-1.4 0-0.3-0.1-0.6 0-0.3-0.2-0.6z"/>
				<path id="&lt;Compound Path&gt;" fill-rule="evenodd" class="s76" d="m296.7 1729.4l0.3 0.9h-1.3q-0.5 0-1.6 0-0.2-0.8-0.6-2.1-0.5-1.4-0.8-2.2h-4.7q-1.1 2.1-2.1 4.3h-1.4q-0.4 0-1.6 0 0.9-1.6 2.2-4l2.4-4.6q1.1-2 1.8-3.6 1.1 0 1.6 0 0.9 0 1.7 0l1.3 3.7zm-4.5-5.2l-1.4-4.2-0.7 1.5-1.3 2.7z"/>
				<path id="&lt;Path&gt;" class="s76" d="m305.9 1726.1q-0.1-0.3-0.4-0.6-0.2-0.3-0.5-0.6-0.4-0.3-0.8-0.7l-1.1-1q-0.3-0.2-0.6-0.5-0.4-0.3-0.6-0.6-0.2-0.2-0.3-0.4-0.1-0.1-0.1-0.3-0.1-0.1-0.1-0.3 0-0.5 0.6-0.9 0.6-0.4 1.4-0.4 1.2 0 2.6 0.6-0.1-1.2-0.2-2.2-1.6-0.3-2.9-0.3-1.4 0-2.3 0.4-1 0.4-1.4 1.2-0.5 0.7-0.5 1.6 0 0.4 0.1 0.8 0.2 0.4 0.4 0.8 0.3 0.4 0.9 0.9 0.2 0.3 0.8 0.8 1.3 1.2 1.9 1.6 0.4 0.4 0.5 0.7 0.1 0.3 0.1 0.6 0 0.4-0.2 0.7-0.2 0.3-0.7 0.5-0.5 0.2-1.1 0.2-1.4 0-3.2-0.8 0.1 0.8 0.2 2.2 1.2 0.3 2 0.4 0.8 0.1 1.3 0.1 0.9 0 1.7-0.2 0.8-0.2 1.4-0.6 0.7-0.4 1-1.1 0.4-0.7 0.4-1.4 0-0.3-0.1-0.6-0.1-0.3-0.2-0.6z"/>
				<path id="&lt;Path&gt;" class="s76" d="m313.7 1718.1q-2.4 0-4.6 0v1.2l-0.2 3.6-0.2 4-0.2 3.4h1.8 2.9q1.9 0 4.2 0 0-0.9 0.1-1.9h-1.3l-1.9 0.1q-1.6 0-2 0h-1l0.2-3.4q1.6 0 2.6 0 0.4 0 2.7 0 0.1-1.1 0.2-1.9-2.1 0-2.9 0-1.3 0-2.5 0l0.1-3.2q0.9 0 1.3 0 0.4 0 1.8 0 0.6 0 1.2 0 0.7 0 1 0l0.9 0.1 0.1-2h-2.6z"/>
				<path id="&lt;Path&gt;" class="s76" d="m327.4 1718.1q-0.2 0.5-0.3 0.7l-2.7 4.3q-0.6-1.2-1.3-2.6-0.8-1.4-1.2-2.4-0.9 0-1.4 0-0.6 0-1.6 0l4 7.1q0 0.9-0.1 2.5-0.1 1.6-0.2 2.6 0.9 0 1.4 0 0.4 0 1.4 0 0-1.7 0-2.7l0.1-2.2 4.9-7.3q-1.1 0-1.4 0-0.7 0-1.6 0z"/>
				<path id="&lt;Path&gt;" class="s76" d="m340.6 1718.1v0.9q0 0.4-0.1 1.7l-0.1 2.4h-6.1v-0.9l0.3-4.1q-1 0-1.4 0-0.4 0-1.5 0v1q0 0.9 0 3.1-0.1 2.3-0.3 4.9l-0.2 3.2q1.1 0 1.4 0h1.5v-2l0.1-3.3h6.1q0 2.8-0.3 5.3 1.3 0 1.5 0h1.4q0-0.3 0-1.6l0.1-2.1 0.1-3.6 0.3-4.9q-1.2 0-1.4 0z"/>
				<path id="&lt;Path&gt;" class="s76" d="m354.6 1721.1q0.7-0.7 1.6-0.9 0.9-0.3 1.8-0.3 0.6 0 1.3 0.1 0.7 0.1 1.7 0.3l-0.1-0.9q0-0.4 0-1.2-1.8-0.3-3.2-0.3-1.5 0-2.8 0.4-1.4 0.5-2.4 1.3-1 0.9-1.5 2.2-0.5 1.2-0.5 2.7 0 1.4 0.4 2.5 0.5 1.2 1.4 2 1 0.8 2.2 1.2 1.3 0.4 2.6 0.4 0.6 0 1.5-0.1 0.8-0.1 1.8-0.3 0.2-1.1 0.4-2.1-1.9 0.5-3.3 0.5-1.4 0-2.4-0.5-1-0.6-1.4-1.5-0.5-0.9-0.5-2.1 0-1 0.4-1.9 0.3-0.9 1-1.5z"/>
				<path id="&lt;Compound Path&gt;" fill-rule="evenodd" class="s76" d="m376.2 1721.4q0.4 1.1 0.4 2.6 0 1.3-0.4 2.6-0.5 1.3-1.4 2.2-1 0.9-2.4 1.3-1.3 0.5-2.8 0.5-1.5 0-2.8-0.4-1.3-0.5-2.3-1.3-0.9-0.9-1.3-2-0.4-1.1-0.4-2.4 0-1.4 0.5-2.7 0.5-1.3 1.5-2.2 1-0.8 2.3-1.3 1.4-0.4 2.9-0.4 1.3 0 2.6 0.4 1.2 0.3 2.1 1.2 1 0.8 1.5 1.9zm-2.3 2.7q0-0.9-0.2-1.7-0.3-0.8-0.9-1.4-0.5-0.6-1.3-0.9-0.8-0.3-1.6-0.3-1.4 0-2.4 0.6-1 0.7-1.5 1.7-0.5 1.1-0.5 2.4 0 1.1 0.5 2.1 0.5 1 1.5 1.5 1 0.5 2.2 0.5 0.8 0 1.6-0.3 0.9-0.3 1.4-0.9 0.6-0.6 0.9-1.5 0.3-0.9 0.3-1.8z"/>
				<path id="&lt;Path&gt;" class="s76" d="m388.6 1718.1q0 0.7 0 1l-0.3 8.3q-1.1-1.8-2.9-4.7-1.8-2.8-2.8-4.6-1 0-1.5 0-0.8 0-1.8 0 0 1.9-0.1 4.3l-0.2 4.3q-0.1 2-0.3 3.6 1.1 0 1.3 0 0.4 0 1.3 0 0-2.1 0.1-3.7 0.1-4 0.2-5.4 0.6 1 1.5 2.4 1.2 1.9 1.9 3.1 1.2 1.9 1.6 2.5 0.2 0.3 0.7 1.1 1.2 0 1.7 0 0.6 0 1.6 0l0.1-3.3 0.2-5.6 0.3-3.3q-1.1 0-1.3 0-0.4 0-1.3 0z"/>
				<path id="&lt;Path&gt;" class="s76" d="m398.3 1718.1q-2.8 0-5.4 0 0 0.7-0.1 2l2.1-0.1h0.5 0.6 0.6l-0.1 3.8-0.2 3.9-0.2 2.6q1.3 0 1.5 0h1.4q0-0.7 0-1.3v-1.1l0.2-6.3 0.1-1.6h0.7q1.5 0 3.1 0.1 0-0.7 0.1-2h-1.7z"/>
				<path id="&lt;Path&gt;" class="s76" d="m413.2 1718.7q-0.6-0.4-1.5-0.5-0.8-0.1-1.8-0.1-0.8 0-1.6 0-0.7 0-1.5 0-0.7 0-1.8 0 0 2.6-0.1 6.1-0.2 3.5-0.4 6.1 1 0 1.3 0h1.4l0.2-6.7 0.1-3.6q0.7 0 1.2-0.1 0.4 0 0.7 0 0.5 0 1 0.1 0.5 0.1 0.8 0.3 0.3 0.2 0.5 0.5 0.1 0.4 0.1 0.7 0 0.6-0.3 1.2-0.3 0.5-1 0.7-0.6 0.3-1.4 0.3-0.5 0-1.1-0.1 0.3 0.6 0.5 0.9l1.1 2.2q0.3 0.7 0.6 1.3l1 2.3q1.1 0 1.5 0 0.3 0 1.4 0-0.3-0.7-0.4-0.8l-0.9-1.6q-0.8-1.4-1.1-2l-0.6-1.2q0.6-0.1 1-0.3 0.4-0.1 0.7-0.3 0.3-0.1 0.7-0.4 0.3-0.3 0.5-0.7 0.2-0.4 0.3-0.9 0.2-0.4 0.2-0.9 0-0.8-0.4-1.4-0.3-0.6-0.9-1.1z"/>
				<path id="&lt;Compound Path&gt;" fill-rule="evenodd" class="s76" d="m428.5 1729.4l0.4 0.9h-1.3q-0.5 0-1.6 0-0.2-0.8-0.7-2.1-0.4-1.4-0.8-2.2h-4.7q-1 2.1-2 4.3h-1.5q-0.4 0-1.5 0 0.9-1.6 2.2-4l2.3-4.6q1.1-2 1.9-3.6 1.1 0 1.6 0 0.9 0 1.7 0l1.2 3.7zm-4.4-5.2l-1.4-4.2-0.7 1.5-1.3 2.7z"/>
				<path id="&lt;Path&gt;" class="s76" d="m434.4 1721.1q0.7-0.7 1.6-0.9 0.9-0.3 1.8-0.3 0.6 0 1.3 0.1 0.7 0.1 1.7 0.3l-0.1-0.9q0-0.4 0-1.2-1.7-0.3-3.2-0.3-1.5 0-2.8 0.4-1.4 0.5-2.4 1.3-0.9 0.9-1.5 2.2-0.5 1.2-0.5 2.7 0 1.4 0.4 2.5 0.5 1.2 1.5 2 0.9 0.8 2.2 1.2 1.2 0.4 2.5 0.4 0.6 0 1.5-0.1 0.8-0.1 1.9-0.3 0.1-1.1 0.3-2.1-1.9 0.5-3.2 0.5-1.5 0-2.5-0.5-1-0.6-1.4-1.5-0.5-0.9-0.5-2.1 0-1 0.4-1.9 0.4-0.9 1-1.5z"/>
				<path id="&lt;Path&gt;" class="s76" d="m447.6 1718.1q-2.8 0-5.4 0 0 0.7 0 2l2-0.1h0.6 0.6 0.6l-0.1 3.8-0.2 3.9-0.2 2.6q1.2 0 1.4 0h1.4q0-0.7 0-1.3v-1.1l0.3-6.3 0.1-1.6h0.7q1.5 0 3.1 0.1 0-0.7 0.1-2h-1.7z"/>
				<path id="&lt;Path&gt;" class="s76" d="m454.3 1718.1v1q0 1.7-0.1 4.9-0.2 3.3-0.4 6.3 1.3 0 1.6 0h1.3q0.1-7.5 0.5-12.2-1.3 0-1.4 0z"/>
				<path id="&lt;Path&gt;" class="s76" d="m469.5 1718.1q0 0.7 0 1l-0.4 8.3q-1-1.8-2.8-4.7-1.8-2.8-2.8-4.6-1 0-1.6 0-0.7 0-1.7 0 0 1.9-0.2 4.3l-0.2 4.3q0 2-0.2 3.6 1 0 1.3 0 0.4 0 1.2 0 0.1-2.1 0.1-3.7 0.2-4 0.2-5.4 0.7 1 1.5 2.4 1.2 1.9 2 3.1 1.2 1.9 1.6 2.5 0.2 0.3 0.6 1.1 1.2 0 1.7 0 0.7 0 1.6 0l0.1-3.3 0.3-5.6 0.2-3.3q-1.1 0-1.2 0-0.5 0-1.3 0z"/>
				<path id="&lt;Path&gt;" class="s76" d="m481.4 1723.4q0 0.6-0.1 1.8 1 0 1.6 0h0.7l-0.2 3.1q-0.7 0.2-1.3 0.3-0.7 0.1-1.1 0.1-1.3 0-2.3-0.5-1-0.5-1.5-1.4-0.4-0.9-0.4-2.1 0-1 0.4-2 0.4-1 1.1-1.6 0.7-0.7 1.7-1 0.9-0.3 2-0.3 1.7 0 3.9 0.7-0.1-1.1-0.1-2.1-2.3-0.5-4-0.5-1.3 0-2.4 0.2-1.2 0.2-2.2 0.8-1 0.6-1.7 1.5-0.7 0.9-1 2-0.4 1.1-0.4 2.2 0 1.4 0.5 2.6 0.5 1.2 1.4 1.9 0.9 0.8 2.3 1.1 1.3 0.4 2.9 0.4 0.8 0 2-0.2 1.2-0.1 2.7-0.4 0.1-3.6 0.3-6.6-0.9 0-2.4 0-1.1 0-2.4 0z"/>
				<path id="&lt;Path&gt;" class="s76" d="m497.5 1721.1q0.7-0.7 1.6-0.9 0.9-0.3 1.8-0.3 0.6 0 1.3 0.1 0.7 0.1 1.7 0.3l-0.1-0.9q0-0.4 0-1.2-1.7-0.3-3.2-0.3-1.5 0-2.8 0.4-1.4 0.5-2.4 1.3-0.9 0.9-1.5 2.2-0.5 1.2-0.5 2.7 0 1.4 0.4 2.5 0.5 1.2 1.5 2 0.9 0.8 2.2 1.2 1.2 0.4 2.5 0.4 0.6 0 1.5-0.1 0.8-0.1 1.9-0.3 0.1-1.1 0.3-2.1-1.9 0.5-3.2 0.5-1.5 0-2.5-0.5-1-0.6-1.4-1.5-0.5-0.9-0.5-2.1 0-1 0.4-1.9 0.4-0.9 1-1.5z"/>
				<path id="&lt;Compound Path&gt;" fill-rule="evenodd" class="s76" d="m519.1 1721.4q0.5 1.1 0.5 2.6 0 1.3-0.5 2.6-0.4 1.3-1.4 2.2-1 0.9-2.3 1.3-1.4 0.5-2.9 0.5-1.5 0-2.8-0.4-1.3-0.5-2.2-1.3-1-0.9-1.4-2-0.4-1.1-0.4-2.4 0-1.4 0.5-2.7 0.5-1.3 1.5-2.2 1-0.8 2.3-1.3 1.4-0.4 2.9-0.4 1.4 0 2.6 0.4 1.2 0.3 2.2 1.2 0.9 0.8 1.4 1.9zm-2.3 2.7q0-0.9-0.2-1.7-0.3-0.8-0.8-1.4-0.6-0.6-1.4-0.9-0.8-0.3-1.6-0.3-1.4 0-2.4 0.6-1 0.7-1.5 1.7-0.5 1.1-0.5 2.4 0 1.1 0.5 2.1 0.5 1 1.5 1.5 1 0.5 2.2 0.5 0.9 0 1.7-0.3 0.8-0.3 1.4-0.9 0.5-0.6 0.8-1.5 0.3-0.9 0.3-1.8z"/>
				<path id="&lt;Path&gt;" class="s76" d="m531 1728.5l-1.5-0.1q0-1.5 0.1-3l0.2-3.6q0.1-2.1 0.2-3.7-0.9 0-1.3 0-0.6 0-1.5 0-0.1 2.9-0.2 6.2-0.2 3.3-0.4 6h1.6 2.9q1.6 0 4 0 0-1 0.1-1.9-0.6 0-1.3 0-0.7 0.1-2.9 0.1z"/>
				<path id="&lt;Path&gt;" class="s76" d="m536.8 1727.9q0 1.8-0.1 2.4 1.3 0 1.4 0h1.1l0.1-1.1q0-0.6 0.1-1.3-1 0-1.2 0z"/>
				<path id="&lt;Path&gt;" class="s76" d="m546.4 1728.5l-1.6-0.1q0.1-1.5 0.2-3l0.1-3.6q0.1-2.1 0.3-3.7-0.9 0-1.4 0-0.6 0-1.5 0 0 2.9-0.2 6.2-0.1 3.3-0.4 6h1.7 2.8q1.7 0 4 0 0.1-1 0.2-1.9-0.7 0-1.4 0-0.6 0.1-2.8 0.1z"/>
				<path id="&lt;Path&gt;" class="s76" d="m552.2 1727.9q-0.1 1.8-0.1 2.4 1.3 0 1.3 0h1.2v-1.1q0.1-0.6 0.1-1.3-1 0-1.2 0z"/>
				<path id="&lt;Path&gt;" class="s76" d="m561.6 1728.1q-0.9-0.6-1.4-1.5-0.4-0.9-0.4-2.1 0-1 0.3-1.9 0.4-0.9 1.1-1.5 0.6-0.7 1.5-0.9 0.9-0.3 1.9-0.3 0.6 0 1.2 0.1 0.7 0.1 1.7 0.3v-0.9q-0.1-0.4-0.1-1.2-1.7-0.3-3.2-0.3-1.4 0-2.8 0.4-1.3 0.5-2.3 1.3-1 0.9-1.5 2.2-0.6 1.2-0.6 2.7 0 1.4 0.5 2.5 0.4 1.2 1.4 2 1 0.8 2.2 1.2 1.2 0.4 2.5 0.4 0.7 0 1.5-0.1 0.9-0.1 1.9-0.3 0.1-1.1 0.3-2.1-1.9 0.5-3.2 0.5-1.5 0-2.5-0.5z"/>
			</g>
			<g id="&lt;Group&gt;">
				<path id="&lt;Path&gt;" class="s76" d="m340 1250.2c-68.3 123.7-136 246.1-203.6 368.5q0.4 0.3 0.9 0.7c82.6-53.5 165.1-107 247.9-160.7-3.6-6.7-6.8-12.9-10.2-19.3-35.1 17-69.5 33.7-103.9 50.3q-0.5-0.5-0.9-0.9c22.9-41.8 45.8-83.5 69.3-126.2 33.4 62.2 66.5 123.5 100.2 186.1-3.2-0.7-4.7-0.9-6.2-1.3-29.6-8.1-59.3-16-88.8-24.3-5.8-1.6-10.4-1.4-15.8 2.1-51.6 33-103.4 65.7-155.1 98.5q-26.6 16.9-53.2 33.8 0.2 0.4 0.4 0.8c1.6-0.5 3.3-1 4.9-1.5 67.7-24.6 135.5-49.2 203.3-73.6 3.1-1.1 7.2-1.2 10.2-0.2 70.7 24.1 141.4 48.3 212 72.5 3.4 1.2 6.8 2.2 11.5 3.7-74.6-136.9-148.5-272.4-222.9-409z"/>
				<path id="&lt;Path&gt;" class="s76" d="m523.2 1369.3q-0.5-0.7-0.9-1.3c-29.7 14.4-59.3 28.7-89.4 43.3 2.5 4.3 4.7 8 7.1 11.9 28-18.2 55.6-36.1 83.2-53.9z"/>
			</g>
		</g>
	</g>
</svg>