<svg xmlns="http://www.w3.org/2000/svg" width="500" height="375" version="1.2" viewBox="0 0 677 508"><defs><linearGradient id="g1" x2="1" gradientTransform="matrix(13.707 0 0 25.239 116.342 454.627)" gradientUnits="userSpaceOnUse"><stop offset="0" stop-color="#caa848"/><stop offset="1" stop-color="#af882e"/></linearGradient><linearGradient id="g2" x2="1" gradientTransform="matrix(4.782 0 0 4.802 134.577 464.733)" gradientUnits="userSpaceOnUse"><stop offset="0" stop-color="#caa848"/><stop offset="1" stop-color="#af882e"/></linearGradient><linearGradient id="g3" x2="1" gradientTransform="matrix(13.707 0 0 25.239 143.138 454.627)" gradientUnits="userSpaceOnUse"><stop offset="0" stop-color="#caa848"/><stop offset="1" stop-color="#af882e"/></linearGradient><linearGradient id="g4" x2="1" gradientTransform="matrix(4.782 0 0 4.802 161.372 464.733)" gradientUnits="userSpaceOnUse"><stop offset="0" stop-color="#caa848"/><stop offset="1" stop-color="#af882e"/></linearGradient><linearGradient id="g5" x2="1" gradientTransform="matrix(3.777 0 0 3.776 172.826 448.153)" gradientUnits="userSpaceOnUse"><stop offset="0" stop-color="#caa848"/><stop offset="1" stop-color="#af882e"/></linearGradient><linearGradient id="g6" x2="1" gradientTransform="matrix(13.845 0 0 14.82 170.327 454.193)" gradientUnits="userSpaceOnUse"><stop offset="0" stop-color="#caa848"/><stop offset="1" stop-color="#af882e"/></linearGradient><linearGradient id="g7" x2="1" gradientTransform="translate(204.998 448.153) scale(3.776)" gradientUnits="userSpaceOnUse"><stop offset="0" stop-color="#caa848"/><stop offset="1" stop-color="#af882e"/></linearGradient><linearGradient id="g8" x2="1" gradientTransform="matrix(27.729 0 0 14.419 189.875 454.627)" gradientUnits="userSpaceOnUse"><stop offset="0" stop-color="#caa848"/><stop offset="1" stop-color="#af882e"/></linearGradient><linearGradient id="g9" x2="1" gradientTransform="translate(199.603 448.153) scale(3.776)" gradientUnits="userSpaceOnUse"><stop offset="0" stop-color="#caa848"/><stop offset="1" stop-color="#af882e"/></linearGradient><linearGradient id="g10" x2="1" gradientTransform="matrix(16.76 0 0 21.579 219.744 447.433)" gradientUnits="userSpaceOnUse"><stop offset="0" stop-color="#caa848"/><stop offset="1" stop-color="#af882e"/></linearGradient><linearGradient id="g11" x2="1" gradientTransform="matrix(11.658 0 0 19.793 238.409 454.627)" gradientUnits="userSpaceOnUse"><stop offset="0" stop-color="#caa848"/><stop offset="1" stop-color="#af882e"/></linearGradient><linearGradient id="g12" x2="1" gradientTransform="matrix(3.777 0 0 3.776 267.308 448.153)" gradientUnits="userSpaceOnUse"><stop offset="0" stop-color="#caa848"/><stop offset="1" stop-color="#af882e"/></linearGradient><linearGradient id="g13" x2="1" gradientTransform="matrix(3.777 0 0 3.776 262.273 448.153)" gradientUnits="userSpaceOnUse"><stop offset="0" stop-color="#caa848"/><stop offset="1" stop-color="#af882e"/></linearGradient><linearGradient id="g14" x2="1" gradientTransform="matrix(50.478 0 0 25.009 252.132 447.433)" gradientUnits="userSpaceOnUse"><stop offset="0" stop-color="#caa848"/><stop offset="1" stop-color="#af882e"/></linearGradient><linearGradient id="g15" x2="1" gradientTransform="matrix(3.777 0 0 3.776 313.22 448.153)" gradientUnits="userSpaceOnUse"><stop offset="0" stop-color="#caa848"/><stop offset="1" stop-color="#af882e"/></linearGradient><linearGradient id="g16" x2="1" gradientTransform="matrix(3.777 0 0 3.776 318.614 448.153)" gradientUnits="userSpaceOnUse"><stop offset="0" stop-color="#caa848"/><stop offset="1" stop-color="#af882e"/></linearGradient><linearGradient id="g17" x2="1" gradientTransform="translate(330.518 470.902) scale(3.777)" gradientUnits="userSpaceOnUse"><stop offset="0" stop-color="#caa848"/><stop offset="1" stop-color="#af882e"/></linearGradient><linearGradient id="g18" x2="1" gradientTransform="translate(325.123 470.902) scale(3.777)" gradientUnits="userSpaceOnUse"><stop offset="0" stop-color="#caa848"/><stop offset="1" stop-color="#af882e"/></linearGradient><linearGradient id="g19" x2="1" gradientTransform="matrix(54.001 0 0 14.457 308.886 454.555)" gradientUnits="userSpaceOnUse"><stop offset="0" stop-color="#caa848"/><stop offset="1" stop-color="#af882e"/></linearGradient><linearGradient id="g20" x2="1" gradientTransform="matrix(33.177 0 0 21.579 364.669 447.433)" gradientUnits="userSpaceOnUse"><stop offset="0" stop-color="#caa848"/><stop offset="1" stop-color="#af882e"/></linearGradient><linearGradient id="g21" x2="1" gradientTransform="matrix(16.76 0 0 21.579 399.808 447.433)" gradientUnits="userSpaceOnUse"><stop offset="0" stop-color="#caa848"/><stop offset="1" stop-color="#af882e"/></linearGradient><linearGradient id="g22" x2="1" gradientTransform="matrix(4.208 0 0 21.579 418.581 447.433)" gradientUnits="userSpaceOnUse"><stop offset="0" stop-color="#caa848"/><stop offset="1" stop-color="#af882e"/></linearGradient><linearGradient id="g23" x2="1" gradientTransform="matrix(3.777 0 0 3.776 438.704 448.153)" gradientUnits="userSpaceOnUse"><stop offset="0" stop-color="#caa848"/><stop offset="1" stop-color="#af882e"/></linearGradient><linearGradient id="g24" x2="1" gradientTransform="matrix(3.777 0 0 3.776 433.309 448.153)" gradientUnits="userSpaceOnUse"><stop offset="0" stop-color="#caa848"/><stop offset="1" stop-color="#af882e"/></linearGradient><linearGradient id="g25" x2="1" gradientTransform="translate(445.213 470.902) scale(3.777)" gradientUnits="userSpaceOnUse"><stop offset="0" stop-color="#caa848"/><stop offset="1" stop-color="#af882e"/></linearGradient><linearGradient id="g26" x2="1" gradientTransform="translate(450.608 470.902) scale(3.777)" gradientUnits="userSpaceOnUse"><stop offset="0" stop-color="#caa848"/><stop offset="1" stop-color="#af882e"/></linearGradient><linearGradient id="g27" x2="1" gradientTransform="translate(458.864 448.153) scale(3.776)" gradientUnits="userSpaceOnUse"><stop offset="0" stop-color="#caa848"/><stop offset="1" stop-color="#af882e"/></linearGradient><linearGradient id="g28" x2="1" gradientTransform="matrix(3.776 0 0 3.777 467.62 470.902)" gradientUnits="userSpaceOnUse"><stop offset="0" stop-color="#caa848"/><stop offset="1" stop-color="#af882e"/></linearGradient><linearGradient id="g29" x2="1" gradientTransform="matrix(51.556 0 0 21.579 428.975 447.433)" gradientUnits="userSpaceOnUse"><stop offset="0" stop-color="#caa848"/><stop offset="1" stop-color="#af882e"/></linearGradient><linearGradient id="g30" x2="1" gradientTransform="matrix(4.208 0 0 21.579 482.727 447.433)" gradientUnits="userSpaceOnUse"><stop offset="0" stop-color="#caa848"/><stop offset="1" stop-color="#af882e"/></linearGradient><linearGradient id="g31" x2="1" gradientTransform="matrix(3.777 0 0 3.776 497.454 448.153)" gradientUnits="userSpaceOnUse"><stop offset="0" stop-color="#caa848"/><stop offset="1" stop-color="#af882e"/></linearGradient><linearGradient id="g32" x2="1" gradientTransform="matrix(3.777 0 0 3.776 502.849 448.153)" gradientUnits="userSpaceOnUse"><stop offset="0" stop-color="#caa848"/><stop offset="1" stop-color="#af882e"/></linearGradient><linearGradient id="g33" x2="1" gradientTransform="matrix(35.389 0 0 21.579 493.121 447.433)" gradientUnits="userSpaceOnUse"><stop offset="0" stop-color="#caa848"/><stop offset="1" stop-color="#af882e"/></linearGradient><linearGradient id="g34" x2="1" gradientTransform="matrix(35.282 0 0 19.79 529.842 454.627)" gradientUnits="userSpaceOnUse"><stop offset="0" stop-color="#caa848"/><stop offset="1" stop-color="#af882e"/></linearGradient><linearGradient id="g35" x2="1" gradientTransform="matrix(3.777 0 0 3.776 555.035 448.153)" gradientUnits="userSpaceOnUse"><stop offset="0" stop-color="#caa848"/><stop offset="1" stop-color="#af882e"/></linearGradient><linearGradient id="g36" x2="1" gradientTransform="matrix(3.597 0 0 3.596 552.338 443.783)" gradientUnits="userSpaceOnUse"><stop offset="0" stop-color="#caa848"/><stop offset="1" stop-color="#af882e"/></linearGradient><linearGradient id="g37" x2="1" gradientTransform="matrix(14.118 0 0 12.213 116.297 488.002)" gradientUnits="userSpaceOnUse"><stop offset="0" stop-color="#caa848"/><stop offset="1" stop-color="#af882e"/></linearGradient><linearGradient id="g38" x2="1" gradientTransform="matrix(8.669 0 0 12.213 132.034 488.002)" gradientUnits="userSpaceOnUse"><stop offset="0" stop-color="#caa848"/><stop offset="1" stop-color="#af882e"/></linearGradient><linearGradient id="g39" x2="1" gradientTransform="matrix(4.724 0 0 1.807 141.241 494.579)" gradientUnits="userSpaceOnUse"><stop offset="0" stop-color="#caa848"/><stop offset="1" stop-color="#af882e"/></linearGradient><linearGradient id="g40" x2="1" gradientTransform="matrix(10.083 0 0 12.248 147.45 487.967)" gradientUnits="userSpaceOnUse"><stop offset="0" stop-color="#caa848"/><stop offset="1" stop-color="#af882e"/></linearGradient><linearGradient id="g41" x2="1" gradientTransform="matrix(9.474 0 0 12.213 159.788 488.002)" gradientUnits="userSpaceOnUse"><stop offset="0" stop-color="#caa848"/><stop offset="1" stop-color="#af882e"/></linearGradient><linearGradient id="g42" x2="1" gradientTransform="matrix(12.427 0 0 12.213 171.374 488.002)" gradientUnits="userSpaceOnUse"><stop offset="0" stop-color="#caa848"/><stop offset="1" stop-color="#af882e"/></linearGradient><linearGradient id="g43" x2="1" gradientTransform="matrix(11.533 0 0 12.213 184.992 488.002)" gradientUnits="userSpaceOnUse"><stop offset="0" stop-color="#caa848"/><stop offset="1" stop-color="#af882e"/></linearGradient><linearGradient id="g44" x2="1" gradientTransform="matrix(14.118 0 0 12.213 195.684 488.002)" gradientUnits="userSpaceOnUse"><stop offset="0" stop-color="#caa848"/><stop offset="1" stop-color="#af882e"/></linearGradient><linearGradient id="g45" x2="1" gradientTransform="matrix(12.168 0 0 12.213 211.502 488.002)" gradientUnits="userSpaceOnUse"><stop offset="0" stop-color="#caa848"/><stop offset="1" stop-color="#af882e"/></linearGradient><linearGradient id="g46" x2="1" gradientTransform="matrix(14.118 0 0 12.213 229.441 488.002)" gradientUnits="userSpaceOnUse"><stop offset="0" stop-color="#caa848"/><stop offset="1" stop-color="#af882e"/></linearGradient><linearGradient id="g47" x2="1" gradientTransform="matrix(8.669 0 0 12.213 245.178 488.002)" gradientUnits="userSpaceOnUse"><stop offset="0" stop-color="#caa848"/><stop offset="1" stop-color="#af882e"/></linearGradient><linearGradient id="g48" x2="1" gradientTransform="matrix(4.724 0 0 1.807 254.385 494.579)" gradientUnits="userSpaceOnUse"><stop offset="0" stop-color="#caa848"/><stop offset="1" stop-color="#af882e"/></linearGradient><linearGradient id="g49" x2="1" gradientTransform="matrix(14.118 0 0 12.213 258.957 488.002)" gradientUnits="userSpaceOnUse"><stop offset="0" stop-color="#caa848"/><stop offset="1" stop-color="#af882e"/></linearGradient><linearGradient id="g50" x2="1" gradientTransform="matrix(7.954 0 0 12.642 274.256 487.788)" gradientUnits="userSpaceOnUse"><stop offset="0" stop-color="#caa848"/><stop offset="1" stop-color="#af882e"/></linearGradient><linearGradient id="g51" x2="1" gradientTransform="matrix(14.118 0 0 12.213 282.917 488.002)" gradientUnits="userSpaceOnUse"><stop offset="0" stop-color="#caa848"/><stop offset="1" stop-color="#af882e"/></linearGradient><linearGradient id="g52" x2="1" gradientTransform="matrix(7.954 0 0 12.642 298.216 487.788)" gradientUnits="userSpaceOnUse"><stop offset="0" stop-color="#caa848"/><stop offset="1" stop-color="#af882e"/></linearGradient><linearGradient id="g53" x2="1" gradientTransform="matrix(9.474 0 0 12.213 308.488 488.002)" gradientUnits="userSpaceOnUse"><stop offset="0" stop-color="#caa848"/><stop offset="1" stop-color="#af882e"/></linearGradient><linearGradient id="g54" x2="1" gradientTransform="matrix(11.533 0 0 12.213 318.893 488.002)" gradientUnits="userSpaceOnUse"><stop offset="0" stop-color="#caa848"/><stop offset="1" stop-color="#af882e"/></linearGradient><linearGradient id="g55" x2="1" gradientTransform="matrix(12.168 0 0 12.213 331.222 488.002)" gradientUnits="userSpaceOnUse"><stop offset="0" stop-color="#caa848"/><stop offset="1" stop-color="#af882e"/></linearGradient><linearGradient id="g56" x2="1" gradientTransform="matrix(10.486 0 0 12.642 350.484 487.788)" gradientUnits="userSpaceOnUse"><stop offset="0" stop-color="#caa848"/><stop offset="1" stop-color="#af882e"/></linearGradient><linearGradient id="g57" x2="1" gradientTransform="matrix(13.885 0 0 12.642 362.76 487.788)" gradientUnits="userSpaceOnUse"><stop offset="0" stop-color="#caa848"/><stop offset="1" stop-color="#af882e"/></linearGradient><linearGradient id="g58" x2="1" gradientTransform="matrix(12.427 0 0 12.213 378.731 488.002)" gradientUnits="userSpaceOnUse"><stop offset="0" stop-color="#caa848"/><stop offset="1" stop-color="#af882e"/></linearGradient><linearGradient id="g59" x2="1" gradientTransform="matrix(10.401 0 0 12.213 392.825 488.002)" gradientUnits="userSpaceOnUse"><stop offset="0" stop-color="#caa848"/><stop offset="1" stop-color="#af882e"/></linearGradient><linearGradient id="g60" x2="1" gradientTransform="matrix(10.003 0 0 12.248 404.453 487.967)" gradientUnits="userSpaceOnUse"><stop offset="0" stop-color="#caa848"/><stop offset="1" stop-color="#af882e"/></linearGradient><linearGradient id="g61" x2="1" gradientTransform="matrix(14.118 0 0 12.213 414.796 488.002)" gradientUnits="userSpaceOnUse"><stop offset="0" stop-color="#caa848"/><stop offset="1" stop-color="#af882e"/></linearGradient><linearGradient id="g62" x2="1" gradientTransform="matrix(10.486 0 0 12.642 430.301 487.788)" gradientUnits="userSpaceOnUse"><stop offset="0" stop-color="#caa848"/><stop offset="1" stop-color="#af882e"/></linearGradient><linearGradient id="g63" x2="1" gradientTransform="matrix(10.401 0 0 12.213 442.168 488.002)" gradientUnits="userSpaceOnUse"><stop offset="0" stop-color="#caa848"/><stop offset="1" stop-color="#af882e"/></linearGradient><linearGradient id="g64" x2="1" gradientTransform="matrix(3.337 0 0 12.213 453.832 488.002)" gradientUnits="userSpaceOnUse"><stop offset="0" stop-color="#caa848"/><stop offset="1" stop-color="#af882e"/></linearGradient><linearGradient id="g65" x2="1" gradientTransform="matrix(12.427 0 0 12.213 459.584 488.002)" gradientUnits="userSpaceOnUse"><stop offset="0" stop-color="#caa848"/><stop offset="1" stop-color="#af882e"/></linearGradient><linearGradient id="g66" x2="1" gradientTransform="matrix(12.159 0 0 12.642 474.088 487.788)" gradientUnits="userSpaceOnUse"><stop offset="0" stop-color="#caa848"/><stop offset="1" stop-color="#af882e"/></linearGradient><linearGradient id="g67" x2="1" gradientTransform="matrix(10.486 0 0 12.642 493.404 487.788)" gradientUnits="userSpaceOnUse"><stop offset="0" stop-color="#caa848"/><stop offset="1" stop-color="#af882e"/></linearGradient><linearGradient id="g68" x2="1" gradientTransform="matrix(13.885 0 0 12.642 505.68 487.788)" gradientUnits="userSpaceOnUse"><stop offset="0" stop-color="#caa848"/><stop offset="1" stop-color="#af882e"/></linearGradient><linearGradient id="g69" x2="1" gradientTransform="matrix(8.669 0 0 12.213 526.553 488.002)" gradientUnits="userSpaceOnUse"><stop offset="0" stop-color="#caa848"/><stop offset="1" stop-color="#af882e"/></linearGradient><linearGradient id="g70" x2="1" gradientTransform="matrix(2.631 0 0 2.407 536.734 497.808)" gradientUnits="userSpaceOnUse"><stop offset="0" stop-color="#caa848"/><stop offset="1" stop-color="#af882e"/></linearGradient><linearGradient id="g71" x2="1" gradientTransform="matrix(8.669 0 0 12.213 541.906 488.002)" gradientUnits="userSpaceOnUse"><stop offset="0" stop-color="#caa848"/><stop offset="1" stop-color="#af882e"/></linearGradient><linearGradient id="g72" x2="1" gradientTransform="matrix(2.631 0 0 2.407 552.088 497.808)" gradientUnits="userSpaceOnUse"><stop offset="0" stop-color="#caa848"/><stop offset="1" stop-color="#af882e"/></linearGradient><linearGradient id="g73" x2="1" gradientTransform="matrix(10.486 0 0 12.642 557.027 487.788)" gradientUnits="userSpaceOnUse"><stop offset="0" stop-color="#caa848"/><stop offset="1" stop-color="#af882e"/></linearGradient><linearGradient id="g74" x2="1" gradientTransform="matrix(442.337 0 0 409.022 120.613 20.079)" gradientUnits="userSpaceOnUse"><stop offset="0" stop-color="#caa848"/><stop offset="1" stop-color="#af882e"/></linearGradient><linearGradient id="g75" x2="1" gradientTransform="matrix(90.266 0 0 55.235 432.894 137.862)" gradientUnits="userSpaceOnUse"><stop offset="0" stop-color="#caa848"/><stop offset="1" stop-color="#af882e"/></linearGradient></defs><style>.s0{fill:#403f40}.s76{fill:#fefefe}</style><g id="Layer 1"><path id="&lt;Path&gt;" d="M690.7 1781H-18v-566.9h708.7z" class="s0"/><g id="&lt;Group&gt;"><path id="&lt;Compound Path&gt;" fill-rule="evenodd" d="M126.1 454.6h3.9v10.7q.2 7.2-6.7 7.1-.3 7.7-7 7.5v-3.5q2.9-.2 3-4.1v-12.2q.6-5.3 6.8-5.5zm-.3 3.7h-.9q-1.3.1-1.4 1.4v9.1h.9q1.5-.1 1.4-1.5z" style="fill:url(#g1)"/><path d="M137 464.7q-1.1 0-1.7.7-.7.7-.7 1.7 0 1.1.7 1.7.6.7 1.7.7 1 0 1.7-.7t.7-1.7q0-1-.7-1.7t-1.7-.7z" style="fill:url(#g2)"/><path fill-rule="evenodd" d="M152.9 454.6h3.9v10.7q.2 7.2-6.7 7.1-.3 7.7-7 7.5v-3.5q2.9-.2 3-4.1v-12.2q.6-5.3 6.8-5.5zm-.3 3.7h-.9q-1.3.1-1.4 1.4v9.1h.9q1.4-.1 1.4-1.5z" style="fill:url(#g3)"/><path d="M163.8 464.7q-1.1 0-1.7.7-.7.7-.7 1.7 0 1.1.7 1.7.6.7 1.7.7 1 0 1.7-.7t.7-1.7q0-1-.7-1.7t-1.7-.7z" style="fill:url(#g4)"/><path d="M176.6 448.2h-3.8v3.7h3.8z" style="fill:url(#g5)"/><path d="M178.9 455.4q-2.8-1.4-5.9-1.2v3.7q7.1.2 7.3 7v.7h-10v3.4h13.9v-3.4q.1-2.6-1-5.5-1.2-2.8-4.3-4.7z" style="fill:url(#g6)"/><path d="M208.8 448.2H205v3.7h3.8z" style="fill:url(#g7)"/><path d="M213.4 465.6h-16.5q-3-.7-3-4.7v-6.3h-4v8.5q.6 6.4 8.3 5.9h19.4v-14.4h-4.2z" style="fill:url(#g8)"/><path d="M203.4 448.2h-3.8v3.7h3.8z" style="fill:url(#g9)"/><path d="M232.3 465.6h-4.1v-18.2H224v18.2h-4.3v3.4h16.8V447.4h-4.2z" style="fill:url(#g10)"/><path fill-rule="evenodd" d="M248.6 454.6h1.5V469q0 2.3-1 3.8-1.6 1.8-4.7 1.6h-5.3v-3.6h5.8q1.6-.2 1.2-1.8-4.4.2-6.5-2.8-2-3-.6-7.2 1.3-4.3 9.6-4.4zm-2.5 3.6q-4.6.2-3.9 4.7 1 3 3.9 2.7z" style="fill:url(#g11)"/><path d="M271.1 448.2h-3.8v3.7h3.8z" style="fill:url(#g12)"/><path d="M266.1 448.2h-3.8v3.7h3.8z" style="fill:url(#g13)"/><path fill-rule="evenodd" d="M298.4 447.4h4.2V469h-17.3q-1.4 3.6-6.7 3.4h-3.5V469h-23v-21.6h4.2v18.2h6q-3.2-3-2-7.1 1.6-3.9 6.9-3.9h5.5v11h2.4v-4.8q.2-6 6.8-6.2h4v11h3.7v-18.2h4.2v18.2h4.6zm-29.8 11h-.5q-3.7-.2-3.9 2.3.8 3.2 4.4 4.9zm13-.2h-.9q-1.2.1-1.4 1.4v9.1h1q1.4-.1 1.3-1.5z" style="fill:url(#g14)"/><path d="M317 448.2h-3.8v3.7h3.8z" style="fill:url(#g15)"/><path d="M322.4 448.2h-3.8v3.7h3.8z" style="fill:url(#g16)"/><path d="M330.5 474.7h3.8v-3.8h-3.8z" style="fill:url(#g17)"/><path d="M325.1 474.7h3.8v-3.8h-3.8z" style="fill:url(#g18)"/><path d="M358.5 465.6h-4.4v-8.3h-4.4v8.3h-4.4V460h-4.4v5.6H334.4v-11h-4.2v11h-6.9v-11q-3.5-.1-6 1t-4.1 2.8q-4.1 4.6-4.3 10.6h3.9l.5-2.3q1.8-5.4 5.8-7.5v9.8h43.8v-14.4h-4.4z" style="fill:url(#g19)"/><path d="M393.5 465.6H389v-8.3h-4.4v8.3h-4.4V460h-4.4v5.6H368.9v-18.2h-4.2V469h33.1v-14.4h-4.3z" style="fill:url(#g20)"/><path d="M412.4 465.6h-4.1v-18.2h-4.2v18.2h-4.3v3.4h16.8V447.4h-4.2z" style="fill:url(#g21)"/><path d="M418.6 469h4.2v-21.6h-4.2z" style="fill:url(#g22)"/><path d="M442.5 448.2h-3.8v3.7h3.8z" style="fill:url(#g23)"/><path d="M437.1 448.2h-3.8v3.7h3.8z" style="fill:url(#g24)"/><path d="M445.2 474.7h3.8v-3.8h-3.8z" style="fill:url(#g25)"/><path d="M450.6 474.7h3.8v-3.8h-3.8z" style="fill:url(#g26)"/><path d="M462.6 448.2h-3.7v3.7h3.7z" style="fill:url(#g27)"/><path d="M467.6 474.7h3.8v-3.8h-3.8z" style="fill:url(#g28)"/><path d="M476.3 465.6H472v-11h-4.2v11H463v-11h-4.2v11h-4.3v-11h-4.2v11h-6.9v-11q-3.5-.1-6 1t-4.1 2.8q-4.1 4.6-4.3 10.6h3.9l.5-2.3q1.8-5.4 5.8-7.5v9.8H480.5V447.4h-4.2z" style="fill:url(#g29)"/><path d="M482.7 469h4.2v-21.6h-4.2z" style="fill:url(#g30)"/><path d="M501.2 448.2h-3.7v3.7h3.7z" style="fill:url(#g31)"/><path d="M506.6 448.2h-3.8v3.7h3.8z" style="fill:url(#g32)"/><path d="M521.9 456.4h-6l10.8-9h-5.8l-10.1 8.2v4.8h11.1q3.2.2 2.2 5.2h-16.5v-11q-3.6-.1-6.1 1-2.4 1.1-4 2.8-4.2 4.6-4.4 10.6h4l.5-2.3q1.7-5.4 5.8-7.5v9.8h25.1v-6.6q-.3-5.6-6.6-6z" style="fill:url(#g33)"/><path d="M560.7 454.6v11h-4.4v-8.3h-4.4v8.3h-4.4V460h-4.4v5.6H536.8v-11h-4v12q0 4.1-3 4.1v3.7q5.8.3 6.8-5.4h28.5v-14.4z" style="fill:url(#g34)"/><path d="M555 451.9h3.8v-3.7H555z" style="fill:url(#g35)"/><path d="M555.9 443.8h-3.6v3.6h3.6z" style="fill:url(#g36)"/><path fill-rule="evenodd" d="m130 499.2.4 1H127.5q-.2-.8-.7-2.1-.4-1.4-.7-2.2h-4.8q-1 2.1-2 4.3h-3q.9-1.6 2.2-4.1l2.3-4.5q1.1-2.1 1.9-3.6h3.3l1.3 3.7zm-4.5-5.3-1.4-4.1-.7 1.5-1.3 2.6z" style="fill:url(#g37)"/><path d="M136.5 498.3H135q0-1.5.1-3l.2-3.6q.1-2.1.2-3.7H132.6q0 2.9-.1 6.2-.2 3.3-.5 6h8.6q0-1 .1-1.9h-4.2z" style="fill:url(#g38)"/><path d="M141.3 494.6q0 .9-.1 1.8 1.3-.1 2.3-.1 1.1 0 2.4.1 0-1.1.1-1.8H141.3z" style="fill:url(#g39)"/><path fill-rule="evenodd" d="M157.4 496q.1.4.1.8 0 .9-.3 1.6-.4.7-1.1 1.1-.6.4-1.4.6-.8.1-3.5.1h-3.7q.1-1.9.2-3.1 0-1.2.1-4.1.1-2.9.1-4v-1h5.6q1 0 1.5.1.5 0 .9.2t.6.4q.3.3.5.6t.3.7q.1.4.1.8 0 .5-.1 1l-.4.8q-.2.4-.5.6-.3.3-.6.4-.3.1-.7.3.4.1.6.2l.6.2.5.5q.3.3.4.6.2.3.2.6zm-7-2.9h1.4q.9 0 1.3-.1.3 0 .6-.2.4-.1.6-.4.2-.2.4-.6.1-.3.1-.6 0-.4-.2-.6-.1-.3-.3-.5-.3-.2-.6-.3-.4-.1-1.1-.1h-2.1zm4.5 3.5q0-.5-.1-.8-.1-.3-.4-.5-.3-.2-.7-.3-.4-.2-1.1-.2h-2.3l-.1 3.7h3l.6-.2q.3-.1.5-.3.2-.1.3-.4.2-.2.3-.5v-.5z" style="fill:url(#g40)"/><path d="M165 488h-4.6v1.2l-.2 3.6-.2 4-.2 3.4h8.9q0-.9.1-1.9h-1.3l-1.9.1h-3l.2-3.4H168.1q.1-1.1.2-2-2.1.1-2.9.1h-2.5l.1-3.2h6.2l.1-1.9h-2.6z" style="fill:url(#g41)"/><path d="M181.3 488v1l-.4 8.3q-1.1-1.9-2.8-4.7-1.8-2.8-2.8-4.6H171.9q0 1.9-.1 4.2l-.2 4.4q-.1 2-.2 3.6h2.5q0-2.2.1-3.8.2-3.9.2-5.3.6 1 1.5 2.4 1.2 1.9 2 3.1 1.2 1.8 1.5 2.4.3.4.7 1.2h3.3l.1-3.3.3-5.6.2-3.3h-2.5z" style="fill:url(#g42)"/><path d="M195.1 488h-1.6q-.2.5-.3.7l-2.7 4.3-1.3-2.6q-.8-1.5-1.2-2.4h-3l4 7.1q0 .9-.1 2.5t-.2 2.6h2.7q.1-1.7.1-2.7l.1-2.2 4.9-7.3h-1.4z" style="fill:url(#g43)"/><path fill-rule="evenodd" d="m209.4 499.2.4 1H206.9q-.2-.8-.7-2.1-.4-1.4-.8-2.2h-4.7q-1 2.1-2 4.3h-3q.9-1.6 2.2-4.1l2.3-4.5q1.1-2.1 1.8-3.6h3.4l1.2 3.7zm-4.4-5.3-1.4-4.1-.8 1.5-1.3 2.6z" style="fill:url(#g44)"/><path d="M220.8 488v2.5l-.1 2.5h-6.1v-1l.3-4H212v4.1q-.1 2.3-.3 4.9l-.2 3.2h2.8l.1-2 .1-3.3h6.1q-.1 2.8-.3 5.3h2.9v-3.7l.2-3.6.3-4.9h-1.4z" style="fill:url(#g45)"/><path fill-rule="evenodd" d="m243.2 499.2.4 1h-2.9q-.3-.8-.7-2.1-.5-1.4-.8-2.2h-4.7q-1.1 2.1-2.1 4.3h-3q1-1.6 2.2-4.1l2.4-4.5q1.1-2.1 1.8-3.6h3.3l1.3 3.7zm-4.5-5.3-1.4-4.1-.7 1.5-1.3 2.6z" style="fill:url(#g46)"/><path d="M249.7 498.3h-1.6q.1-1.5.1-3l.2-3.6q.1-2.1.2-3.7h-2.8q0 2.9-.2 6.2-.2 3.3-.4 6h8.5q.1-1 .1-1.9h-4.1z" style="fill:url(#g47)"/><path d="M259.1 494.6h-4.6q0 .9-.1 1.8 1.3-.1 2.3-.1 1 0 2.3.1 0-1.1.1-1.8z" style="fill:url(#g48)"/><path fill-rule="evenodd" d="m272.7 499.2.4 1h-2.9q-.2-.8-.7-2.1-.5-1.4-.8-2.2H264q-1 2.1-2 4.3h-3q.9-1.6 2.1-4.1l2.4-4.5q1.1-2.1 1.8-3.6h3.3l1.3 3.7zm-4.5-5.3-1.4-4.1-.7 1.5-1.3 2.6z" style="fill:url(#g49)"/><path d="M281.9 496q-.1-.3-.3-.6l-.6-.6q-.3-.4-.7-.7l-1.1-1q-.3-.2-.7-.5l-.6-.6q-.2-.2-.3-.4 0-.1-.1-.3v-.3q0-.5.5-.9.6-.4 1.5-.4 1.1 0 2.5.5-.1-1.2-.1-2.1-1.6-.3-2.9-.3-1.4 0-2.4.4-.9.4-1.4 1.2-.5.7-.5 1.5 0 .5.2.9.1.4.4.8.3.4.8.9.2.3.9.8 1.3 1.1 1.8 1.6.4.4.6.7.1.3.1.6t-.3.7q-.2.3-.7.5-.5.1-1.1.1-1.4 0-3.1-.8.1.9.1 2.3 1.3.2 2 .3.8.1 1.4.1.8 0 1.6-.1.8-.2 1.5-.6.6-.5 1-1.1.3-.7.3-1.4 0-.4-.1-.7 0-.2-.2-.5z" style="fill:url(#g50)"/><path fill-rule="evenodd" d="m296.7 499.2.3 1H294.1q-.2-.8-.6-2.1-.5-1.4-.8-2.2H288q-1.1 2.1-2.1 4.3h-3q.9-1.6 2.2-4.1l2.4-4.5q1.1-2.1 1.8-3.6h3.3l1.3 3.7zm-4.5-5.3-1.4-4.1-.7 1.5-1.3 2.6z" style="fill:url(#g51)"/><path d="M305.9 496q-.1-.3-.4-.6-.2-.3-.5-.6-.4-.4-.8-.7l-1.1-1q-.3-.2-.6-.5l-.6-.6q-.2-.2-.3-.4-.1-.1-.1-.3-.1-.1-.1-.3 0-.5.6-.9t1.4-.4q1.2 0 2.6.5-.1-1.2-.2-2.1-1.6-.3-2.9-.3-1.4 0-2.3.4-1 .4-1.4 1.2-.5.7-.5 1.5 0 .5.1.9l.4.8q.3.4.9.9.2.3.8.8 1.3 1.1 1.9 1.6.4.4.5.7.1.3.1.6t-.2.7q-.2.3-.7.5-.5.1-1.1.1-1.4 0-3.2-.8.1.9.2 2.3 1.2.2 2 .3.8.1 1.3.1.9 0 1.7-.1.8-.2 1.4-.6.7-.5 1-1.1.4-.7.4-1.4 0-.4-.1-.7-.1-.2-.2-.5z" style="fill:url(#g52)"/><path d="M313.7 488h-4.6v1.2l-.2 3.6-.2 4-.2 3.4h8.9q0-.9.1-1.9h-1.3l-1.9.1h-3l.2-3.4H316.8q.1-1.1.2-2-2.1.1-2.9.1h-2.5l.1-3.2h6.2l.1-1.9h-2.6z" style="fill:url(#g53)"/><path d="M327.4 488q-.2.5-.3.7l-2.7 4.3-1.3-2.6q-.8-1.5-1.2-2.4h-3l4 7.1q0 .9-.1 2.5t-.2 2.6h2.8v-2.7l.1-2.2 4.9-7.3h-3z" style="fill:url(#g54)"/><path d="M340.6 488v.9q0 .4-.1 1.6l-.1 2.5h-6.1v-1l.3-4h-2.9v4.1q-.1 2.3-.3 4.9l-.2 3.2h2.9v-2l.1-3.3h6.1q0 2.8-.3 5.3h2.9v-1.6l.1-2.1.1-3.6.3-4.9H342z" style="fill:url(#g55)"/><path d="M354.6 491q.7-.7 1.6-1 .9-.3 1.8-.3.6 0 1.3.1.7.1 1.7.4l-.1-1v-1.1q-1.8-.3-3.2-.3-1.5 0-2.8.4-1.4.4-2.4 1.3t-1.5 2.1q-.5 1.3-.5 2.8 0 1.4.4 2.5.5 1.2 1.4 2 1 .8 2.2 1.2 1.3.3 2.6.3h1.5q.8-.1 1.8-.3.2-1.1.4-2.1-1.9.5-3.3.5t-2.4-.6q-1-.5-1.4-1.5-.5-.9-.5-2 0-1 .4-1.9.3-.9 1-1.5z" style="fill:url(#g56)"/><path fill-rule="evenodd" d="M376.2 491.3q.4 1.1.4 2.5t-.4 2.7q-.5 1.2-1.4 2.1-1 1-2.4 1.4-1.3.4-2.8.4-1.5 0-2.8-.4-1.3-.4-2.3-1.2-.9-.9-1.3-2t-.4-2.4q0-1.4.5-2.7.5-1.3 1.5-2.2 1-.8 2.3-1.3 1.4-.4 2.9-.4 1.3 0 2.6.4 1.2.3 2.1 1.1 1 .9 1.5 2zm-2.3 2.6q0-.8-.2-1.7-.3-.8-.9-1.4-.5-.5-1.3-.8-.8-.3-1.6-.3-1.4 0-2.4.6T366 492q-.5 1.1-.5 2.3 0 1.2.5 2.2.5 1 1.5 1.5t2.2.5q.8 0 1.6-.3.9-.3 1.4-.9.6-.7.9-1.5.3-.9.3-1.9z" style="fill:url(#g57)"/><path d="M388.6 488v1l-.3 8.3q-1.1-1.9-2.9-4.7-1.8-2.8-2.8-4.6h-3.3q0 1.9-.1 4.2l-.2 4.4q-.1 2-.3 3.6h2.6q0-2.2.1-3.8.1-3.9.2-5.3.6 1 1.5 2.4 1.2 1.9 1.9 3.1l1.6 2.4q.2.4.7 1.2h3.3l.1-3.3.2-5.6.3-3.3h-2.6z" style="fill:url(#g58)"/><path d="M398.3 488h-5.4q0 .7-.1 2l2.1-.1H396.6l-.1 3.8-.2 3.9-.2 2.6h2.9V497.8l.2-6.3.1-1.6h.7q1.5 0 3.1.1 0-.7.1-2h-1.7z" style="fill:url(#g59)"/><path d="M413.2 488.6q-.6-.4-1.5-.5-.8-.1-1.8-.1H405q0 2.6-.1 6.1-.2 3.4-.4 6.1h2.7l.2-6.7.1-3.7h1.9q.5 0 1 .1.5 0 .8.3.3.2.5.5.1.3.1.7 0 .6-.3 1.1-.3.6-1 .8-.6.3-1.4.3-.5 0-1.1-.1.3.6.5.9l1.1 2.1q.3.8.6 1.3l1 2.4h2.9q-.3-.7-.4-.8l-.9-1.6q-.8-1.4-1.1-2l-.6-1.2q.6-.2 1-.3.4-.1.7-.3.3-.2.7-.5.3-.3.5-.7.2-.4.3-.8.2-.5.2-1 0-.8-.4-1.4-.3-.6-.9-1z" style="fill:url(#g60)"/><path fill-rule="evenodd" d="m428.5 499.2.4 1H426q-.2-.8-.7-2.1-.4-1.4-.8-2.2h-4.7q-1 2.1-2 4.3h-3q.9-1.6 2.2-4.1l2.3-4.5q1.1-2.1 1.9-3.6h3.3l1.2 3.7zm-4.4-5.3-1.4-4.1-.7 1.5-1.3 2.6z" style="fill:url(#g61)"/><path d="M434.4 491q.7-.7 1.6-1 .9-.3 1.8-.3.6 0 1.3.1.7.1 1.7.4l-.1-1v-1.1q-1.7-.3-3.2-.3-1.5 0-2.8.4-1.4.4-2.4 1.3-.9.9-1.5 2.1-.5 1.3-.5 2.8 0 1.4.4 2.5.5 1.2 1.5 2 .9.8 2.2 1.2 1.2.3 2.5.3h1.5q.8-.1 1.9-.3.1-1.1.3-2.1-1.9.5-3.2.5-1.5 0-2.5-.6-1-.5-1.4-1.5-.5-.9-.5-2 0-1 .4-1.9.4-.9 1-1.5z" style="fill:url(#g62)"/><path d="M447.6 488h-5.4v2l2-.1H446l-.1 3.8-.2 3.9-.2 2.6h2.8V497.8l.3-6.3.1-1.6h.7q1.5 0 3.1.1 0-.7.1-2h-1.7z" style="fill:url(#g63)"/><path d="M454.3 488v1q0 1.7-.1 4.9-.2 3.2-.4 6.3H456.7q.1-7.5.5-12.2h-1.4z" style="fill:url(#g64)"/><path d="M469.5 488v1l-.4 8.3q-1-1.9-2.8-4.7-1.8-2.8-2.8-4.6h-3.3q0 1.9-.2 4.2l-.2 4.4q0 2-.2 3.6h2.5q.1-2.2.1-3.8.2-3.9.2-5.3.7 1 1.5 2.4 1.2 1.9 2 3.1l1.6 2.4.6 1.2h3.3l.1-3.3.3-5.6.2-3.3h-2.5z" style="fill:url(#g65)"/><path d="M481.4 493.2q0 .7-.1 1.9 1-.1 1.6-.1l.7.1-.2 3.1q-.7.2-1.3.3-.7.1-1.1.1-1.3 0-2.3-.5-1-.5-1.5-1.4-.4-.9-.4-2.1 0-1 .4-2t1.1-1.6q.7-.7 1.7-1 .9-.3 2-.3 1.7 0 3.9.7-.1-1.1-.1-2.1-2.3-.5-4-.5-1.3 0-2.4.2-1.2.2-2.2.8-1 .6-1.7 1.5t-1 2q-.4 1.1-.4 2.2 0 1.4.5 2.6.5 1.2 1.4 1.9.9.8 2.3 1.1 1.3.3 2.9.3.8 0 2-.1t2.7-.4q.1-3.7.3-6.7-.9.1-2.4.1-1.1 0-2.4-.1z" style="fill:url(#g66)"/><path d="M497.5 491q.7-.7 1.6-1 .9-.3 1.8-.3.6 0 1.3.1.7.1 1.7.4l-.1-1v-1.1q-1.7-.3-3.2-.3-1.5 0-2.8.4-1.4.4-2.4 1.3-.9.9-1.5 2.1-.5 1.3-.5 2.8 0 1.4.4 2.5.5 1.2 1.5 2 .9.8 2.2 1.2 1.2.3 2.5.3h1.5q.8-.1 1.9-.3.1-1.1.3-2.1-1.9.5-3.2.5-1.5 0-2.5-.6-1-.5-1.4-1.5-.5-.9-.5-2 0-1 .4-1.9.4-.9 1-1.5z" style="fill:url(#g67)"/><path fill-rule="evenodd" d="M519.1 491.3q.5 1.1.5 2.5t-.5 2.7q-.4 1.2-1.4 2.1-1 1-2.3 1.4-1.4.4-2.9.4t-2.8-.4q-1.3-.4-2.2-1.2-1-.9-1.4-2-.4-1.1-.4-2.4 0-1.4.5-2.7.5-1.3 1.5-2.2 1-.8 2.3-1.3 1.4-.4 2.9-.4 1.4 0 2.6.4 1.2.3 2.2 1.1.9.9 1.4 2zm-2.3 2.6q0-.8-.2-1.7-.3-.8-.8-1.4-.6-.5-1.4-.8-.8-.3-1.6-.3-1.4 0-2.4.6t-1.5 1.7q-.5 1.1-.5 2.3 0 1.2.5 2.2.5 1 1.5 1.5t2.2.5q.9 0 1.7-.3.8-.3 1.4-.9.5-.7.8-1.5.3-.9.3-1.9z" style="fill:url(#g68)"/><path d="M531 498.3h-1.5q0-1.5.1-3l.2-3.6q.1-2.1.2-3.7h-2.8q-.1 2.9-.2 6.2-.2 3.3-.4 6h8.5q0-1 .1-1.9H531z" style="fill:url(#g69)"/><path d="M536.8 497.8q0 1.8-.1 2.4h2.5l.1-1.1q0-.6.1-1.3h-1.2z" style="fill:url(#g70)"/><path d="M546.4 498.3h-1.6l.2-3 .1-3.6q.1-2.1.3-3.7h-2.9q0 2.9-.2 6.2-.1 3.3-.4 6h8.5q.1-1 .2-1.9H546.4z" style="fill:url(#g71)"/><path d="M552.2 497.8q-.1 1.8-.1 2.4h2.5v-1.1q.1-.6.1-1.3h-1.2z" style="fill:url(#g72)"/><path d="M561.6 497.9q-.9-.5-1.4-1.5-.4-.9-.4-2 0-1 .3-1.9.4-.9 1.1-1.5.6-.7 1.5-1 .9-.3 1.9-.3.6 0 1.2.1.7.1 1.7.4v-1q-.1-.3-.1-1.1-1.7-.3-3.2-.3-1.4 0-2.8.4-1.3.4-2.3 1.3-1 .9-1.5 2.1-.6 1.3-.6 2.8 0 1.4.5 2.5.4 1.2 1.4 2 1 .8 2.2 1.2 1.2.3 2.5.3h1.5q.9-.1 1.9-.3.1-1.1.3-2.1-1.9.5-3.2.5-1.5 0-2.5-.6z" style="fill:url(#g73)"/><path d="M340 20.1c-68.3 123.6-136 246.1-203.6 368.5q.4.3.9.7c82.6-53.5 165.1-107.1 247.9-160.7-3.6-6.7-6.8-12.9-10.2-19.3-35.1 17-69.5 33.6-103.9 50.3q-.5-.5-.9-1c22.9-41.7 45.8-83.4 69.3-126.1C372.9 194.7 406 256 439.7 318.6c-3.2-.7-4.7-1-6.2-1.4-29.6-8-59.3-16-88.8-24.2-5.8-1.7-10.4-1.4-15.8 2-51.6 33.1-103.4 65.8-155.1 98.6l-53.2 33.8q.2.4.4.7c1.6-.5 3.3-.9 4.9-1.5 67.7-24.5 135.5-49.1 203.3-73.5 3.1-1.1 7.2-1.2 10.2-.2 70.7 24 141.4 48.3 212 72.5 3.4 1.2 6.8 2.2 11.5 3.7-74.6-136.9-148.5-272.5-222.9-409z" style="fill:url(#g74)"/><path d="M523.2 139.2q-.5-.7-.9-1.3c-29.7 14.3-59.3 28.7-89.4 43.3 2.5 4.2 4.7 8 7.1 11.9 28-18.2 55.6-36.1 83.2-53.9z" style="fill:url(#g75)"/></g><path fill-rule="evenodd" d="M126.1 1063.7h3.9v10.7q.2 7.1-6.7 7.1-.3 7.7-7 7.4v-3.5q2.9-.2 3-4.1v-12.2q.6-5.3 6.8-5.4zm-.3 3.7h-.9q-1.3 0-1.4 1.4v9h.9q1.5 0 1.4-1.5z" class="s0"/><path d="M137 1073.8q-1.1 0-1.7.7-.7.7-.7 1.7t.7 1.7q.6.7 1.7.7 1 0 1.7-.7t.7-1.7q0-1-.7-1.7t-1.7-.7z" class="s0"/><path fill-rule="evenodd" d="M152.9 1063.7h3.9v10.7q.2 7.1-6.7 7.1-.3 7.7-7 7.4v-3.5q2.9-.2 3-4.1v-12.2q.6-5.3 6.8-5.4zm-.3 3.7h-.9q-1.3 0-1.4 1.4v9h.9q1.4 0 1.4-1.5z" class="s0"/><path d="M163.8 1073.8q-1.1 0-1.7.7-.7.7-.7 1.7t.7 1.7q.6.7 1.7.7 1 0 1.7-.7t.7-1.7q0-1-.7-1.7t-1.7-.7zM176.6 1057.2h-3.8v3.8h3.8zM178.9 1064.5q-2.8-1.4-5.9-1.2v3.7q7.1.2 7.3 6.9v.8h-10v3.4h13.9v-3.4q.1-2.6-1-5.5-1.2-2.9-4.3-4.7zM208.8 1057.2H205v3.8h3.8zM213.4 1074.7h-16.5q-3-.7-3-4.7v-6.3h-4v8.4q.6 6.5 8.3 6h19.4v-14.4h-4.2zM203.4 1057.2h-3.8v3.8h3.8zM232.3 1074.7h-4.1v-18.2H224v18.2h-4.3v3.4h16.8V1056.5h-4.2z" class="s0"/><path fill-rule="evenodd" d="M248.6 1063.7h1.5v14.4q0 2.3-1 3.7-1.6 1.8-4.7 1.7h-5.3v-3.7h5.8q1.6-.1 1.2-1.7-4.4.2-6.5-2.8-2-3-.6-7.3 1.3-4.2 9.6-4.3zm-2.5 3.5q-4.6.2-3.9 4.8 1 3 3.9 2.7z" class="s0"/><path d="M271.1 1057.2h-3.8v3.8h3.8zM266.1 1057.2h-3.8v3.8h3.8z" class="s0"/><path fill-rule="evenodd" d="M298.4 1056.5h4.2v21.6h-17.3q-1.4 3.6-6.7 3.4h-3.5v-3.4h-23v-21.6h4.2v18.2h6q-3.2-3-2-7.1 1.6-3.9 6.9-3.9h5.5v11h2.4v-4.8q.2-6 6.8-6.2h4v11h3.7v-18.2h4.2v18.2h4.6zm-29.8 11h-.5q-3.7-.3-3.9 2.2.8 3.3 4.4 4.9zm13-.2h-.9q-1.2.1-1.4 1.5v9h1q1.4 0 1.3-1.5z" class="s0"/><path d="M317 1057.2h-3.8v3.8h3.8zM322.4 1057.2h-3.8v3.8h3.8zM330.5 1083.7h3.8v-3.7h-3.8zM325.1 1083.7h3.8v-3.7h-3.8zM358.5 1074.7h-4.4v-8.3h-4.4v8.3h-4.4v-5.6h-4.4v5.6H334.4v-11h-4.2v11h-6.9v-11.1q-3.5 0-6 1.1t-4.1 2.8q-4.1 4.6-4.3 10.6h3.9l.5-2.3q1.8-5.4 5.8-7.5v9.8h43.8v-14.4h-4.4zM393.5 1074.7H389v-8.3h-4.4v8.3h-4.4v-5.6h-4.4v5.6H368.9v-18.2h-4.2V1078.1h33.1v-14.4h-4.3zM412.4 1074.7h-4.1v-18.2h-4.2v18.2h-4.3v3.4h16.8V1056.5h-4.2zM418.6 1078.1h4.2v-21.6h-4.2zM442.5 1057.2h-3.8v3.8h3.8zM437.1 1057.2h-3.8v3.8h3.8zM445.2 1083.7h3.8v-3.7h-3.8zM450.6 1083.7h3.8v-3.7h-3.8zM462.6 1057.2h-3.7v3.8h3.7zM467.6 1083.7h3.8v-3.7h-3.8z" class="s0"/><path d="M476.3 1074.7H472v-11h-4.2v11H463v-11h-4.2v11h-4.3v-11h-4.2v11h-6.9v-11.1q-3.5 0-6 1.1t-4.1 2.8q-4.1 4.6-4.3 10.6h3.9l.5-2.3q1.8-5.4 5.8-7.5v9.8H480.5V1056.5h-4.2zM482.7 1078.1h4.2v-21.6h-4.2zM501.2 1057.2h-3.7v3.8h3.7zM506.6 1057.2h-3.8v3.8h3.8zM521.9 1065.5h-6l10.8-9h-5.8l-10.1 8.1v4.9h11.1q3.2.1 2.2 5.2h-16.5v-11.1q-3.6 0-6.1 1.1-2.4 1.1-4 2.8-4.2 4.6-4.4 10.6h4l.5-2.3q1.7-5.4 5.8-7.5v9.8h25.1v-6.7q-.3-5.6-6.6-5.9zM560.7 1063.7v11h-4.4v-8.3h-4.4v8.3h-4.4v-5.6h-4.4v5.6H536.8v-11h-4v12q0 4.1-3 4.1v3.7q5.8.2 6.8-5.4h28.5v-14.4zM555 1061h3.8v-3.8H555zM555.9 1052.8h-3.6v3.6h3.6zM553.4 1057.2h-3.8v3.8h3.8z" class="s0"/><path fill-rule="evenodd" d="m130 1108.3.4 1H127.5q-.2-.8-.7-2.2-.4-1.3-.7-2.2h-4.8l-2 4.4h-3q.9-1.7 2.2-4.1l2.3-4.5q1.1-2.1 1.9-3.6h3.3l1.3 3.6zm-4.5-5.2-1.4-4.1-.7 1.5-1.3 2.6z" class="s0"/><path d="M136.5 1107.4H135q0-1.5.1-3.1l.2-3.6q.1-2 .2-3.6H132.6q0 2.9-.1 6.2-.2 3.3-.5 6h8.6q0-1.1.1-2-.7.1-1.3.1h-2.9zM141.3 1103.6q0 1-.1 1.8H145.9q0-1 .1-1.8-1.3.1-2.4.1-1 0-2.3-.1z" class="s0"/><path fill-rule="evenodd" d="M157.4 1105.1q.1.4.1.8 0 .8-.3 1.6-.4.7-1.1 1.1-.6.4-1.4.5-.8.2-3.5.2h-3.7q.1-1.9.2-3.1 0-1.2.1-4.2.1-2.9.1-4v-.9h3.8q1.1-.1 1.8-.1 1 0 1.5.1t.9.3q.4.1.6.4.3.2.5.6.2.3.3.7.1.4.1.8 0 .5-.1.9-.2.5-.4.8-.2.4-.5.7l-.6.4q-.3.1-.7.3.4.1.6.1.3.1.6.3l.5.5q.3.2.4.5.2.3.2.7zm-7-3h2.7l.6-.2q.4-.1.6-.4l.4-.6q.1-.3.1-.7 0-.3-.2-.6-.1-.3-.3-.5-.3-.2-.6-.3h-3.2zm4.5 3.4q0-.4-.1-.7-.1-.3-.4-.6-.3-.2-.7-.3-.4-.1-1.1-.1h-2.3l-.1 3.7h2q.6 0 1-.1.3 0 .6-.2.3-.1.5-.2.2-.2.3-.4.2-.2.3-.5v-.6z" class="s0"/><path d="M165 1097.1h-4.6v1.2l-.2 3.6-.2 3.9-.2 3.5h8.9q0-.9.1-2l-1.3.1h-4.9l.2-3.3q1.6-.1 2.6-.1.4 0 2.7.1.1-1.2.2-2-2.1.1-2.9.1-1.3 0-2.5-.1l.1-3.1q.9-.1 1.3-.1h3q.7 0 1 .1h.9l.1-1.9h-2.6zM181.3 1097.1v1l-.4 8.3q-1.1-1.9-2.8-4.7-1.8-2.9-2.8-4.6H171.9q0 1.8-.1 4.2l-.2 4.4q-.1 2-.2 3.6h2.5q0-2.2.1-3.8.2-3.9.2-5.4.6 1.1 1.5 2.4 1.2 1.9 2 3.2 1.2 1.8 1.5 2.4.3.4.7 1.2h3.3l.1-3.3.3-5.7.2-3.2h-2.5zM195.1 1097.1h-1.6l-.3.6-2.7 4.3-1.3-2.6q-.8-1.4-1.2-2.3h-3l4 7q0 1-.1 2.6t-.2 2.6h2.7q.1-1.7.1-2.7l.1-2.3 4.9-7.2h-1.4z" class="s0"/><path fill-rule="evenodd" d="m209.4 1108.3.4 1H206.9q-.2-.8-.7-2.2-.4-1.3-.8-2.2h-4.7l-2 4.4h-3q.9-1.7 2.2-4.1l2.3-4.5q1.1-2.1 1.8-3.6h3.4l1.2 3.6zm-4.4-5.2-1.4-4.1-.8 1.5-1.3 2.6z" class="s0"/><path d="M220.8 1097.1v2.5l-.1 2.4h-6.1v-.9l.3-4H212V1101.2q-.1 2.2-.3 4.9l-.2 3.2h2.8l.1-2.1.1-3.2h6.1q-.1 2.7-.3 5.3h2.9v-3.7l.2-3.7.3-4.8h-1.4z" class="s0"/><path fill-rule="evenodd" d="m243.2 1108.3.4 1h-2.9q-.3-.8-.7-2.2-.5-1.3-.8-2.2h-4.7q-1.1 2.2-2.1 4.4h-3q1-1.7 2.2-4.1l2.4-4.5q1.1-2.1 1.8-3.6h3.3l1.3 3.6zm-4.5-5.2-1.4-4.1-.7 1.5-1.3 2.6z" class="s0"/><path d="M249.7 1107.4h-1.6q.1-1.5.1-3.1l.2-3.6q.1-2 .2-3.6h-2.8q0 2.9-.2 6.2-.2 3.3-.4 6h8.5q.1-1.1.1-2-.6.1-1.3.1h-2.8zM259.1 1103.6q-1.3.1-2.3.1-1 0-2.3-.1 0 1-.1 1.8h4.6q0-1 .1-1.8z" class="s0"/><path fill-rule="evenodd" d="m272.7 1108.3.4 1h-2.9q-.2-.8-.7-2.2-.5-1.3-.8-2.2H264l-2 4.4h-3q.9-1.7 2.1-4.1l2.4-4.5q1.1-2.1 1.8-3.6h3.3l1.3 3.6zm-4.5-5.2-1.4-4.1-.7 1.5-1.3 2.6z" class="s0"/><path d="M281.9 1105q-.1-.2-.3-.5-.3-.4-.6-.7l-.7-.7-1.1-1q-.3-.2-.7-.5-.4-.3-.6-.5-.2-.3-.3-.4 0-.2-.1-.3v-.3q0-.5.5-.9.6-.4 1.5-.4 1.1 0 2.5.5-.1-1.2-.1-2.1-1.6-.4-2.9-.4-1.4 0-2.4.5-.9.4-1.4 1.1-.5.8-.5 1.6 0 .5.2.9.1.4.4.8.3.4.8.9.2.2.9.8 1.3 1.1 1.8 1.6.4.3.6.7.1.2.1.5 0 .4-.3.7-.2.3-.7.5-.5.2-1.1.2-1.4 0-3.1-.8.1.9.1 2.2 1.3.3 2 .4.8.1 1.4.1.8 0 1.6-.2.8-.1 1.5-.6.6-.4 1-1.1.3-.6.3-1.4 0-.3-.1-.6 0-.3-.2-.6z" class="s0"/><path fill-rule="evenodd" d="m296.7 1108.3.3 1H294.1q-.2-.8-.6-2.2-.5-1.3-.8-2.2H288q-1.1 2.2-2.1 4.4h-3q.9-1.7 2.2-4.1l2.4-4.5q1.1-2.1 1.8-3.6h3.3l1.3 3.6zm-4.5-5.2-1.4-4.1-.7 1.5-1.3 2.6z" class="s0"/><path d="M305.9 1105q-.1-.2-.4-.5-.2-.4-.5-.7-.4-.3-.8-.7l-1.1-1q-.3-.2-.6-.5-.4-.3-.6-.5-.2-.3-.3-.4-.1-.2-.1-.3-.1-.2-.1-.3 0-.5.6-.9t1.4-.4q1.2 0 2.6.5-.1-1.2-.2-2.1-1.6-.4-2.9-.4-1.4 0-2.3.5-1 .4-1.4 1.1-.5.8-.5 1.6 0 .5.1.9l.4.8q.3.4.9.9l.8.8q1.3 1.1 1.9 1.6.4.3.5.7.1.2.1.5 0 .4-.2.7-.2.3-.7.5-.5.2-1.1.2-1.4 0-3.2-.8.1.9.2 2.2 1.2.3 2 .4.8.1 1.3.1.9 0 1.7-.2.8-.1 1.4-.6.7-.4 1-1.1.4-.6.4-1.4 0-.3-.1-.6l-.2-.6zM313.7 1097.1h-4.6v1.2l-.2 3.6-.2 3.9-.2 3.5h8.9q0-.9.1-2l-1.3.1h-4.9l.2-3.3q1.6-.1 2.6-.1.4 0 2.7.1.1-1.2.2-2-2.1.1-2.9.1-1.3 0-2.5-.1l.1-3.1q.9-.1 1.3-.1h3q.7 0 1 .1h.9l.1-1.9h-2.6zM327.4 1097.1l-.3.6-2.7 4.3-1.3-2.6q-.8-1.4-1.2-2.3h-3l4 7q0 1-.1 2.6t-.2 2.6h2.8v-2.7l.1-2.3 4.9-7.2h-3zM340.6 1097.1v.9q0 .4-.1 1.6l-.1 2.4h-6.1v-.9l.3-4h-2.9V1101.2q-.1 2.2-.3 4.9l-.2 3.2h2.9v-2.1l.1-3.2h6.1q0 2.7-.3 5.3h2.9v-1.6l.1-2.1.1-3.7.3-4.8H342zM354.6 1100q.7-.6 1.6-.9.9-.3 1.8-.3.6 0 1.3.1.7.1 1.7.4l-.1-1v-1.1q-1.8-.4-3.2-.4-1.5 0-2.8.5-1.4.4-2.4 1.3-1 .8-1.5 2.1t-.5 2.7q0 1.4.4 2.6.5 1.1 1.4 1.9 1 .8 2.2 1.2 1.3.4 2.6.4.6 0 1.5-.1.8-.1 1.8-.2l.4-2.2q-1.9.6-3.3.6t-2.4-.6q-1-.6-1.4-1.5-.5-.9-.5-2.1 0-.9.4-1.8.3-.9 1-1.6z" class="s0"/><path fill-rule="evenodd" d="M376.2 1100.3q.4 1.1.4 2.6 0 1.4-.4 2.6-.5 1.3-1.4 2.2-1 .9-2.4 1.4-1.3.4-2.8.4-1.5 0-2.8-.4-1.3-.4-2.3-1.3-.9-.8-1.3-1.9-.4-1.2-.4-2.5 0-1.4.5-2.7.5-1.3 1.5-2.1 1-.9 2.3-1.3 1.4-.5 2.9-.5 1.3 0 2.6.4 1.2.4 2.1 1.2 1 .8 1.5 1.9zm-2.3 2.7q0-.9-.2-1.7-.3-.8-.9-1.4-.5-.6-1.3-.9-.8-.2-1.6-.2-1.4 0-2.4.6t-1.5 1.7q-.5 1.1-.5 2.3 0 1.2.5 2.2.5.9 1.5 1.4 1 .6 2.2.6.8 0 1.6-.3.9-.3 1.4-1 .6-.6.9-1.5.3-.8.3-1.8z" class="s0"/><path d="M388.6 1097.1v1l-.3 8.3q-1.1-1.9-2.9-4.7-1.8-2.9-2.8-4.6h-3.3q0 1.8-.1 4.2l-.2 4.4q-.1 2-.3 3.6h2.6q0-2.2.1-3.8.1-3.9.2-5.4.6 1.1 1.5 2.4 1.2 1.9 1.9 3.2l1.6 2.4q.2.4.7 1.2h3.3l.1-3.3.2-5.7.3-3.2h-2.6zM398.3 1097.1h-5.4q0 .6-.1 1.9h2.6l.6-.1h.6l-.1 3.9-.2 3.9-.2 2.6h2.9v-2.4l.2-6.3.1-1.7h.7q1.5 0 3.1.1 0-.7.1-1.9h-1.7zM413.2 1097.7q-.6-.4-1.5-.6-.8-.1-1.8-.1-.8 0-1.6.1H405q0 2.6-.1 6-.2 3.5-.4 6.2h2.7l.2-6.7.1-3.7h2.9q.5.1.8.3.3.2.5.6.1.3.1.7 0 .6-.3 1.1-.3.5-1 .8-.6.2-1.4.2-.5 0-1.1-.1.3.6.5.9l1.1 2.2q.3.8.6 1.3l1 2.4h2.9q-.3-.7-.4-.8l-.9-1.6q-.8-1.5-1.1-2l-.6-1.2q.6-.2 1-.3.4-.2.7-.3.3-.2.7-.5.3-.3.5-.7.2-.4.3-.9.2-.4.2-.9 0-.8-.4-1.4-.3-.6-.9-1z" class="s0"/><path fill-rule="evenodd" d="m428.5 1108.3.4 1H426q-.2-.8-.7-2.2-.4-1.3-.8-2.2h-4.7l-2 4.4h-3q.9-1.7 2.2-4.1l2.3-4.5q1.1-2.1 1.9-3.6h3.3l1.2 3.6zm-4.4-5.2-1.4-4.1-.7 1.5-1.3 2.6z" class="s0"/><path d="M434.4 1100q.7-.6 1.6-.9.9-.3 1.8-.3.6 0 1.3.1.7.1 1.7.4l-.1-1v-1.1q-1.7-.4-3.2-.4-1.5 0-2.8.5-1.4.4-2.4 1.3-.9.8-1.5 2.1-.5 1.3-.5 2.7 0 1.4.4 2.6.5 1.1 1.5 1.9.9.8 2.2 1.2 1.2.4 2.5.4.6 0 1.5-.1.8-.1 1.9-.2.1-1.1.3-2.2-1.9.6-3.2.6-1.5 0-2.5-.6t-1.4-1.5q-.5-.9-.5-2.1 0-.9.4-1.8t1-1.6zM447.6 1097.1h-5.4v1.9h2.6l.6-.1h.6l-.1 3.9-.2 3.9-.2 2.6h2.8v-2.4l.3-6.3.1-1.7h.7q1.5 0 3.1.1 0-.7.1-1.9h-1.7zM454.3 1097.1v.9q0 1.7-.1 5-.2 3.2-.4 6.3H456.7q.1-7.5.5-12.2h-1.4zM469.5 1097.1v1l-.4 8.3q-1-1.9-2.8-4.7-1.8-2.9-2.8-4.6h-3.3q0 1.8-.2 4.2l-.2 4.4q0 2-.2 3.6h2.5q.1-2.2.1-3.8.2-3.9.2-5.4.7 1.1 1.5 2.4 1.2 1.9 2 3.2l1.6 2.4.6 1.2h3.3l.1-3.3.3-5.7.2-3.2h-2.5zM481.4 1102.3q0 .6-.1 1.8h2.3l-.2 3.2q-.7.2-1.3.2-.7.1-1.1.1-1.3 0-2.3-.5-1-.5-1.5-1.4-.4-.9-.4-2t.4-2.1q.4-.9 1.1-1.6.7-.6 1.7-.9.9-.4 2-.4 1.7 0 3.9.7-.1-1.1-.1-2.1-2.3-.5-4-.5-1.3 0-2.4.3-1.2.2-2.2.8-1 .6-1.7 1.5t-1 1.9q-.4 1.1-.4 2.3 0 1.3.5 2.5t1.4 2q.9.7 2.3 1.1 1.3.3 2.9.3.8 0 2-.1 1.2-.2 2.7-.4.1-3.7.3-6.7h-4.8zM497.5 1100q.7-.6 1.6-.9.9-.3 1.8-.3.6 0 1.3.1.7.1 1.7.4l-.1-1v-1.1q-1.7-.4-3.2-.4-1.5 0-2.8.5-1.4.4-2.4 1.3-.9.8-1.5 2.1-.5 1.3-.5 2.7 0 1.4.4 2.6.5 1.1 1.5 1.9.9.8 2.2 1.2 1.2.4 2.5.4.6 0 1.5-.1.8-.1 1.9-.2.1-1.1.3-2.2-1.9.6-3.2.6-1.5 0-2.5-.6t-1.4-1.5q-.5-.9-.5-2.1 0-.9.4-1.8t1-1.6z" class="s0"/><path fill-rule="evenodd" d="M519.1 1100.3q.5 1.1.5 2.6 0 1.4-.5 2.6-.4 1.3-1.4 2.2-1 .9-2.3 1.4-1.4.4-2.9.4t-2.8-.4q-1.3-.4-2.2-1.3-1-.8-1.4-1.9-.4-1.2-.4-2.5 0-1.4.5-2.7.5-1.3 1.5-2.1 1-.9 2.3-1.3 1.4-.5 2.9-.5 1.4 0 2.6.4 1.2.4 2.2 1.2.9.8 1.4 1.9zm-2.3 2.7q0-.9-.2-1.7-.3-.8-.8-1.4-.6-.6-1.4-.9-.8-.2-1.6-.2-1.4 0-2.4.6t-1.5 1.7q-.5 1.1-.5 2.3 0 1.2.5 2.2.5.9 1.5 1.4 1 .6 2.2.6.9 0 1.7-.3.8-.3 1.4-1 .5-.6.8-1.5.3-.8.3-1.8z" class="s0"/><path d="M531 1107.4h-1.5q0-1.5.1-3.1l.2-3.6q.1-2 .2-3.6h-2.8q-.1 2.9-.2 6.2-.2 3.3-.4 6h8.5q0-1.1.1-2-.6.1-1.3.1H531zM536.8 1106.9q0 1.7-.1 2.4h2.5l.1-1.1q0-.7.1-1.3h-1.2zM546.4 1107.4h-1.6q.1-1.5.2-3.1l.1-3.6q.1-2 .3-3.6h-2.9q0 2.9-.2 6.2-.1 3.3-.4 6h8.5q.1-1.1.2-2-.7.1-1.4.1h-2.8zM552.2 1106.9q-.1 1.7-.1 2.4h2.5v-1.1q.1-.7.1-1.3h-1.2zM561.6 1107q-.9-.6-1.4-1.5-.4-.9-.4-2.1 0-.9.3-1.8.4-.9 1.1-1.6.6-.6 1.5-.9.9-.3 1.9-.3.6 0 1.2.1.7.1 1.7.4v-1q-.1-.3-.1-1.1-1.7-.4-3.2-.4-1.4 0-2.8.5-1.3.4-2.3 1.3-1 .8-1.5 2.1-.6 1.3-.6 2.7 0 1.4.5 2.6.4 1.1 1.4 1.9 1 .8 2.2 1.2 1.2.4 2.5.4.7 0 1.5-.1.9-.1 1.9-.2.1-1.1.3-2.2-1.9.6-3.2.6-1.5 0-2.5-.6zM340 629.1c-68.3 123.7-136 246.1-203.6 368.5q.4.4.9.7c82.6-53.5 165.1-107 247.9-160.6-3.6-6.8-6.8-12.9-10.2-19.4-35.1 17-69.5 33.7-103.9 50.4q-.5-.5-.9-1c22.9-41.7 45.8-83.5 69.3-126.2 33.4 62.2 66.5 123.6 100.2 186.2-3.2-.7-4.7-1-6.2-1.4-29.6-8-59.3-16-88.8-24.3-5.8-1.6-10.4-1.3-15.8 2.1-51.6 33-103.4 65.8-155.1 98.6l-53.2 33.8q.2.3.4.7c1.6-.5 3.3-.9 4.9-1.5 67.7-24.6 135.5-49.2 203.3-73.6 3.1-1.1 7.2-1.2 10.2-.1 70.7 24 141.4 48.3 212 72.5 3.4 1.1 6.8 2.1 11.5 3.7C488.3 901.3 414.4 765.7 340 629.1zM523.2 748.2q-.5-.6-.9-1.3c-29.7 14.4-59.3 28.8-89.4 43.4 2.5 4.2 4.7 7.9 7.1 11.9 28-18.3 55.6-36.1 83.2-54z" class="s0"/><path fill-rule="evenodd" d="M126.1 1684.8h3.9v10.7q.2 7.1-6.7 7.1-.3 7.7-7 7.4v-3.5q2.9-.2 3-4.1v-12.2q.6-5.3 6.8-5.4zm-.3 3.6h-.9q-1.3.1-1.4 1.4v9.1h.9q1.5-.1 1.4-1.5z" class="s76"/><path d="M137 1694.9q-1.1 0-1.7.7-.7.7-.7 1.7t.7 1.7q.6.7 1.7.7 1 0 1.7-.7t.7-1.7q0-1-.7-1.7t-1.7-.7z" class="s76"/><path fill-rule="evenodd" d="M152.9 1684.8h3.9v10.7q.2 7.1-6.7 7.1-.3 7.7-7 7.4v-3.5q2.9-.2 3-4.1v-12.2q.6-5.3 6.8-5.4zm-.3 3.6h-.9q-1.3.1-1.4 1.4v9.1h.9q1.4-.1 1.4-1.5z" class="s76"/><path d="M163.8 1694.9q-1.1 0-1.7.7-.7.7-.7 1.7t.7 1.7q.6.7 1.7.7 1 0 1.7-.7t.7-1.7q0-1-.7-1.7t-1.7-.7zM176.6 1678.3h-3.8v3.8h3.8zM178.9 1685.5q-2.8-1.3-5.9-1.2v3.7q7.1.3 7.3 7v.7h-10v3.4h13.9v-3.4q.1-2.6-1-5.4-1.2-2.9-4.3-4.8zM208.8 1678.3H205v3.8h3.8zM213.4 1695.7h-16.5q-3-.6-3-4.7v-6.2h-4v8.4q.6 6.4 8.3 5.9h19.4v-14.3h-4.2zM203.4 1678.3h-3.8v3.8h3.8zM232.3 1695.7h-4.1v-18.1H224v18.1h-4.3v3.4h16.8v-21.5h-4.2z" class="s76"/><path fill-rule="evenodd" d="M248.6 1684.8h1.5v14.3q0 2.3-1 3.8-1.6 1.8-4.7 1.6h-5.3v-3.6h5.8q1.6-.2 1.2-1.8-4.4.3-6.5-2.7-2-3-.6-7.3 1.3-4.3 9.6-4.3zm-2.5 3.5q-4.6.2-3.9 4.8 1 3 3.9 2.6z" class="s76"/><path d="M271.1 1678.3h-3.8v3.8h3.8zM266.1 1678.3h-3.8v3.8h3.8z" class="s76"/><path fill-rule="evenodd" d="M298.4 1677.6h4.2v21.5h-17.3q-1.4 3.7-6.7 3.5h-3.5v-3.5h-23v-21.5h4.2v18.1h6q-3.2-2.9-2-7 1.6-4 6.9-3.9h5.5v10.9h2.4v-4.7q.2-6.1 6.8-6.2h4v10.9h3.7v-18.1h4.2v18.1h4.6zm-29.8 11.1h-.5q-3.7-.3-3.9 2.2.8 3.2 4.4 4.9zm13-.2h-.9q-1.2.1-1.4 1.4v9.1h1q1.4-.1 1.3-1.5z" class="s76"/><path d="M317 1678.3h-3.8v3.8h3.8zM322.4 1678.3h-3.8v3.8h3.8zM330.5 1704.8h3.8v-3.8h-3.8zM325.1 1704.8h3.8v-3.8h-3.8zM358.5 1695.7h-4.4v-8.3h-4.4v8.3h-4.4v-5.6h-4.4v5.6H334.4v-10.9h-4.2v10.9h-6.9v-11q-3.5 0-6 1-2.5 1.1-4.1 2.9-4.1 4.5-4.3 10.5h3.9l.5-2.3q1.8-5.4 5.8-7.4v9.7h43.8v-14.3h-4.4zM393.5 1695.7H389v-8.3h-4.4v8.3h-4.4v-5.6h-4.4v5.6H368.9v-18.1h-4.2v21.5h33.1v-14.3h-4.3zM412.4 1695.7h-4.1v-18.1h-4.2v18.1h-4.3v3.4h16.8v-21.5h-4.2zM418.6 1699.1h4.2v-21.5h-4.2zM442.5 1678.3h-3.8v3.8h3.8zM437.1 1678.3h-3.8v3.8h3.8zM445.2 1704.8h3.8v-3.8h-3.8zM450.6 1704.8h3.8v-3.8h-3.8zM462.6 1678.3h-3.7v3.8h3.7zM467.6 1704.8h3.8v-3.8h-3.8z" class="s76"/><path d="M476.3 1695.7H472v-10.9h-4.2v10.9H463v-10.9h-4.2v10.9h-4.3v-10.9h-4.2v10.9h-6.9v-11q-3.5 0-6 1-2.5 1.1-4.1 2.9-4.1 4.5-4.3 10.5h3.9l.5-2.3q1.8-5.4 5.8-7.4v9.7H480.5v-21.5h-4.2zM482.7 1699.1h4.2v-21.5h-4.2zM501.2 1678.3h-3.7v3.8h3.7zM506.6 1678.3h-3.8v3.8h3.8zM521.9 1686.5h-6l10.8-8.9h-5.8l-10.1 8.1v4.9h11.1q3.2.1 2.2 5.1h-16.5v-11q-3.6 0-6.1 1-2.4 1.1-4 2.9-4.2 4.5-4.4 10.5h4l.5-2.3q1.7-5.4 5.8-7.4v9.7h25.1v-6.6q-.3-5.6-6.6-6zM560.7 1684.8v10.9h-4.4v-8.3h-4.4v8.3h-4.4v-5.6h-4.4v5.6H536.8v-10.9h-4v11.9q0 4.1-3 4.2v3.6q5.8.3 6.8-5.4h28.5v-14.3zM555 1682.1h3.8v-3.8H555zM555.9 1673.9h-3.6v3.6h3.6zM553.4 1678.3h-3.8v3.8h3.8z" class="s76"/><path fill-rule="evenodd" d="m130 1729.4.4.9H127.5q-.2-.8-.7-2.1-.4-1.4-.7-2.2h-4.8q-1 2.1-2 4.3h-3q.9-1.6 2.2-4l2.3-4.6q1.1-2 1.9-3.6h3.3l1.3 3.7zm-4.5-5.2-1.4-4.2-.7 1.5-1.3 2.7z" class="s76"/><path d="m136.5 1728.5-1.5-.1q0-1.5.1-3l.2-3.6q.1-2.1.2-3.7H132.6q0 2.9-.1 6.2-.2 3.3-.5 6h8.6q0-1 .1-1.9h-1.3q-.7.1-2.9.1zM141.3 1724.7q0 .9-.1 1.8H145.9q0-1 .1-1.8H141.3z" class="s76"/><path fill-rule="evenodd" d="M157.4 1726.2q.1.3.1.7 0 .9-.3 1.6-.4.7-1.1 1.1-.6.5-1.4.6-.8.1-3.5.1h-3.7q.1-1.9.2-3.1 0-1.2.1-4.1.1-2.9.1-4v-1h5.6q1 0 1.5.1t.9.2q.4.2.6.4.3.3.5.6.2.4.3.8.1.3.1.7 0 .5-.1 1l-.4.8q-.2.4-.5.6-.3.3-.6.4-.3.2-.7.3.4.1.6.2.3.1.6.3.2.1.5.4.3.3.4.6.2.3.2.7zm-7-3h1.4q.9 0 1.3-.1.3 0 .6-.1.4-.2.6-.4l.4-.6q.1-.4.1-.7 0-.3-.2-.6-.1-.3-.3-.5-.3-.2-.6-.3-.4-.1-1.1-.1h-2.1zm4.5 3.5q0-.4-.1-.8-.1-.3-.4-.5-.3-.2-.7-.3-.4-.1-1.1-.1h-2.3l-.1 3.6h3l.6-.2q.3-.1.5-.3.2-.1.3-.3.2-.3.3-.5v-.6z" class="s76"/><path d="M165 1718.1h-4.6v1.2l-.2 3.6-.2 4-.2 3.4h8.9q0-.9.1-1.9h-1.3l-1.9.1h-3l.2-3.4H168.1q.1-1.1.2-1.9h-5.4l.1-3.2h5.3l.9.1.1-2h-2.6zM181.3 1718.1v1l-.4 8.3q-1.1-1.8-2.8-4.7-1.8-2.8-2.8-4.6H171.9q0 1.9-.1 4.3l-.2 4.3q-.1 2-.2 3.6h2.5q0-2.1.1-3.7.2-4 .2-5.4.6 1 1.5 2.4 1.2 1.9 2 3.1 1.2 1.9 1.5 2.5.3.3.7 1.1h3.3l.1-3.3.3-5.6.2-3.3h-2.5zM195.1 1718.1h-1.6q-.2.5-.3.7l-2.7 4.3-1.3-2.6q-.8-1.4-1.2-2.4h-3l4 7.1q0 .9-.1 2.5t-.2 2.6h2.7q.1-1.7.1-2.7l.1-2.2 4.9-7.3h-1.4z" class="s76"/><path fill-rule="evenodd" d="m209.4 1729.4.4.9H206.9q-.2-.8-.7-2.1-.4-1.4-.8-2.2h-4.7q-1 2.1-2 4.3h-3q.9-1.6 2.2-4l2.3-4.6q1.1-2 1.8-3.6h3.4l1.2 3.7zm-4.4-5.2-1.4-4.2-.8 1.5-1.3 2.7z" class="s76"/><path d="M220.8 1718.1v2.6l-.1 2.4h-6.1v-.9l.3-4.1H212v4.1q-.1 2.3-.3 4.9l-.2 3.2h2.8l.1-2 .1-3.3h6.1q-.1 2.8-.3 5.3h2.9v-3.7l.2-3.6.3-4.9h-1.4z" class="s76"/><path fill-rule="evenodd" d="m243.2 1729.4.4.9h-2.9q-.3-.8-.7-2.1-.5-1.4-.8-2.2h-4.7q-1.1 2.1-2.1 4.3h-3q1-1.6 2.2-4l2.4-4.6q1.1-2 1.8-3.6h3.3l1.3 3.7zm-4.5-5.2-1.4-4.2-.7 1.5-1.3 2.7z" class="s76"/><path d="m249.7 1728.5-1.6-.1q.1-1.5.1-3l.2-3.6q.1-2.1.2-3.7h-2.8q0 2.9-.2 6.2-.2 3.3-.4 6h8.5q.1-1 .1-1.9h-1.3q-.7.1-2.8.1zM259.1 1724.7h-4.6q0 .9-.1 1.8h4.6q0-1 .1-1.8z" class="s76"/><path fill-rule="evenodd" d="m272.7 1729.4.4.9h-2.9q-.2-.8-.7-2.1-.5-1.4-.8-2.2H264q-1 2.1-2 4.3h-3q.9-1.6 2.1-4l2.4-4.6q1.1-2 1.8-3.6h3.3l1.3 3.7zm-4.5-5.2-1.4-4.2-.7 1.5-1.3 2.7z" class="s76"/><path d="M281.9 1726.1q-.1-.3-.3-.6l-.6-.6-.7-.7-1.1-1q-.3-.2-.7-.5-.4-.3-.6-.6-.2-.2-.3-.4 0-.1-.1-.3v-.3q0-.5.5-.9.6-.4 1.5-.4 1.1 0 2.5.6-.1-1.2-.1-2.2-1.6-.3-2.9-.3-1.4 0-2.4.4-.9.4-1.4 1.2-.5.7-.5 1.6 0 .4.2.8.1.4.4.8.3.4.8.9.2.3.9.8 1.3 1.2 1.8 1.6.4.4.6.7.1.3.1.6 0 .4-.3.7-.2.3-.7.5-.5.2-1.1.2-1.4 0-3.1-.8.1.8.1 2.2 1.3.3 2 .4.8.1 1.4.1.8 0 1.6-.2t1.5-.6q.6-.4 1-1.1.3-.7.3-1.4 0-.3-.1-.6 0-.3-.2-.6z" class="s76"/><path fill-rule="evenodd" d="m296.7 1729.4.3.9H294.1q-.2-.8-.6-2.1-.5-1.4-.8-2.2H288q-1.1 2.1-2.1 4.3h-3q.9-1.6 2.2-4l2.4-4.6q1.1-2 1.8-3.6h3.3l1.3 3.7zm-4.5-5.2-1.4-4.2-.7 1.5-1.3 2.7z" class="s76"/><path d="M305.9 1726.1q-.1-.3-.4-.6-.2-.3-.5-.6-.4-.3-.8-.7l-1.1-1q-.3-.2-.6-.5-.4-.3-.6-.6-.2-.2-.3-.4-.1-.1-.1-.3-.1-.1-.1-.3 0-.5.6-.9t1.4-.4q1.2 0 2.6.6-.1-1.2-.2-2.2-1.6-.3-2.9-.3-1.4 0-2.3.4-1 .4-1.4 1.2-.5.7-.5 1.6 0 .4.1.8l.4.8q.3.4.9.9.2.3.8.8 1.3 1.2 1.9 1.6.4.4.5.7.1.3.1.6 0 .4-.2.7-.2.3-.7.5-.5.2-1.1.2-1.4 0-3.2-.8.1.8.2 2.2 1.2.3 2 .4.8.1 1.3.1.9 0 1.7-.2.8-.2 1.4-.6.7-.4 1-1.1.4-.7.4-1.4 0-.3-.1-.6l-.2-.6zM313.7 1718.1h-4.6v1.2l-.2 3.6-.2 4-.2 3.4h8.9q0-.9.1-1.9h-1.3l-1.9.1h-3l.2-3.4H316.8q.1-1.1.2-1.9h-5.4l.1-3.2h5.3l.9.1.1-2h-2.6zM327.4 1718.1q-.2.5-.3.7l-2.7 4.3-1.3-2.6q-.8-1.4-1.2-2.4h-3l4 7.1q0 .9-.1 2.5t-.2 2.6h2.8v-2.7l.1-2.2 4.9-7.3h-3zM340.6 1718.1v.9q0 .4-.1 1.7l-.1 2.4h-6.1v-.9l.3-4.1h-2.9v4.1q-.1 2.3-.3 4.9l-.2 3.2h2.9v-2l.1-3.3h6.1q0 2.8-.3 5.3h2.9v-1.6l.1-2.1.1-3.6.3-4.9H342zM354.6 1721.1q.7-.7 1.6-.9.9-.3 1.8-.3.6 0 1.3.1.7.1 1.7.3l-.1-.9v-1.2q-1.8-.3-3.2-.3-1.5 0-2.8.4-1.4.5-2.4 1.3-1 .9-1.5 2.2-.5 1.2-.5 2.7 0 1.4.4 2.5.5 1.2 1.4 2 1 .8 2.2 1.2 1.3.4 2.6.4.6 0 1.5-.1.8-.1 1.8-.3.2-1.1.4-2.1-1.9.5-3.3.5t-2.4-.5q-1-.6-1.4-1.5-.5-.9-.5-2.1 0-1 .4-1.9.3-.9 1-1.5z" class="s76"/><path fill-rule="evenodd" d="M376.2 1721.4q.4 1.1.4 2.6 0 1.3-.4 2.6-.5 1.3-1.4 2.2-1 .9-2.4 1.3-1.3.5-2.8.5-1.5 0-2.8-.4-1.3-.5-2.3-1.3-.9-.9-1.3-2t-.4-2.4q0-1.4.5-2.7.5-1.3 1.5-2.2 1-.8 2.3-1.3 1.4-.4 2.9-.4 1.3 0 2.6.4 1.2.3 2.1 1.2 1 .8 1.5 1.9zm-2.3 2.7q0-.9-.2-1.7-.3-.8-.9-1.4-.5-.6-1.3-.9-.8-.3-1.6-.3-1.4 0-2.4.6-1 .7-1.5 1.7-.5 1.1-.5 2.4 0 1.1.5 2.1t1.5 1.5q1 .5 2.2.5.8 0 1.6-.3.9-.3 1.4-.9.6-.6.9-1.5.3-.9.3-1.8z" class="s76"/><path d="M388.6 1718.1v1l-.3 8.3q-1.1-1.8-2.9-4.7-1.8-2.8-2.8-4.6h-3.3q0 1.9-.1 4.3l-.2 4.3q-.1 2-.3 3.6h2.6q0-2.1.1-3.7.1-4 .2-5.4.6 1 1.5 2.4 1.2 1.9 1.9 3.1 1.2 1.9 1.6 2.5.2.3.7 1.1h3.3l.1-3.3.2-5.6.3-3.3h-2.6zM398.3 1718.1h-5.4q0 .7-.1 2l2.1-.1H396.6l-.1 3.8-.2 3.9-.2 2.6h2.9V1727.9l.2-6.3.1-1.6h.7q1.5 0 3.1.1 0-.7.1-2h-1.7zM413.2 1718.7q-.6-.4-1.5-.5-.8-.1-1.8-.1H405q0 2.6-.1 6.1-.2 3.5-.4 6.1h2.7l.2-6.7.1-3.6q.7 0 1.2-.1h.7q.5 0 1 .1t.8.3q.3.2.5.5.1.4.1.7 0 .6-.3 1.2-.3.5-1 .7-.6.3-1.4.3-.5 0-1.1-.1.3.6.5.9l1.1 2.2q.3.7.6 1.3l1 2.3h2.9q-.3-.7-.4-.8l-.9-1.6q-.8-1.4-1.1-2l-.6-1.2q.6-.1 1-.3.4-.1.7-.3.3-.1.7-.4.3-.3.5-.7.2-.4.3-.9.2-.4.2-.9 0-.8-.4-1.4-.3-.6-.9-1.1z" class="s76"/><path fill-rule="evenodd" d="m428.5 1729.4.4.9H426q-.2-.8-.7-2.1-.4-1.4-.8-2.2h-4.7q-1 2.1-2 4.3h-3q.9-1.6 2.2-4l2.3-4.6q1.1-2 1.9-3.6h3.3l1.2 3.7zm-4.4-5.2-1.4-4.2-.7 1.5-1.3 2.7z" class="s76"/><path d="M434.4 1721.1q.7-.7 1.6-.9.9-.3 1.8-.3.6 0 1.3.1.7.1 1.7.3l-.1-.9v-1.2q-1.7-.3-3.2-.3-1.5 0-2.8.4-1.4.5-2.4 1.3-.9.9-1.5 2.2-.5 1.2-.5 2.7 0 1.4.4 2.5.5 1.2 1.5 2 .9.8 2.2 1.2 1.2.4 2.5.4.6 0 1.5-.1.8-.1 1.9-.3.1-1.1.3-2.1-1.9.5-3.2.5-1.5 0-2.5-.5-1-.6-1.4-1.5-.5-.9-.5-2.1 0-1 .4-1.9.4-.9 1-1.5zM447.6 1718.1h-5.4v2l2-.1H446l-.1 3.8-.2 3.9-.2 2.6h2.8V1727.9l.3-6.3.1-1.6h.7q1.5 0 3.1.1 0-.7.1-2h-1.7zM454.3 1718.1v1q0 1.7-.1 4.9-.2 3.3-.4 6.3H456.7q.1-7.5.5-12.2h-1.4zM469.5 1718.1v1l-.4 8.3q-1-1.8-2.8-4.7-1.8-2.8-2.8-4.6h-3.3q0 1.9-.2 4.3l-.2 4.3q0 2-.2 3.6h2.5q.1-2.1.1-3.7.2-4 .2-5.4.7 1 1.5 2.4 1.2 1.9 2 3.1 1.2 1.9 1.6 2.5.2.3.6 1.1h3.3l.1-3.3.3-5.6.2-3.3h-2.5zM481.4 1723.4q0 .6-.1 1.8h2.3l-.2 3.1q-.7.2-1.3.3-.7.1-1.1.1-1.3 0-2.3-.5-1-.5-1.5-1.4-.4-.9-.4-2.1 0-1 .4-2t1.1-1.6q.7-.7 1.7-1 .9-.3 2-.3 1.7 0 3.9.7-.1-1.1-.1-2.1-2.3-.5-4-.5-1.3 0-2.4.2-1.2.2-2.2.8-1 .6-1.7 1.5t-1 2q-.4 1.1-.4 2.2 0 1.4.5 2.6.5 1.2 1.4 1.9.9.8 2.3 1.1 1.3.4 2.9.4.8 0 2-.2 1.2-.1 2.7-.4.1-3.6.3-6.6h-4.8zM497.5 1721.1q.7-.7 1.6-.9.9-.3 1.8-.3.6 0 1.3.1.7.1 1.7.3l-.1-.9v-1.2q-1.7-.3-3.2-.3-1.5 0-2.8.4-1.4.5-2.4 1.3-.9.9-1.5 2.2-.5 1.2-.5 2.7 0 1.4.4 2.5.5 1.2 1.5 2 .9.8 2.2 1.2 1.2.4 2.5.4.6 0 1.5-.1.8-.1 1.9-.3.1-1.1.3-2.1-1.9.5-3.2.5-1.5 0-2.5-.5-1-.6-1.4-1.5-.5-.9-.5-2.1 0-1 .4-1.9.4-.9 1-1.5z" class="s76"/><path fill-rule="evenodd" d="M519.1 1721.4q.5 1.1.5 2.6 0 1.3-.5 2.6-.4 1.3-1.4 2.2-1 .9-2.3 1.3-1.4.5-2.9.5t-2.8-.4q-1.3-.5-2.2-1.3-1-.9-1.4-2-.4-1.1-.4-2.4 0-1.4.5-2.7.5-1.3 1.5-2.2 1-.8 2.3-1.3 1.4-.4 2.9-.4 1.4 0 2.6.4 1.2.3 2.2 1.2.9.8 1.4 1.9zm-2.3 2.7q0-.9-.2-1.7-.3-.8-.8-1.4-.6-.6-1.4-.9-.8-.3-1.6-.3-1.4 0-2.4.6-1 .7-1.5 1.7-.5 1.1-.5 2.4 0 1.1.5 2.1t1.5 1.5q1 .5 2.2.5.9 0 1.7-.3.8-.3 1.4-.9.5-.6.8-1.5.3-.9.3-1.8z" class="s76"/><path d="m531 1728.5-1.5-.1q0-1.5.1-3l.2-3.6q.1-2.1.2-3.7h-2.8q-.1 2.9-.2 6.2-.2 3.3-.4 6h8.5q0-1 .1-1.9h-1.3q-.7.1-2.9.1zM536.8 1727.9q0 1.8-.1 2.4h2.5l.1-1.1q0-.6.1-1.3h-1.2zM546.4 1728.5l-1.6-.1.2-3 .1-3.6q.1-2.1.3-3.7h-2.9q0 2.9-.2 6.2-.1 3.3-.4 6h8.5q.1-1 .2-1.9h-1.4q-.6.1-2.8.1zM552.2 1727.9q-.1 1.8-.1 2.4h2.5v-1.1q.1-.6.1-1.3h-1.2zM561.6 1728.1q-.9-.6-1.4-1.5-.4-.9-.4-2.1 0-1 .3-1.9.4-.9 1.1-1.5.6-.7 1.5-.9.9-.3 1.9-.3.6 0 1.2.1.7.1 1.7.3v-.9q-.1-.4-.1-1.2-1.7-.3-3.2-.3-1.4 0-2.8.4-1.3.5-2.3 1.3-1 .9-1.5 2.2-.6 1.2-.6 2.7 0 1.4.5 2.5.4 1.2 1.4 2 1 .8 2.2 1.2 1.2.4 2.5.4.7 0 1.5-.1.9-.1 1.9-.3.1-1.1.3-2.1-1.9.5-3.2.5-1.5 0-2.5-.5zM340 1250.2c-68.3 123.7-136 246.1-203.6 368.5q.4.3.9.7c82.6-53.5 165.1-107 247.9-160.7-3.6-6.7-6.8-12.9-10.2-19.3-35.1 17-69.5 33.7-103.9 50.3l-.9-.9c22.9-41.8 45.8-83.5 69.3-126.2 33.4 62.2 66.5 123.5 100.2 186.1-3.2-.7-4.7-.9-6.2-1.3-29.6-8.1-59.3-16-88.8-24.3-5.8-1.6-10.4-1.4-15.8 2.1-51.6 33-103.4 65.7-155.1 98.5l-53.2 33.8.4.8c1.6-.5 3.3-1 4.9-1.5 67.7-24.6 135.5-49.2 203.3-73.6 3.1-1.1 7.2-1.2 10.2-.2 70.7 24.1 141.4 48.3 212 72.5 3.4 1.2 6.8 2.2 11.5 3.7-74.6-136.9-148.5-272.4-222.9-409zM523.2 1369.3q-.5-.7-.9-1.3c-29.7 14.4-59.3 28.7-89.4 43.3 2.5 4.3 4.7 8 7.1 11.9 28-18.2 55.6-36.1 83.2-53.9z" class="s76"/></g></svg>